<svg width="1200" height="800" viewBox="0 0 1200 800" fill="none" xmlns="http://www.w3.org/2000/svg">
<g clip-path="url(#clip0_43_120)">
<path d="M123 252.64C123 226.13 144.49 204.64 171 204.64H931.465C957.974 204.64 979.465 226.13 979.465 252.64V808.508H123V252.64Z" fill="#FBC329"/>
<path d="M452.841 166.154C445.576 154.257 432.642 147 418.702 147H307.045C275.814 147 256.631 181.191 272.906 207.846L310.615 269.601C317.88 281.498 330.814 288.755 344.754 288.755H456.411C487.642 288.755 506.825 254.564 490.55 227.91L452.841 166.154Z" fill="#FBC329"/>
<path d="M252.225 166.154C259.49 154.257 272.424 147 286.364 147H398.021C429.252 147 448.435 181.191 432.16 207.846L394.451 269.601C387.186 281.498 374.252 288.755 360.312 288.755H248.655C217.424 288.755 198.241 254.564 214.516 227.91L252.225 166.154Z" fill="#FBC329"/>
<path d="M342.39 204.602C342.436 204.559 342.412 204.479 342.423 204.417C342.127 199.778 343.086 194.744 344.186 190.281C344.246 190.088 344.298 189.869 344.357 189.677L344.681 188.503C345.116 186.917 345.615 185.255 346.278 183.749C346.451 183.348 346.598 182.955 346.806 182.574C346.987 182.2 347.168 181.826 347.427 181.517C347.492 181.44 347.564 181.39 347.618 181.374C347.672 181.358 347.76 181.362 347.83 181.4C348.023 181.46 348.216 181.52 348.326 181.693C348.369 181.738 348.385 181.792 348.393 181.819C348.409 181.873 348.424 181.926 348.387 181.996C348.281 182.231 348.202 182.458 348.105 182.72L347.948 183.174C347.858 183.463 347.555 184.31 347.371 184.48C347.344 184.488 347.334 184.549 347.315 184.584L346.753 186.235C346.477 187.074 346.235 187.933 346.02 188.783C344.603 193.951 343.689 199.235 343.8 204.628C343.797 204.716 343.802 204.831 343.825 204.912L343.833 204.939C343.849 204.992 343.876 204.985 343.903 204.977L343.957 204.961C344.033 204.822 344.105 204.772 344.213 204.741C344.374 204.693 344.54 204.762 344.733 204.822C344.865 204.871 345.007 204.859 345.142 204.819L345.357 204.757C348.34 203.886 350.868 200.989 352.504 198.528C355.12 194.352 357.618 188.401 356.169 183.516C354.886 179.194 351.525 178.104 347.413 179.305C345.585 179.838 343.554 180.869 342.231 182.217C340.414 183.769 339.008 185.725 337.908 187.826C337.264 189.297 336.463 191.223 336.718 192.869C336.731 193.011 336.771 193.146 336.776 193.261C336.824 193.422 336.794 193.518 336.632 193.565L336.579 193.581C336.125 193.626 335.605 193.253 335.478 192.823L335.422 192.635C335.338 191.96 335.378 191.306 335.487 190.691C336.301 186.049 340.305 180.942 344.538 179.065C345.116 178.75 345.761 178.562 346.406 178.373L347.025 178.193C347.624 178.047 348.22 177.99 348.824 177.959C352.837 177.604 356.256 179.873 357.419 183.792C358.494 187.416 357.549 191.513 356.061 194.865C354.523 198.639 350.581 204.252 346.684 205.39L346.396 205.503C346.02 205.613 345.662 205.688 345.27 205.744C345.109 205.792 345.082 205.799 345.076 205.976C345.048 206.276 345.02 206.576 344.931 206.864C344.83 207.215 344.628 207.42 344.386 207.49C344.225 207.537 344.056 207.557 343.862 207.497C343.245 207.386 342.892 207.08 342.709 206.463L342.653 206.275C342.589 206.06 342.56 205.865 342.523 205.642L342.499 205.562C342.484 205.508 342.433 205.435 342.336 205.405C341.532 205.057 340.93 204.503 340.43 203.803C340.027 203.133 339.685 202.475 339.462 201.723L339.425 201.5C338.912 199.083 339.195 197.28 340.306 195.118C340.374 194.952 340.438 194.875 340.546 194.844C340.626 194.82 340.742 194.816 340.873 194.865C341.032 194.906 341.198 194.974 341.318 195.085C341.361 195.131 341.404 195.177 341.42 195.23C341.436 195.284 341.398 195.353 341.368 195.45C340.456 197.495 339.983 199.442 340.652 201.697C340.723 201.938 340.803 202.207 340.91 202.467C341.112 203.05 341.413 203.574 341.796 204.075C341.975 204.285 342.146 204.469 342.39 204.602ZM363.56 191.771C365.065 191.332 366.799 189.104 367.499 187.821C367.567 187.655 367.632 187.578 367.739 187.547C367.793 187.531 367.881 187.534 368.005 187.556C368.155 187.571 368.225 187.609 368.241 187.663C368.265 187.743 368.254 187.805 368.197 187.909C367.528 189.592 365.501 191.817 363.808 192.311C362.491 192.696 360.905 192.371 360.23 191.08C360.172 190.981 360.14 190.874 360.108 190.766C360.06 190.605 360.031 190.409 360.002 190.214C359.894 188.174 360.979 185.728 363.075 185.116C363.594 184.994 364.106 185.049 364.613 185.28C364.892 185.432 365.106 185.661 365.194 185.956C365.64 187.459 363.564 189.816 362.22 190.208C361.951 190.286 361.675 190.338 361.382 190.336C361.32 190.325 361.267 190.34 361.24 190.348C361.159 190.372 361.175 190.425 361.207 190.533L361.294 190.828C361.541 191.66 362.166 192.091 363.05 191.92L363.56 191.771ZM361.612 189.831C361.746 189.792 361.881 189.753 362.007 189.687C363.14 188.977 364.38 187.448 364.189 186.016L364.165 185.936C364.093 185.694 363.978 185.699 363.79 185.754C362.317 186.3 361.384 188.177 361.202 189.63C361.191 189.692 361.172 189.726 361.18 189.753L361.204 189.834C361.22 189.887 361.255 189.906 361.343 189.91L361.612 189.831ZM367.257 187.658C367.058 186.987 366.929 186.354 366.834 185.74C366.757 185.383 366.681 185.026 366.596 184.643C366.586 184.412 366.643 184.308 366.858 184.245C367.153 184.159 367.454 184.188 367.733 184.34C367.811 184.405 367.896 184.496 367.92 184.577L367.944 184.657C368.027 185.625 368.286 186.599 368.565 187.539L368.852 188.505C368.982 188.846 369.113 189.187 369.289 189.486C369.313 189.566 369.337 189.647 369.425 189.65C369.506 189.627 369.517 189.565 369.555 189.496L369.801 189.045C370.004 188.548 371.082 185.783 370.97 185.407C370.954 185.354 370.938 185.3 370.896 185.254C370.677 184.91 370.511 184.55 370.4 184.174C370.177 183.422 370.185 182.662 370.504 181.868C370.594 181.58 370.845 181.244 371.14 181.157C371.302 181.11 371.444 181.098 371.61 181.166C371.927 181.249 372.187 181.435 372.282 181.757L372.298 181.811C372.38 182.283 372.365 182.725 372.288 183.156C372.222 183.817 372.085 184.44 371.957 185.09C371.927 185.186 371.924 185.275 371.948 185.355C371.972 185.436 372.023 185.509 372.127 185.566C372.507 185.863 372.928 186.002 373.471 185.961L373.56 185.964C373.586 185.956 373.613 185.948 373.613 185.948C373.748 185.909 373.866 185.816 373.977 185.696C374.041 185.619 374.114 185.569 374.195 185.545C374.383 185.49 374.839 185.649 374.895 185.837L374.903 185.864C374.931 186.059 374.786 186.16 374.641 186.261C374.503 186.389 374.35 186.462 374.189 186.51C373.571 186.69 372.876 186.514 372.315 186.298C372.157 186.257 372.018 186.181 371.878 186.105C371.809 186.067 371.774 186.048 371.747 186.056C371.72 186.064 371.701 186.098 371.698 186.187L371.396 187.237C371.23 187.957 371.002 188.665 370.801 189.365C370.663 189.785 370.465 190.397 369.981 190.538C369.9 190.562 369.785 190.566 369.669 190.571C368.26 190.545 367.647 188.973 367.313 187.846L367.257 187.658ZM371.335 184.076C371.527 183.641 371.646 182.468 371.538 182.004C371.248 182.701 371.181 183.362 371.335 184.076ZM377.734 187.633C379.239 187.194 380.973 184.966 381.673 183.683C381.741 183.517 381.806 183.44 381.913 183.409C381.967 183.393 382.055 183.396 382.179 183.419C382.329 183.433 382.399 183.471 382.415 183.525C382.439 183.605 382.428 183.667 382.371 183.771C381.702 185.454 379.675 187.679 377.982 188.173C376.665 188.558 375.079 188.233 374.404 186.943C374.345 186.843 374.314 186.736 374.282 186.628C374.234 186.467 374.205 186.271 374.176 186.076C374.068 184.036 375.153 181.59 377.249 180.978C377.768 180.856 378.28 180.911 378.787 181.142C379.066 181.294 379.28 181.523 379.367 181.818C379.814 183.322 377.738 185.678 376.394 186.07C376.125 186.148 375.849 186.2 375.556 186.198C375.494 186.187 375.44 186.202 375.414 186.21C375.333 186.234 375.349 186.288 375.381 186.395L375.468 186.69C375.715 187.522 376.339 187.953 377.223 187.782L377.734 187.633ZM375.786 185.693C375.92 185.654 376.055 185.615 376.181 185.549C377.314 184.839 378.554 183.31 378.363 181.878L378.339 181.798C378.267 181.556 378.152 181.561 377.964 181.616C376.491 182.162 375.558 184.039 375.376 185.492C375.365 185.554 375.346 185.588 375.354 185.615L375.378 185.696C375.394 185.749 375.429 185.768 375.517 185.772L375.786 185.693ZM381.702 184.433C380.858 181.587 381.185 177.671 382.086 174.899C382.645 173.044 384.076 169.797 386.173 169.185C387.141 168.903 388.315 169.318 388.618 170.338C388.642 170.419 388.666 170.499 388.671 170.614C388.909 172.499 387.861 175.168 387.06 176.801C386.219 178.593 384.274 182.078 382.805 183.032C382.713 183.117 382.702 183.178 382.715 183.32C382.789 183.765 382.898 184.23 383.033 184.686L383.121 184.981C383.37 185.725 384.251 187.51 385.272 187.212C385.326 187.196 385.372 187.153 385.452 187.13C385.996 186.796 386.358 186.049 386.599 185.483C386.667 185.317 386.758 185.232 386.866 185.2C386.919 185.185 387.008 185.188 387.123 185.184C387.274 185.198 387.609 185.246 387.665 185.434C387.673 185.461 387.662 185.522 387.624 185.592C387.321 186.439 386.823 187.517 385.882 187.792C385.613 187.87 385.294 187.876 384.993 187.847C383.112 187.609 382.196 186.097 381.702 184.433ZM382.63 182.441C382.737 182.41 382.775 182.34 382.84 182.263L383.228 181.8C385.243 179.141 387.765 174.058 387.703 170.897C387.674 170.701 387.637 170.478 387.574 170.264L387.51 170.049C387.446 169.834 387.377 169.796 387.162 169.859L386.973 169.914C386.355 170.094 385.657 170.794 385.277 171.284C383.114 174.132 382.332 178.386 382.543 181.854C382.564 182.023 382.566 182.226 382.63 182.441ZM392.614 181.422C392.479 181.461 392.442 181.531 392.385 181.635C392.023 182.878 391.103 184.401 389.813 184.778C388.737 185.092 387.496 184.55 387.169 183.449C386.962 182.751 386.912 181.103 387.346 180.598C387.448 180.451 387.574 180.385 387.736 180.338C388.058 180.244 388.437 180.337 388.667 180.62L388.709 180.666C388.741 180.774 388.684 180.878 388.655 180.974L388.428 181.39C388.371 181.494 388.322 181.625 388.3 181.748C388.253 182.375 388.224 182.966 388.407 183.584C388.455 183.745 388.556 183.89 388.658 184.036C388.74 184.216 388.891 184.23 389.052 184.183L389.321 184.105C390.222 183.696 390.958 182.635 391.335 181.737C391.345 181.676 391.364 181.641 391.356 181.614C391.348 181.587 391.314 181.568 391.225 181.565C390.062 181.584 388.708 180.958 388.35 179.75C388.27 179.482 388.244 179.198 388.307 178.917C388.401 178.248 388.808 177.75 389.378 177.408C389.505 177.342 389.631 177.276 389.765 177.237C390.921 176.899 392.127 177.714 392.453 178.815C392.629 179.405 392.627 179.989 392.598 180.581C392.587 180.643 392.576 180.704 392.584 180.731C392.6 180.785 392.654 180.769 392.761 180.738L392.976 180.675C393.325 180.573 393.659 180.417 393.966 180.269C394.264 180.095 394.528 179.901 394.776 179.653C394.822 179.611 394.867 179.568 394.948 179.545C395.136 179.49 395.391 179.561 395.501 179.734L395.517 179.787C395.54 179.868 395.522 179.902 395.476 179.945C395.373 180.092 395.236 180.219 395.117 180.312C394.678 180.703 394.146 180.975 393.635 181.124L392.614 181.422ZM391.616 178.651C391.521 178.329 391.387 178.076 391.224 177.919C391.069 177.79 390.921 177.687 390.706 177.75L390.545 177.797C390.491 177.812 390.464 177.82 390.418 177.863C389.951 178.058 389.611 178.39 389.478 178.925C389.434 179.171 389.452 179.428 389.524 179.67C389.579 179.858 389.662 180.038 389.772 180.21C390.162 180.738 390.692 181.05 391.385 181.023L391.439 181.007C391.547 180.975 391.584 180.906 391.614 180.81L391.68 180.441C391.77 179.86 391.764 179.249 391.616 178.651ZM396.082 181.693C396.445 180.158 396.842 178.642 397.494 177.197C397.732 176.72 397.97 176.242 398.277 175.802C398.49 175.536 398.703 175.269 399.01 175.121C399.109 175.063 399.182 175.013 399.263 174.989C399.343 174.966 399.459 174.961 399.547 174.964C400.383 174.925 401.111 175.412 401.369 176.183C401.513 176.666 401.549 177.18 401.55 177.676C401.555 177.791 401.552 177.88 401.567 177.933C401.591 178.014 401.672 177.99 401.887 177.927C402.425 177.771 403.661 177.41 403.867 176.824C403.905 176.755 403.978 176.705 404.058 176.681L404.139 176.658C404.281 176.645 404.643 176.685 404.691 176.846C404.707 176.9 404.696 176.961 404.685 177.023C404.463 177.555 403.95 177.792 403.463 178.022C403.175 178.135 402.888 178.248 402.592 178.334C402.296 178.421 401.993 178.48 401.689 178.539C401.555 178.579 401.482 178.629 401.441 178.787C401.151 180.271 400.546 182.169 399.035 182.785C398.963 182.836 398.882 182.859 398.828 182.875C398.129 183.079 397.276 182.861 396.862 182.253C396.754 182.284 396.77 182.338 396.759 182.4C396.138 185.031 395.984 187.76 395.991 190.441C396.005 191.079 396.108 191.72 396.149 192.349C396.167 192.607 396.185 192.864 396.149 193.137C396.121 193.437 396.037 193.549 395.822 193.611L395.715 193.643C395.338 193.753 395.022 193.67 394.876 193.275C394.708 192.712 394.664 192.17 394.613 191.602C394.268 187.094 394.501 182.563 395.104 178.099C395.175 177.553 395.301 176.992 395.453 176.422C395.464 176.361 395.475 176.299 395.513 176.23C395.591 176.003 395.775 175.833 396.016 175.762C396.231 175.699 396.478 175.744 396.703 175.911C396.738 175.93 396.781 175.976 396.797 176.03C396.805 176.057 396.794 176.118 396.783 176.18C396.473 177.204 396.365 178.314 396.268 179.364C396.19 180.087 396.077 180.79 396.054 181.497C396.035 181.532 396.051 181.586 396.067 181.639L396.082 181.693ZM397.899 178.858C398.152 178.726 398.386 178.629 398.628 178.558L398.816 178.503C399.066 178.459 399.343 178.408 399.592 178.364C399.781 178.309 399.95 178.289 400.146 178.261C400.442 178.174 400.326 176.604 400.273 176.328C400.21 176.113 400.146 175.898 400.001 175.707C399.916 175.615 399.908 175.588 399.8 175.62L399.72 175.643C399.287 175.857 398.919 176.49 398.711 176.871C398.355 177.442 398.076 178.077 397.824 178.705C397.813 178.767 397.776 178.836 397.792 178.89L397.899 178.858ZM399.126 179.054C398.669 179.188 398.27 179.421 397.974 179.799C397.513 180.313 397.366 180.998 397.565 181.669C397.644 181.937 397.73 182.029 397.909 182.239C398.011 182.384 398.099 182.388 398.207 182.356L398.314 182.325C398.414 182.267 398.487 182.216 398.559 182.166C399.281 181.547 399.755 180.388 400.016 179.495C400.048 179.31 400.108 179.118 400.149 178.96C400.168 178.925 400.16 178.898 400.152 178.872C400.136 178.818 400.109 178.826 400.021 178.822C399.851 178.843 399.663 178.898 399.502 178.945L399.126 179.054ZM407.237 179.02C408.742 178.58 410.476 176.353 411.176 175.07C411.244 174.904 411.308 174.827 411.416 174.796C411.47 174.78 411.558 174.783 411.682 174.805C411.832 174.82 411.902 174.858 411.918 174.912C411.942 174.992 411.931 175.054 411.874 175.158C411.205 176.841 409.178 179.066 407.485 179.56C406.168 179.945 404.582 179.62 403.907 178.329C403.848 178.23 403.816 178.123 403.785 178.015C403.737 177.854 403.708 177.658 403.679 177.463C403.57 175.423 404.655 172.977 406.752 172.365C407.27 172.243 407.783 172.298 408.29 172.529C408.569 172.681 408.783 172.91 408.87 173.205C409.316 174.708 407.241 177.064 405.897 177.457C405.628 177.535 405.351 177.587 405.059 177.585C404.997 177.574 404.943 177.589 404.916 177.597C404.836 177.621 404.852 177.674 404.884 177.782L404.971 178.077C405.218 178.909 405.842 179.34 406.726 179.169L407.237 179.02ZM405.289 177.08C405.423 177.041 405.557 177.002 405.684 176.936C406.817 176.226 408.057 174.697 407.866 173.265L407.842 173.185C407.77 172.943 407.655 172.948 407.467 173.002C405.993 173.549 405.061 175.426 404.879 176.879C404.868 176.941 404.849 176.975 404.857 177.002L404.881 177.083C404.896 177.136 404.931 177.155 405.02 177.159L405.289 177.08ZM412.462 176.415C412.541 176.188 412.585 175.942 412.655 175.688C412.992 173.869 413.556 171.341 414.662 169.852C414.772 169.732 414.891 169.639 415.025 169.6C415.401 169.49 415.932 169.802 416.135 170.093C416.28 170.284 416.397 170.483 416.568 170.666C416.678 170.838 416.755 170.903 416.863 170.872C416.944 170.848 417.191 170.601 417.194 170.513C417.251 170.409 417.324 170.358 417.378 170.342C417.458 170.319 417.547 170.322 417.617 170.36C417.898 170.424 418.038 170.5 418.069 170.607C418.101 170.715 418.053 170.845 417.958 171.019C417.818 171.235 417.627 171.378 417.385 171.449C417.277 171.48 417.17 171.512 417.046 171.489C416.321 171.409 415.829 171.028 415.522 170.388C415.471 170.316 415.436 170.297 415.409 170.304C415.383 170.312 415.364 170.347 415.318 170.39C415.207 170.509 415.105 170.656 415.002 170.803C414.13 172.195 413.621 174.414 413.425 176.018C413.399 176.521 413.319 177.04 413.197 177.513L413.164 177.698C413.145 177.733 413.153 177.759 413.134 177.794C413.056 178.021 412.918 178.149 412.703 178.212C412.649 178.227 412.588 178.216 412.507 178.24C411.903 178.27 411.53 178 411.363 177.436L411.323 177.302C411.236 177.007 411.194 176.669 411.195 176.377C411.076 174.895 411.17 173.438 411.494 171.972C411.522 171.673 411.671 171.192 412.021 171.09C412.29 171.011 412.649 171.14 412.847 171.315C412.882 171.334 412.898 171.388 412.914 171.441C412.93 171.495 412.938 171.522 412.9 171.591C412.408 172.493 412.346 175.137 412.452 176.185C412.441 176.246 412.438 176.335 412.462 176.415Z" fill="#238CFF"/>
<path d="M298.391 171.751C298.445 171.735 298.498 171.719 298.525 171.711L298.813 171.598C299.861 171.292 300.938 171.182 302.005 171.133C303.387 171.167 305.272 171.317 305.742 172.901L305.782 173.035C305.818 173.257 305.82 173.461 305.777 173.707C305.76 173.945 305.712 174.572 305.416 174.658C305.363 174.674 305.309 174.69 305.247 174.678C304.93 174.596 304.644 174.417 304.468 174.118L304.452 174.065C304.428 173.984 304.423 173.869 304.453 173.773C304.561 173.449 304.644 172.842 304.54 172.493C304.413 172.064 302.954 172.168 302.608 172.182C302.084 172.189 301.558 172.284 301.023 172.353C300.819 172.354 300.631 172.409 300.435 172.437C299.97 172.544 299.532 172.643 299.102 172.768C298.806 172.854 298.537 172.933 298.276 173.038C297.478 173.3 296.688 173.59 295.913 173.932C295.499 174.112 295.066 174.325 294.644 174.478C293.915 174.778 293.272 175.17 292.578 175.489L292.008 175.831C291.954 175.846 291.935 175.881 291.943 175.908C291.951 175.935 291.959 175.962 291.994 175.981C292.099 176.038 292.157 176.137 292.181 176.218C292.213 176.325 292.191 176.448 292.15 176.606C292.11 176.764 292.042 176.929 292.001 177.087L291.695 178.022C291.654 178.18 291.613 178.338 291.545 178.504C291.467 178.731 291.353 178.939 291.197 179.101C291.178 179.136 291.14 179.205 291.113 179.213L291.033 179.237C290.898 179.276 290.903 179.391 290.881 179.514C290.547 180.749 290.301 181.988 290.125 183.264C290.078 183.599 289.559 187.163 289.575 187.217C289.598 187.297 289.633 187.316 289.714 187.293C289.714 187.293 289.714 187.293 289.768 187.277L289.84 187.227C290.814 186.768 291.742 186.351 292.736 186.061L293.032 185.974C293.362 185.907 293.693 185.84 294.02 185.861C294.748 185.852 295.306 186.156 295.666 186.78C295.717 186.853 295.741 186.933 295.773 187.041C295.804 187.148 295.836 187.256 295.814 187.379C295.811 187.467 295.774 187.536 295.693 187.56C295.666 187.568 295.639 187.576 295.577 187.565C295.277 187.536 294.966 187.276 294.871 186.954L294.823 186.793C294.799 186.713 294.764 186.694 294.622 186.706C294.418 186.707 294.248 186.727 294.06 186.782L293.55 186.931C292.179 187.332 290.872 187.947 289.642 188.626C289.489 188.7 289.405 188.812 289.407 189.016C289.304 190.242 288.76 197.168 288.951 197.812C289.243 198.894 289.585 200.835 289.423 201.962C289.379 202.208 289.304 202.347 289.115 202.402C289.062 202.418 288.973 202.414 288.885 202.411C288.742 202.423 288.584 202.382 288.452 202.333C288.163 202.242 288.01 202.024 287.904 201.764L287.856 201.603C287.745 201.227 287.695 200.862 287.664 200.463C287.536 199.246 287.516 197.998 287.531 196.768C287.529 196.565 287.519 196.334 287.544 196.123C287.566 196 287.534 195.892 287.494 195.758C287.463 195.651 287.431 195.543 287.372 195.444C286.898 194.24 286.179 193.196 285.334 192.218L284.992 191.851C284.984 191.824 284.957 191.832 284.93 191.84C284.634 191.926 283.16 193.552 282.936 193.88C282.788 194.069 282.666 194.251 282.553 194.459C282.507 194.501 282.488 194.536 282.504 194.59L282.512 194.617C282.528 194.67 282.608 194.647 282.67 194.658C282.893 194.622 283.059 194.69 283.242 194.812C283.284 194.858 283.3 194.911 283.316 194.965L283.332 195.019C283.302 195.115 283.222 195.139 283.141 195.162C282.66 195.215 282.228 195.137 281.848 194.84C281.762 194.748 281.677 194.656 281.645 194.549C281.613 194.441 281.635 194.318 281.657 194.195C281.735 193.968 281.841 193.733 281.989 193.544C282.559 192.707 283.195 191.996 283.919 191.289C283.957 191.219 284.003 191.177 284.076 191.127C284.121 191.084 284.132 191.022 284.116 190.969C284.109 190.942 284.101 190.915 284.066 190.896C283.289 190.248 282.532 189.565 281.847 188.831C281.469 188.446 281.146 188.044 280.906 187.531C280.847 187.431 280.807 187.297 280.775 187.19C280.68 186.868 280.673 186.549 280.685 186.195C280.925 184.346 282.265 182.467 283.465 181.096C285.287 179.164 287.272 177.389 289.545 175.996C289.69 175.895 289.844 175.821 289.989 175.72L290.912 175.188C291.681 174.73 292.451 174.272 293.263 173.86C293.363 173.802 293.47 173.77 293.57 173.712L294.183 173.417C294.283 173.358 294.39 173.327 294.49 173.269C295.617 172.736 296.832 172.206 298.041 171.853L298.391 171.751ZM290.224 176.906C289.525 177.11 286.919 179.154 286.27 179.723C285.95 180.02 285.621 180.291 285.327 180.581C283.771 182.028 280.946 185.302 281.567 187.396C281.607 187.53 281.673 187.657 281.74 187.783L282.045 188.219C282.743 189.095 283.597 189.808 284.405 190.564C284.483 190.628 284.518 190.647 284.571 190.632C284.598 190.624 284.652 190.608 284.698 190.566L285.683 189.753C286.375 189.23 287.102 188.726 287.852 188.303C288.006 188.229 288.062 188.125 288.076 187.975C288.193 186.891 288.317 185.834 288.468 184.769C288.501 184.584 288.515 184.434 288.548 184.25L288.715 183.238C288.985 181.293 289.433 179.062 290.185 177.267C290.234 177.136 290.318 177.024 290.332 176.874L290.224 176.906ZM287.877 189.667C287.13 190.002 286.125 190.849 285.514 191.348C285.423 191.433 285.396 191.441 285.412 191.495C285.42 191.522 285.462 191.568 285.513 191.64L285.548 191.659C286.284 192.465 286.966 193.287 287.502 194.21C287.537 194.229 287.545 194.256 287.599 194.24C287.676 192.73 287.781 191.212 287.912 189.686L287.877 189.667ZM303.505 187.03C303.451 187.045 303.413 187.115 303.394 187.149L303.224 187.462C303.213 187.523 303.194 187.558 303.156 187.627C302.802 188.401 302.175 189.635 301.331 189.939C300.39 190.214 299.612 189.858 299.326 188.891L299.305 188.722C299.305 188.722 299.297 188.696 299.289 188.669C299.055 187.191 299.473 185.056 299.867 183.629L299.975 183.305C300.008 183.121 300.135 183.055 300.296 183.008L300.43 182.968C300.696 182.978 300.916 183.031 301.133 183.172C301.238 183.229 301.28 183.274 301.304 183.355C301.32 183.409 301.317 183.497 301.287 183.593C300.892 185.313 300.419 187.26 300.74 189.033L300.764 189.113C300.804 189.247 300.847 189.293 300.9 189.277C300.927 189.27 300.973 189.227 301.019 189.184C301.248 188.972 301.415 188.748 301.609 188.516C302.262 187.567 303.513 185.189 303.783 184.031C303.833 183.608 304.107 182.07 304.59 181.929C304.698 181.898 304.84 181.885 305.033 181.945C305.184 181.96 305.393 182.074 305.433 182.208C305.449 182.262 305.464 182.315 305.435 182.412C305.421 182.562 305.38 182.719 305.339 182.877C305.039 184.131 304.616 186.151 304.849 187.425C304.869 187.594 304.882 187.736 304.93 187.897L305.005 188.05C305.005 188.05 305.013 188.077 305.021 188.104C305.061 188.238 305.103 188.284 305.157 188.268C305.211 188.252 305.257 188.21 305.302 188.167C306.01 187.698 306.946 185.733 307.228 185.009C307.268 184.851 307.371 184.705 307.532 184.658C307.613 184.634 307.906 184.636 307.937 184.744C307.953 184.797 307.916 184.867 307.905 184.928C307.595 185.952 307.119 186.908 306.574 187.825C306.328 188.276 305.924 188.686 305.413 188.835C304.526 189.094 303.91 188.691 303.647 187.805C303.583 187.59 303.546 187.367 303.51 187.145L303.513 187.056L303.505 187.03ZM316.318 184.164C316.28 184.233 316.215 184.311 316.185 184.407L315.878 184.847C315.821 184.951 315.783 185.02 315.719 185.097C314.812 186.47 313.439 188.242 311.815 188.774L311.735 188.798C309.37 189.488 308.016 188.075 307.402 186.008C306.906 184.14 306.953 182.231 307.185 180.355C307.585 177.175 309.39 171.544 312.275 170.147C312.302 170.139 312.329 170.132 312.356 170.124L312.482 170.058C313.504 169.759 314.493 170.141 314.812 171.215C314.913 171.653 314.871 172.102 314.821 172.525C314.279 175.717 310.976 182.894 308.477 184.119C308.324 184.193 308.329 184.309 308.369 184.443C308.437 185.065 308.55 185.644 308.725 186.235C308.869 186.718 309.031 187.166 309.328 187.576C309.464 187.74 309.592 187.877 309.748 188.007C310.117 188.366 310.533 188.39 310.99 188.257L311.125 188.218C312.904 187.523 314.389 185.34 315.355 183.774L315.73 183.169C315.898 182.945 316.03 182.702 316.004 182.418C315.739 180.541 315.748 178.701 315.926 176.84C316.139 174.999 317.259 169.422 319.382 168.802C320.027 168.613 320.681 168.947 320.88 169.619L320.904 169.699C321.024 170.102 321.009 170.544 320.986 170.959C320.708 174.452 318.863 179.454 317.255 182.403C317.18 182.541 317.193 182.683 317.206 182.825C317.303 183.351 317.428 183.869 317.579 184.379L317.683 184.728C317.877 185.284 318.063 185.813 318.33 186.318L318.482 186.536C318.541 186.636 318.549 186.663 318.576 186.655C318.603 186.647 318.648 186.605 318.694 186.562C318.74 186.519 318.821 186.496 318.901 186.472C319.116 186.41 319.444 186.431 319.615 186.614L319.65 186.633C319.674 186.714 319.655 186.748 319.644 186.81C319.535 187.133 319.333 187.338 319.038 187.424C317.506 187.872 316.714 185.302 316.403 184.256C316.395 184.229 316.388 184.202 316.318 184.164ZM313.755 170.999C313.704 170.926 313.672 170.819 313.629 170.773C313.555 170.62 313.485 170.582 313.377 170.613L313.27 170.644C313.063 170.734 312.891 170.843 312.726 170.978C309.657 173.333 308.154 179.78 308.3 183.325C308.281 183.36 308.289 183.387 308.297 183.414C308.305 183.44 308.313 183.467 308.34 183.459C308.375 183.478 308.375 183.478 308.402 183.471C308.428 183.463 308.447 183.428 308.466 183.393C308.631 183.258 308.76 183.103 308.889 182.949C311.086 180.412 313.342 175.611 313.83 172.435C313.872 171.985 313.887 171.543 313.779 171.079L313.755 170.999ZM317.012 180.695L317.182 180.382C318.339 177.886 320.736 171.79 320.051 169.481C319.984 169.355 319.942 169.309 319.861 169.333C319.834 169.341 319.807 169.348 319.761 169.391C319.616 169.492 319.479 169.619 319.368 169.739C317.263 172.191 316.697 177.665 316.977 180.676L317.012 180.695ZM326.614 178.912C327.098 178.771 327.387 179.153 327.506 179.556L327.522 179.609C327.578 179.797 327.487 179.882 327.341 179.983C327.188 180.057 327.054 180.096 326.919 180.136L326.731 180.19C326.669 180.179 326.616 180.195 326.562 180.211C326.4 180.258 326.266 180.297 326.105 180.344L325.156 180.592C325.022 180.631 324.86 180.678 324.699 180.725L324.242 180.859C323.409 181.102 322.557 181.38 321.732 181.65L321.463 181.728C321.302 181.776 321.17 181.726 321.05 181.616C320.902 181.513 320.828 181.36 320.753 181.206C320.689 180.992 320.746 180.888 320.953 180.798C321.206 180.666 321.502 180.58 321.789 180.466C321.897 180.435 322.004 180.404 322.077 180.353L322.695 180.173C322.795 180.115 322.875 180.091 322.983 180.06C323.762 179.832 324.518 179.524 325.244 179.312L326.614 178.912ZM328.6 188.775C327.176 189.19 325.278 188.898 324.674 187.354L324.61 187.139C323.965 184.965 326.55 181.964 328.074 180.703C328.212 180.575 328.257 180.532 328.241 180.479C328.226 180.425 328.191 180.406 328.167 180.326C328.002 179.965 327.836 179.605 327.725 179.229C327.263 177.673 327.409 174.917 329.264 174.376C329.371 174.344 329.452 174.321 329.567 174.316C329.906 174.276 330.176 174.401 330.39 174.63C330.468 174.695 330.484 174.749 330.5 174.802C330.524 174.883 330.521 174.971 330.429 175.056L330.235 175.288C330.155 175.312 330.101 175.327 330.02 175.351L329.95 175.313C329.924 175.321 329.889 175.302 329.862 175.31C329.808 175.325 329.797 175.387 329.725 175.437C328.741 176.453 328.586 177.899 328.976 179.214L329.08 179.563C329.146 179.69 329.162 179.743 329.216 179.728C329.243 179.72 329.289 179.677 329.334 179.635C330.656 178.578 331.914 177.598 333.447 176.859L333.493 176.816C333.654 176.769 333.758 176.826 333.844 176.918C333.879 176.937 333.922 176.983 333.93 177.01C333.945 177.063 333.908 177.133 333.835 177.183L333.59 177.342C332.425 177.945 331.378 178.746 330.366 179.567L329.571 180.236C329.472 180.295 329.453 180.329 329.477 180.41L329.509 180.517C329.698 180.958 329.933 181.356 330.141 181.762C330.584 182.566 331.035 183.397 331.29 184.256C331.927 186.403 330.724 188.155 328.6 188.775ZM327.617 188.216C327.859 188.145 328.093 188.048 328.326 187.95C329.828 187.104 330.388 185.744 329.956 184.091C329.669 183.125 329.213 182.179 328.719 181.302C328.653 181.175 328.637 181.122 328.556 181.145C328.529 181.153 328.483 181.196 328.438 181.238L328.007 181.656C326.732 182.874 325.252 185.464 325.66 187.329L325.715 187.517C326.002 188.483 326.837 188.443 327.617 188.216ZM334.164 170.116C334.33 169.397 334.469 168.685 334.762 167.9C334.84 167.672 335.038 167.352 335.227 167.005L335.254 166.998C335.375 166.816 335.485 166.697 335.585 166.638C335.892 166.49 336.131 166.508 336.39 166.695C336.406 166.749 336.406 166.749 336.449 166.794L336.438 166.856C336.443 166.971 336.448 167.086 336.383 167.164C336.236 167.848 335.989 168.591 335.769 169.326C335.71 169.519 335.599 169.639 335.666 169.765C335.674 169.792 335.617 169.896 335.59 169.904C335.536 169.919 335.483 169.935 335.448 169.916C335.359 169.913 335.324 169.894 335.297 169.902C335.271 169.909 335.214 170.014 335.203 170.075C335.118 170.479 335.012 171.006 334.921 171.587C335.848 171.462 336.732 171.291 337.265 171.019C337.601 170.775 337.983 170.488 337.963 170.028C337.955 170.001 337.94 169.947 337.95 169.885C337.953 169.797 338.018 169.72 338.099 169.696C338.126 169.688 338.179 169.673 338.214 169.692C338.488 169.729 338.748 169.915 338.908 170.16C338.943 170.179 338.959 170.233 338.967 170.26C338.991 170.34 338.961 170.436 338.966 170.552C338.749 171.198 338.063 171.544 337.469 171.805C337.181 171.919 336.877 171.978 336.609 172.056L336.421 172.111C336.232 172.166 335.421 172.287 334.825 172.344C334.499 174.889 334.335 178.175 334.728 179.694C334.884 180.319 335.201 180.897 335.426 181.065C335.504 181.129 335.539 181.148 335.62 181.125C335.646 181.117 335.673 181.109 335.719 181.067C335.918 180.95 336.048 180.796 336.169 180.614C336.215 180.572 336.253 180.503 336.283 180.406C336.32 180.337 336.393 180.287 336.501 180.255L336.581 180.232C336.785 180.23 336.962 180.237 337.137 180.332C337.198 180.343 337.214 180.397 337.222 180.424C337.238 180.477 337.219 180.512 337.2 180.547C337.084 180.843 336.925 181.094 336.642 181.322C336.497 181.423 336.324 181.532 336.163 181.579C335.626 181.736 334.796 181.599 334.411 181.186C333.975 180.701 333.72 179.842 333.618 179.201C333.339 177.474 333.499 174.569 333.775 172.446C333.275 172.534 332.665 172.741 332.578 172.942C332.623 173.191 332.501 173.372 332.259 173.443C331.929 173.51 331.497 173.432 331.377 173.029C331.13 172.197 332.138 172.049 332.299 172.002C332.764 171.895 333.291 171.8 333.879 171.716C333.945 171.347 333.991 171.012 334.054 170.731C334.098 170.485 334.158 170.293 334.164 170.116ZM341.788 174.89C341.716 174.941 341.705 175.002 341.648 175.106C341.278 175.827 340.889 176.582 340.422 177.273C340.168 177.697 339.898 178.067 339.604 178.357C339.448 178.52 339.33 178.613 339.165 178.748C339.039 178.814 338.913 178.88 338.832 178.904C338.536 178.99 338.228 178.934 337.914 178.763C337.531 178.554 337.293 178.245 337.181 177.869C337.126 177.681 337.075 177.608 337.1 177.397C337.056 176.855 337.154 176.302 337.323 175.786C337.738 174.527 338.386 173.463 339.336 172.631C339.657 172.333 340.028 172.108 340.423 171.964L340.531 171.932C340.907 171.822 341.296 171.855 341.718 171.994C341.744 171.986 341.744 171.986 341.779 172.005L341.849 172.043C341.876 172.036 341.876 172.036 341.911 172.055L342.034 172.077C342.061 172.069 342.08 172.034 342.091 171.973C342.178 171.48 342.111 171.646 342.246 171.315C342.306 171.122 342.389 171.011 342.497 170.979C342.578 170.956 342.736 170.997 342.91 171.092C342.98 171.13 343.023 171.176 343.057 171.195C343.178 171.305 343.256 171.37 343.279 171.451C343.311 171.558 343.308 171.646 343.26 171.777C343.23 171.874 343.2 171.97 343.189 172.031L343.126 172.312C343.107 172.347 343.085 172.47 343.045 172.628C343.023 172.751 343.028 172.866 343.06 172.973L343.099 173.108C343.123 173.188 343.174 173.261 343.206 173.368C343.293 173.663 343.3 173.982 343.184 174.279C343.181 174.367 343.132 174.498 343.083 174.629C343.054 174.725 343.016 174.795 342.935 174.818L342.881 174.834C342.855 174.842 342.847 174.815 342.82 174.823C342.793 174.831 342.774 174.865 342.771 174.954L342.859 176.036C342.856 176.125 342.895 176.259 342.943 176.42C342.983 176.554 343.007 176.635 343.05 176.681C343.159 176.853 343.291 176.902 343.46 176.882L343.621 176.835C343.729 176.803 343.855 176.737 343.982 176.671C344.245 176.477 344.52 176.222 344.787 175.94C345.377 175.272 345.89 174.539 346.228 173.711L346.375 173.318C346.404 173.222 346.45 173.179 346.504 173.164C346.531 173.156 346.566 173.175 346.654 173.178C346.813 173.219 346.89 173.284 346.922 173.392C346.946 173.472 346.943 173.561 346.913 173.657C346.769 174.253 346.496 174.712 346.212 175.232C345.875 175.768 345.476 176.293 345.034 176.772C344.721 177.097 344.393 177.368 344.043 177.47C343.694 177.572 343.324 177.505 342.967 177.288C342.498 176.987 342.183 176.613 342.031 176.103L341.976 175.915C341.888 175.62 341.835 175.343 341.828 175.025L341.788 174.89ZM341.814 172.812C341.798 172.758 341.763 172.739 341.71 172.755C341.675 172.736 341.621 172.752 341.567 172.767C341.164 172.885 340.839 173.068 340.545 173.357C339.74 174.088 339.124 174.968 338.699 175.996C338.451 176.536 338.298 177.105 338.243 177.705C338.24 177.793 338.21 177.889 338.234 177.97C338.258 178.051 338.292 178.07 338.373 178.046C338.454 178.022 338.518 177.945 338.591 177.895C338.954 177.643 339.213 177.334 339.464 176.998C339.798 176.551 340.133 176.103 340.417 175.583C340.951 174.726 341.362 173.848 341.757 172.916L341.814 172.812ZM349.678 175.212C351.264 174.749 352.874 172.792 353.7 171.442C353.802 171.296 353.843 171.138 353.919 170.999C353.975 170.895 354.067 170.81 354.148 170.786C354.309 170.739 354.502 170.8 354.596 170.918L354.612 170.972C354.628 171.025 354.617 171.087 354.598 171.122C354.007 172.577 352.881 173.898 351.693 174.916C351.211 175.261 350.713 175.552 350.176 175.709C348.751 176.125 346.755 175.599 346.293 174.042C345.744 172.19 347.207 169.05 349.062 168.508C349.545 168.367 350.066 168.449 350.53 168.634C350.573 168.68 350.642 168.718 350.723 168.694C350.723 168.694 350.75 168.686 350.769 168.652L350.823 168.636C351.038 168.573 351.421 168.782 351.511 168.989C351.535 169.07 351.524 169.131 351.487 169.201C351.381 169.436 351.329 169.655 351.347 169.912C351.37 170.285 351.297 170.627 351.196 170.977C351.128 171.143 351.045 171.255 350.937 171.286C350.857 171.31 350.733 171.287 350.61 171.265C350.513 171.235 350.417 171.205 350.339 171.14C350.192 171.037 350.098 170.919 350.058 170.784C350.042 170.731 350.018 170.65 350.029 170.589C350.065 170.316 350.155 170.027 350.244 169.738C350.274 169.642 350.331 169.538 350.353 169.415C350.364 169.353 350.375 169.292 350.359 169.238C350.327 169.131 350.23 169.101 350.069 169.148L349.908 169.195C349.746 169.242 349.593 169.316 349.467 169.382C349.077 169.642 348.772 169.993 348.467 170.345C347.753 171.282 347.033 172.893 347.391 174.101C347.646 174.96 348.12 175.375 349.071 175.331C349.294 175.295 349.517 175.259 349.678 175.212ZM355.866 171.335C355.693 171.735 355.52 172.136 355.366 172.502C355.136 173.006 355.056 173.526 354.976 174.045C354.952 174.256 354.895 174.36 354.734 174.407C354.707 174.415 354.645 174.404 354.591 174.42C354.307 174.444 353.987 174.45 353.891 174.128L353.867 174.048C353.818 173.683 353.795 173.31 353.799 172.93C353.694 168.935 354.73 157.957 358.429 156.644L358.536 156.613C359.155 156.432 359.997 156.711 360.36 157.247C360.446 157.339 360.478 157.446 360.518 157.58C360.549 157.688 360.581 157.795 360.567 157.945C360.59 158.317 360.525 158.687 360.397 159.045C360.144 159.964 359.698 160.824 359.218 161.664C358.718 162.539 356.594 165.814 355.653 166.088C355.545 166.12 355.55 166.235 355.521 166.331C355.463 166.727 355.413 167.15 355.337 167.581C355.187 168.849 355.038 170.118 354.985 171.417C354.982 171.505 354.979 171.594 355.011 171.701C355.03 171.666 355.049 171.632 355.041 171.605L355.136 171.431C355.155 171.397 355.147 171.37 355.165 171.335C355.73 169.595 357.035 167.202 358.352 166.03C358.47 165.937 358.57 165.878 358.677 165.847C358.892 165.784 359.112 165.837 359.372 166.023C359.477 166.08 359.527 166.153 359.559 166.26C359.615 166.448 359.469 166.841 359.366 166.988C358.775 167.948 358.114 168.87 357.453 169.792C357.286 170.016 357.1 170.275 356.94 170.525C356.781 170.776 356.753 171.076 356.833 171.344L356.865 171.452C357 171.908 357.37 172.267 357.742 172.537C358.063 172.735 358.399 172.783 358.748 172.681C358.856 172.65 358.982 172.583 359.109 172.517C359.962 171.947 360.717 170.064 361.024 169.129C361.073 168.998 361.092 168.963 361.172 168.94C361.199 168.932 361.253 168.916 361.315 168.927C361.465 168.942 361.535 168.98 361.558 169.06C361.566 169.087 361.555 169.149 361.552 169.237C361.457 169.703 361.265 170.138 361.073 170.573C360.723 171.463 360.139 172.742 359.145 173.032C359.037 173.063 358.903 173.103 358.787 173.107C357.653 173.321 356.541 172.625 356.043 171.633C356.035 171.606 356.035 171.606 356.027 171.58L355.968 171.48C355.96 171.453 355.96 171.453 355.952 171.426C355.944 171.4 355.909 171.381 355.866 171.335ZM355.723 165.339C355.776 165.323 355.814 165.254 355.833 165.219C357.246 163.582 360.111 159.361 359.554 157.482L359.53 157.402C359.498 157.294 359.428 157.256 359.321 157.288L359.24 157.311C359.014 157.436 358.842 157.544 358.659 157.714C356.917 159.127 356.071 163.166 355.691 165.231L355.723 165.339Z" fill="#238CFF"/>
</g>
<defs>
<clipPath id="clip0_43_120">
<rect width="1200" height="800" fill="white"/>
</clipPath>
</defs>
</svg>
