<svg width="1149" height="680" viewBox="0 0 1149 680" fill="none" xmlns="http://www.w3.org/2000/svg">
<path d="M43.0222 118.639C43.0222 92.1298 64.5125 70.6395 91.0222 70.6395H851.487C877.997 70.6395 899.487 92.1299 899.487 118.64V674.508H43.0222V118.639Z" fill="#FBC329"/>
<path d="M372.863 32.1543C365.598 20.2571 352.664 13 338.724 13H227.067C195.837 13 176.653 47.1912 192.929 73.8457L230.637 135.601C237.902 147.498 250.836 154.755 264.776 154.755H376.433C407.664 154.755 426.848 120.564 410.572 93.9095L372.863 32.1543Z" fill="#FBC329"/>
<path d="M172.247 32.1543C179.512 20.2571 192.446 13 206.386 13H318.043C349.274 13 368.458 47.1912 352.182 73.8457L314.473 135.601C307.208 147.498 294.274 154.755 280.334 154.755H168.677C137.447 154.755 118.263 120.564 134.539 93.9095L172.247 32.1543Z" fill="#FBC329"/>
<path d="M262.412 70.6017C262.458 70.5592 262.434 70.4786 262.445 70.4171C262.149 65.7782 263.108 60.7436 264.208 56.2806C264.268 56.0882 264.32 55.8689 264.379 55.6764L264.703 54.5028C265.138 52.9174 265.638 51.2547 266.3 49.7486C266.474 49.348 266.62 48.9553 266.828 48.5737C267.009 48.2 267.19 47.8262 267.449 47.5173C267.514 47.4401 267.587 47.3897 267.64 47.374C267.694 47.3583 267.783 47.3616 267.852 47.3996C268.045 47.4599 268.239 47.5202 268.348 47.6924C268.391 47.7382 268.407 47.7919 268.415 47.8188C268.431 47.8724 268.447 47.9261 268.409 47.9955C268.303 48.2305 268.225 48.4576 268.127 48.7195L267.97 49.1737C267.88 49.4624 267.577 50.3094 267.394 50.4796C267.367 50.4874 267.356 50.5489 267.337 50.5836L266.775 52.2351C266.499 53.0743 266.257 53.9324 266.042 54.7827C264.626 59.9507 263.711 65.2347 263.822 70.6277C263.819 70.7161 263.824 70.8313 263.848 70.9118L263.856 70.9387C263.872 70.9923 263.898 70.9845 263.925 70.9767L263.979 70.961C264.055 70.8222 264.127 70.7718 264.235 70.7404C264.396 70.6934 264.562 70.7615 264.756 70.8218C264.887 70.8709 265.029 70.8585 265.164 70.8193L265.379 70.7565C268.362 69.8855 270.891 66.9889 272.526 64.528C275.142 60.3516 277.64 54.401 276.191 49.5156C274.908 45.1938 271.547 44.104 267.435 45.3046C265.607 45.8382 263.577 46.8686 262.254 48.2173C260.436 49.7689 259.03 51.7252 257.931 53.8256C257.287 55.297 256.485 57.2227 256.74 58.8692C256.753 59.0113 256.793 59.1455 256.798 59.2607C256.846 59.4218 256.816 59.518 256.655 59.5651L256.601 59.5808C256.147 59.6258 255.627 59.2525 255.5 58.823L255.444 58.6351C255.36 57.9594 255.4 57.3061 255.51 56.6908C256.323 52.049 260.327 46.9421 264.56 45.0647C265.138 44.75 265.784 44.5617 266.429 44.3734L267.047 44.1929C267.646 44.0471 268.242 43.9897 268.847 43.9591C272.86 43.6043 276.278 45.8732 277.441 49.7923C278.516 53.4161 277.571 57.5132 276.083 60.8645C274.545 64.6386 270.603 70.2522 266.706 71.39L266.418 71.5032C266.042 71.613 265.684 71.6882 265.292 71.7444C265.131 71.7914 265.104 71.7993 265.098 71.976C265.07 72.2759 265.042 72.5757 264.953 72.8643C264.852 73.2145 264.65 73.4194 264.408 73.49C264.247 73.5371 264.078 73.5573 263.885 73.497C263.267 73.3855 262.914 73.0803 262.731 72.463L262.675 72.2751C262.611 72.0603 262.582 71.8646 262.546 71.642L262.522 71.5614C262.506 71.5078 262.455 71.4351 262.358 71.4049C261.554 71.0564 260.952 70.503 260.452 69.803C260.049 69.1332 259.707 68.4745 259.484 67.7229L259.447 67.5003C258.935 65.0832 259.217 63.2797 260.328 61.1178C260.396 60.9522 260.46 60.875 260.568 60.8436C260.649 60.82 260.764 60.8155 260.896 60.8646C261.054 60.9059 261.22 60.9741 261.341 61.0848C261.383 61.1306 261.426 61.1764 261.442 61.2301C261.458 61.2838 261.42 61.3532 261.39 61.4494C260.479 63.4949 260.005 65.4416 260.674 67.6965C260.746 67.938 260.825 68.2065 260.932 68.4671C261.134 69.0498 261.436 69.5742 261.818 70.0752C261.997 70.2854 262.168 70.4687 262.412 70.6017ZM283.582 57.7708C285.088 57.3314 286.822 55.1042 287.521 53.8207C287.589 53.6551 287.654 53.5779 287.761 53.5465C287.815 53.5308 287.904 53.5341 288.027 53.5564C288.177 53.5708 288.247 53.6088 288.263 53.6625C288.287 53.743 288.276 53.8046 288.219 53.9086C287.55 55.5915 285.524 57.8166 283.83 58.311C282.513 58.6955 280.927 58.3709 280.252 57.0804C280.194 56.9808 280.162 56.8735 280.13 56.7661C280.082 56.605 280.053 56.4093 280.024 56.2135C279.916 54.1743 281.001 51.7282 283.097 51.1162C283.616 50.9939 284.129 51.0484 284.635 51.2797C284.914 51.4317 285.128 51.6609 285.216 51.9561C285.662 53.4594 283.586 55.8154 282.242 56.2077C281.974 56.2862 281.697 56.3378 281.404 56.3358C281.342 56.3246 281.289 56.3403 281.262 56.3481C281.181 56.3717 281.197 56.4254 281.229 56.5327L281.317 56.828C281.564 57.6602 282.188 58.0905 283.072 57.9199L283.582 57.7708ZM281.634 55.8311C281.769 55.7919 281.903 55.7526 282.029 55.6866C283.162 54.9766 284.402 53.4478 284.211 52.016L284.187 51.9355C284.116 51.6939 284 51.6985 283.812 51.7534C282.339 52.3002 281.406 54.1767 281.224 55.63C281.213 55.6915 281.194 55.7262 281.202 55.7531L281.226 55.8336C281.242 55.8873 281.277 55.9063 281.365 55.9096L281.634 55.8311ZM287.279 53.658C287.08 52.9869 286.951 52.3538 286.856 51.7397C286.78 51.3829 286.703 51.0261 286.618 50.6425C286.608 50.412 286.665 50.308 286.88 50.2452C287.176 50.1589 287.476 50.1878 287.755 50.3397C287.833 50.4046 287.918 50.4963 287.942 50.5768L287.966 50.6573C288.049 51.6249 288.309 52.5991 288.587 53.5386L288.874 54.505C289.005 54.8461 289.135 55.1872 289.311 55.4858C289.335 55.5663 289.359 55.6468 289.448 55.6501C289.528 55.6266 289.539 55.5651 289.577 55.4957L289.823 55.0447C290.026 54.5479 291.104 51.783 290.992 51.4072C290.977 51.3536 290.961 51.2999 290.918 51.254C290.699 50.9096 290.534 50.5495 290.422 50.1737C290.199 49.4221 290.207 48.6614 290.526 47.8681C290.616 47.5794 290.867 47.2437 291.163 47.1573C291.324 47.1103 291.466 47.0979 291.632 47.166C291.949 47.2486 292.209 47.4353 292.304 47.7574L292.32 47.8111C292.402 48.2831 292.387 48.725 292.31 49.1557C292.244 49.8169 292.107 50.44 291.979 51.0901C291.949 51.1863 291.946 51.2747 291.97 51.3552C291.994 51.4357 292.045 51.5084 292.149 51.5654C292.53 51.8627 292.951 52.0023 293.493 51.9606L293.582 51.9639C293.609 51.9561 293.636 51.9482 293.636 51.9482C293.77 51.909 293.888 51.8161 293.999 51.6963C294.064 51.6191 294.136 51.5687 294.217 51.5451C294.405 51.4902 294.861 51.6488 294.917 51.8367L294.925 51.8635C294.954 52.0593 294.808 52.16 294.663 52.2608C294.526 52.3884 294.372 52.4623 294.211 52.5094C293.593 52.6899 292.898 52.5136 292.337 52.298C292.179 52.2567 292.04 52.1807 291.9 52.1047C291.831 52.0668 291.796 52.0478 291.769 52.0556C291.742 52.0634 291.723 52.0981 291.72 52.1865L291.419 53.2371C291.252 53.9565 291.025 54.6648 290.823 55.3652C290.685 55.7848 290.487 56.3968 290.003 56.538C289.923 56.5616 289.807 56.5661 289.692 56.5707C288.282 56.5447 287.67 54.9733 287.335 53.8459L287.279 53.658ZM291.357 50.0758C291.549 49.6405 291.668 48.4681 291.56 48.0039C291.27 48.701 291.203 49.3622 291.357 50.0758ZM297.756 53.6329C299.262 53.1934 300.996 50.9663 301.695 49.6827C301.763 49.5171 301.828 49.4399 301.935 49.4085C301.989 49.3928 302.078 49.3961 302.201 49.4184C302.351 49.4329 302.421 49.4709 302.437 49.5246C302.461 49.6051 302.45 49.6666 302.393 49.7707C301.724 51.4536 299.698 53.6787 298.004 54.173C296.687 54.5575 295.101 54.2329 294.426 52.9424C294.368 52.8429 294.336 52.7355 294.304 52.6281C294.256 52.4671 294.227 52.2713 294.198 52.0756C294.09 50.0363 295.175 47.5903 297.271 46.9782C297.79 46.856 298.303 46.9105 298.809 47.1417C299.088 47.2937 299.302 47.5229 299.39 47.8182C299.836 49.3214 297.76 51.6774 296.416 52.0698C296.148 52.1482 295.871 52.1999 295.578 52.1978C295.516 52.1867 295.463 52.2023 295.436 52.2102C295.355 52.2337 295.371 52.2874 295.403 52.3948L295.491 52.6901C295.738 53.5222 296.362 53.9525 297.246 53.7819L297.756 53.6329ZM295.808 51.6931C295.942 51.6539 296.077 51.6147 296.203 51.5486C297.336 50.8387 298.576 49.3099 298.385 47.8781L298.361 47.7976C298.29 47.556 298.174 47.5605 297.986 47.6154C296.513 48.1622 295.58 50.0388 295.398 51.492C295.387 51.5536 295.368 51.5883 295.376 51.6151L295.4 51.6956C295.416 51.7493 295.451 51.7683 295.539 51.7716L295.808 51.6931ZM301.724 50.4327C300.88 47.5873 301.207 43.6707 302.108 40.8992C302.667 39.0441 304.099 35.7969 306.195 35.1849C307.163 34.9024 308.337 35.3178 308.64 36.3379C308.664 36.4184 308.688 36.4989 308.693 36.6142C308.931 38.499 307.883 41.1676 307.083 42.8013C306.241 44.5928 304.296 48.0775 302.827 49.0315C302.736 49.1165 302.725 49.1781 302.738 49.3201C302.811 49.7653 302.92 50.2295 303.055 50.6858L303.143 50.9811C303.393 51.7249 304.273 53.5097 305.294 53.2116C305.348 53.1959 305.394 53.1533 305.474 53.1298C306.018 52.7961 306.38 52.0486 306.621 51.4824C306.689 51.3168 306.78 51.2317 306.888 51.2004C306.942 51.1847 307.03 51.188 307.146 51.1834C307.296 51.1979 307.632 51.2458 307.687 51.4337C307.695 51.4605 307.684 51.5221 307.646 51.5914C307.343 52.4384 306.845 53.5171 305.904 53.7918C305.636 53.8702 305.316 53.876 305.015 53.8471C303.134 53.6089 302.218 52.097 301.724 50.4327ZM302.652 48.4409C302.759 48.4095 302.797 48.3402 302.862 48.2629L303.25 47.7996C305.265 45.1404 307.787 40.0579 307.725 36.8966C307.696 36.7009 307.66 36.4783 307.596 36.2635L307.532 36.0488C307.468 35.8341 307.399 35.7961 307.184 35.8588L306.996 35.9138C306.377 36.0942 305.68 36.7938 305.299 37.284C303.136 40.1323 302.354 44.386 302.565 47.8537C302.586 48.0226 302.588 48.2262 302.652 48.4409ZM312.636 47.4221C312.502 47.4614 312.464 47.5307 312.407 47.6348C312.046 48.8779 311.125 50.4009 309.835 50.7776C308.76 51.0914 307.518 50.5496 307.192 49.4491C306.985 48.7511 306.934 47.1034 307.368 46.5975C307.47 46.4509 307.597 46.3848 307.758 46.3377C308.08 46.2436 308.459 46.3373 308.689 46.6202L308.732 46.666C308.763 46.7734 308.707 46.8775 308.677 46.9737L308.45 47.39C308.393 47.494 308.344 47.6249 308.322 47.748C308.275 48.3745 308.246 48.9663 308.429 49.5837C308.477 49.7447 308.578 49.8901 308.68 50.0355C308.763 50.2155 308.913 50.23 309.074 50.1829L309.343 50.1044C310.244 49.6956 310.981 48.6346 311.357 47.7372C311.368 47.6757 311.387 47.641 311.379 47.6142C311.371 47.5873 311.336 47.5683 311.247 47.565C310.084 47.5836 308.731 46.958 308.372 45.75C308.292 45.4816 308.267 45.1975 308.329 44.9167C308.423 44.2477 308.83 43.7496 309.4 43.4081C309.527 43.342 309.653 43.2759 309.788 43.2367C310.943 42.8993 312.149 43.7141 312.476 44.8146C312.651 45.4052 312.649 45.9891 312.62 46.5809C312.609 46.6424 312.598 46.704 312.606 46.7308C312.622 46.7845 312.676 46.7688 312.783 46.7374L312.998 46.6746C313.348 46.5726 313.681 46.4169 313.988 46.2691C314.286 46.0944 314.55 45.9007 314.798 45.6533C314.844 45.6108 314.89 45.5683 314.97 45.5447C315.158 45.4898 315.413 45.5612 315.523 45.7334L315.539 45.7871C315.563 45.8677 315.544 45.9024 315.498 45.9449C315.395 46.0915 315.258 46.2191 315.14 46.312C314.701 46.7027 314.168 46.9749 313.657 47.1239L312.636 47.4221ZM311.638 44.6507C311.543 44.3286 311.409 44.0758 311.246 43.9193C311.091 43.7896 310.943 43.6868 310.728 43.7496L310.567 43.7967C310.513 43.8124 310.486 43.8202 310.441 43.8627C309.973 44.0577 309.633 44.3901 309.5 44.9249C309.456 45.171 309.474 45.4283 309.546 45.6699C309.602 45.8578 309.684 46.0379 309.794 46.2101C310.184 46.7379 310.715 47.0496 311.407 47.0224L311.461 47.0067C311.569 46.9753 311.607 46.9059 311.636 46.8097L311.702 46.4405C311.793 45.8599 311.787 45.2491 311.638 44.6507ZM316.105 47.6929C316.467 46.1579 316.864 44.6418 317.516 43.1972C317.754 42.7194 317.992 42.2416 318.299 41.8018C318.512 41.5354 318.726 41.2691 319.032 41.1212C319.132 41.063 319.204 41.0126 319.285 40.9891C319.366 40.9655 319.481 40.961 319.57 40.9643C320.405 40.9246 321.134 41.4119 321.391 42.1825C321.535 42.6657 321.571 43.1803 321.572 43.6758C321.577 43.791 321.574 43.8794 321.59 43.9331C321.614 44.0136 321.694 43.9901 321.909 43.9273C322.447 43.7704 323.683 43.4094 323.889 42.8243C323.927 42.7549 324 42.7045 324.08 42.681L324.161 42.6574C324.303 42.645 324.666 42.6851 324.714 42.8461C324.729 42.8998 324.718 42.9614 324.708 43.0229C324.486 43.5544 323.972 43.7918 323.485 44.0215C323.197 44.1346 322.91 44.2478 322.614 44.3341C322.318 44.4204 322.015 44.4799 321.711 44.5394C321.577 44.5786 321.504 44.629 321.463 44.7867C321.174 46.2714 320.569 48.169 319.057 48.7852C318.985 48.8355 318.904 48.8591 318.85 48.8748C318.152 49.0788 317.298 48.8612 316.884 48.2529C316.777 48.2842 316.793 48.3379 316.782 48.3995C316.161 51.0309 316.006 53.7594 316.014 56.4409C316.028 57.0785 316.13 57.7194 316.171 58.3492C316.189 58.6065 316.207 58.8638 316.171 59.1368C316.143 59.4366 316.06 59.5485 315.844 59.6113L315.737 59.6426C315.361 59.7525 315.044 59.6699 314.898 59.2751C314.73 58.7114 314.687 58.17 314.635 57.6018C314.29 53.0937 314.523 48.563 315.126 44.0992C315.198 43.5532 315.323 42.9916 315.475 42.4221C315.486 42.3606 315.497 42.299 315.535 42.2297C315.614 42.0025 315.797 41.8324 316.039 41.7618C316.254 41.699 316.501 41.7436 316.726 41.9113C316.76 41.9302 316.803 41.9761 316.819 42.0298C316.827 42.0566 316.816 42.1182 316.805 42.1797C316.496 43.2034 316.387 44.3143 316.29 45.3637C316.212 46.0864 316.1 46.7901 316.076 47.4971C316.057 47.5318 316.073 47.5855 316.089 47.6392L316.105 47.6929ZM317.921 44.8582C318.174 44.7261 318.408 44.6286 318.65 44.558L318.838 44.503C319.088 44.4593 319.365 44.4076 319.615 44.3639C319.803 44.3089 319.972 44.2887 320.168 44.2606C320.464 44.1743 320.348 42.6038 320.295 42.3275C320.232 42.1127 320.168 41.898 320.024 41.7068C319.938 41.6151 319.93 41.5883 319.823 41.6197L319.742 41.6432C319.309 41.8571 318.942 42.4894 318.734 42.871C318.377 43.4417 318.098 44.0773 317.847 44.705C317.836 44.7665 317.798 44.8359 317.814 44.8896L317.921 44.8582ZM319.148 45.0544C318.691 45.1878 318.293 45.4207 317.996 45.799C317.535 46.3127 317.388 46.9974 317.587 47.6685C317.667 47.9369 317.752 48.0286 317.931 48.2388C318.033 48.3842 318.122 48.3875 318.229 48.3561L318.337 48.3247C318.436 48.2665 318.509 48.2161 318.582 48.1657C319.303 47.5466 319.777 46.3874 320.038 45.4946C320.071 45.31 320.13 45.1175 320.171 44.9598C320.19 44.9251 320.182 44.8982 320.174 44.8714C320.158 44.8177 320.131 44.8256 320.043 44.8223C319.874 44.8425 319.685 44.8974 319.524 44.9445L319.148 45.0544ZM327.259 45.0198C328.764 44.5804 330.498 42.3532 331.198 41.0697C331.266 40.9041 331.331 40.8268 331.438 40.7954C331.492 40.7798 331.58 40.7831 331.704 40.8054C331.854 40.8198 331.924 40.8578 331.94 40.9115C331.964 40.992 331.953 41.0535 331.896 41.1576C331.227 42.8405 329.2 45.0656 327.507 45.56C326.19 45.9444 324.604 45.6199 323.929 44.3293C323.871 44.2298 323.839 44.1224 323.807 44.0151C323.759 43.854 323.73 43.6583 323.701 43.4625C323.593 41.4233 324.678 38.9772 326.774 38.3652C327.293 38.2429 327.805 38.2974 328.312 38.5287C328.591 38.6806 328.805 38.9098 328.893 39.2051C329.339 40.7083 327.263 43.0644 325.919 43.4567C325.65 43.5352 325.374 43.5868 325.081 43.5847C325.019 43.5736 324.966 43.5893 324.939 43.5971C324.858 43.6207 324.874 43.6744 324.906 43.7817L324.993 44.077C325.24 44.9091 325.865 45.3394 326.749 45.1689L327.259 45.0198ZM325.311 43.0801C325.445 43.0408 325.58 43.0016 325.706 42.9355C326.839 42.2256 328.079 40.6968 327.888 39.265L327.864 39.1845C327.792 38.9429 327.677 38.9474 327.489 39.0024C326.016 39.5492 325.083 41.4257 324.901 42.879C324.89 42.9405 324.871 42.9752 324.879 43.002L324.903 43.0826C324.919 43.1362 324.954 43.1552 325.042 43.1585L325.311 43.0801ZM332.484 42.4151C332.563 42.188 332.607 41.9419 332.677 41.6879C333.014 39.8687 333.578 37.3413 334.684 35.8517C334.795 35.732 334.913 35.639 335.047 35.5998C335.424 35.49 335.954 35.8017 336.157 36.0925C336.302 36.2837 336.419 36.4827 336.59 36.6661C336.7 36.8383 336.778 36.9031 336.885 36.8717C336.966 36.8482 337.214 36.6008 337.217 36.5125C337.273 36.4084 337.346 36.358 337.4 36.3423C337.48 36.3188 337.569 36.3221 337.639 36.3601C337.92 36.4237 338.06 36.4996 338.092 36.607C338.124 36.7144 338.075 36.8453 337.98 37.0188C337.84 37.2347 337.649 37.378 337.407 37.4487C337.299 37.48 337.192 37.5114 337.068 37.4891C336.344 37.409 335.851 37.0279 335.544 36.3882C335.493 36.3155 335.459 36.2965 335.432 36.3043C335.405 36.3122 335.386 36.3469 335.34 36.3894C335.23 36.5092 335.127 36.6558 335.025 36.8024C334.153 38.1945 333.643 40.4143 333.447 42.0174C333.421 42.5208 333.342 43.0399 333.219 43.5132L333.186 43.6978C333.167 43.7325 333.175 43.7593 333.156 43.794C333.078 44.0212 332.94 44.1488 332.725 44.2116C332.672 44.2272 332.61 44.2161 332.529 44.2396C331.925 44.2702 331.553 43.9997 331.385 43.436L331.346 43.3018C331.258 43.0065 331.216 42.6687 331.217 42.3767C331.099 40.8946 331.192 39.438 331.517 37.9724C331.544 37.6726 331.694 37.1914 332.043 37.0894C332.312 37.011 332.671 37.1394 332.869 37.3149C332.904 37.3339 332.92 37.3876 332.936 37.4413C332.952 37.495 332.96 37.5218 332.922 37.5912C332.43 38.4931 332.368 41.1366 332.474 42.1847C332.463 42.2462 332.46 42.3346 332.484 42.4151Z" fill="#238CFF"/>
<path d="M218.413 37.7503C218.467 37.7346 218.521 37.7189 218.548 37.7111L218.835 37.5979C219.883 37.2919 220.961 37.1816 222.027 37.1329C223.41 37.1667 225.294 37.3166 225.764 38.9003L225.804 39.0346C225.841 39.2571 225.843 39.4607 225.799 39.7069C225.782 39.9452 225.734 40.5716 225.439 40.658C225.385 40.6736 225.331 40.6893 225.269 40.6782C224.953 40.5956 224.666 40.4168 224.49 40.1182L224.474 40.0645C224.45 39.984 224.445 39.8688 224.475 39.7726C224.583 39.4492 224.666 38.8417 224.562 38.4927C224.435 38.0633 222.977 38.1682 222.63 38.1818C222.106 38.1888 221.58 38.2842 221.045 38.3528C220.841 38.354 220.653 38.409 220.457 38.437C219.992 38.5436 219.554 38.6423 219.124 38.7678C218.828 38.8542 218.56 38.9326 218.299 39.0379C217.5 39.3002 216.71 39.5893 215.935 39.9321C215.521 40.1113 215.088 40.3252 214.666 40.4776C213.938 40.7778 213.294 41.1698 212.601 41.489L212.03 41.8305C211.976 41.8462 211.958 41.8809 211.966 41.9078C211.973 41.9346 211.981 41.9614 212.016 41.9804C212.121 42.0374 212.18 42.137 212.203 42.2175C212.235 42.3249 212.213 42.4479 212.173 42.6057C212.132 42.7634 212.064 42.929 212.023 43.0868L211.717 44.0222C211.676 44.1799 211.635 44.3377 211.567 44.5033C211.489 44.7304 211.375 44.9386 211.219 45.1009C211.2 45.1356 211.162 45.2049 211.135 45.2128L211.055 45.2363C210.92 45.2756 210.925 45.3908 210.904 45.5138C210.569 46.7491 210.323 47.9876 210.147 49.2641C210.1 49.5986 209.581 53.1629 209.597 53.2166C209.621 53.2972 209.656 53.3161 209.736 53.2926C209.736 53.2926 209.736 53.2926 209.79 53.2769L209.863 53.2265C210.836 52.7673 211.764 52.3506 212.758 52.0603L213.054 51.974C213.385 51.9066 213.715 51.8393 214.043 51.8604C214.77 51.8521 215.328 52.156 215.688 52.78C215.739 52.8527 215.763 52.9333 215.795 53.0406C215.827 53.148 215.858 53.2554 215.837 53.3784C215.834 53.4668 215.796 53.5362 215.715 53.5597C215.688 53.5676 215.661 53.5754 215.6 53.5643C215.299 53.5354 214.988 53.276 214.893 52.9539L214.845 52.7929C214.821 52.7123 214.786 52.6933 214.644 52.7057C214.44 52.707 214.271 52.7272 214.082 52.7821L213.572 52.9312C212.201 53.3314 210.894 53.9463 209.665 54.6261C209.511 54.7 209.428 54.8119 209.43 55.0155C209.326 56.2416 208.782 63.1676 208.973 63.8119C209.265 64.8934 209.607 66.8352 209.445 67.9618C209.401 68.2079 209.326 68.3467 209.138 68.4016C209.084 68.4173 208.995 68.414 208.907 68.4107C208.764 68.4231 208.606 68.3818 208.475 68.3327C208.185 68.2422 208.033 68.0242 207.926 67.7636L207.878 67.6025C207.767 67.2267 207.717 66.8621 207.686 66.4627C207.559 65.2457 207.539 63.9973 207.554 62.7679C207.552 62.5643 207.542 62.3338 207.566 62.1224C207.588 61.9993 207.556 61.892 207.517 61.7577C207.485 61.6504 207.453 61.543 207.394 61.4435C206.92 60.2401 206.201 59.1957 205.356 58.2174L205.014 57.8506C205.006 57.8238 204.979 57.8316 204.952 57.8395C204.656 57.9258 203.182 59.5521 202.958 59.88C202.81 60.0692 202.688 60.2504 202.575 60.4586C202.529 60.5011 202.51 60.5358 202.526 60.5895L202.534 60.6163C202.55 60.67 202.631 60.6465 202.692 60.6576C202.915 60.6217 203.082 60.6898 203.264 60.8117C203.307 60.8575 203.323 60.9112 203.339 60.9649L203.354 61.0186C203.325 61.1148 203.244 61.1383 203.163 61.1619C202.683 61.2147 202.25 61.1367 201.87 60.8394C201.785 60.7477 201.699 60.656 201.667 60.5486C201.635 60.4413 201.657 60.3182 201.679 60.1951C201.758 59.968 201.863 59.733 202.011 59.5439C202.581 58.7068 203.217 57.996 203.942 57.2886C203.979 57.2192 204.025 57.1767 204.098 57.1263C204.144 57.0838 204.155 57.0222 204.139 56.9685C204.131 56.9417 204.123 56.9149 204.088 56.8959C203.311 56.2475 202.554 55.5645 201.869 54.831C201.492 54.4453 201.168 54.0439 200.928 53.5306C200.869 53.4311 200.829 53.2968 200.798 53.1895C200.702 52.8674 200.695 52.5485 200.707 52.195C200.947 50.3457 202.288 48.4667 203.487 47.0956C205.309 45.1637 207.294 43.3883 209.567 41.9953C209.713 41.8946 209.866 41.8206 210.011 41.7199L210.934 41.188C211.704 40.73 212.473 40.272 213.285 39.8598C213.385 39.8016 213.492 39.7702 213.592 39.712L214.205 39.4163C214.305 39.358 214.412 39.3267 214.512 39.2684C215.639 38.7353 216.854 38.2054 218.064 37.8523L218.413 37.7503ZM210.246 42.9055C209.548 43.1095 206.941 45.1538 206.292 45.7224C205.972 46.0202 205.643 46.2911 205.35 46.581C203.793 48.0273 200.968 51.3022 201.589 53.3959C201.629 53.5302 201.696 53.6565 201.762 53.7829L202.067 54.219C202.765 55.0945 203.619 55.8077 204.427 56.5634C204.505 56.6282 204.54 56.6472 204.594 56.6316C204.62 56.6237 204.674 56.608 204.72 56.5655L205.706 55.7527C206.397 55.2299 207.124 54.7261 207.875 54.3028C208.028 54.2288 208.085 54.1248 208.099 53.9749C208.215 52.8908 208.339 51.8336 208.491 50.7685C208.524 50.5839 208.537 50.434 208.57 50.2494L208.737 49.2381C209.007 47.2925 209.455 45.0617 210.208 43.2669C210.256 43.136 210.34 43.024 210.354 42.8741L210.246 42.9055ZM207.9 55.6664C207.152 56.0013 206.148 56.8488 205.536 57.348C205.445 57.4331 205.418 57.441 205.434 57.4947C205.442 57.5215 205.485 57.5673 205.535 57.64L205.57 57.659C206.306 58.4651 206.988 59.2869 207.525 60.2095C207.559 60.2285 207.567 60.2553 207.621 60.2397C207.699 58.7294 207.803 57.2113 207.934 55.6854L207.9 55.6664ZM223.527 53.0293C223.473 53.045 223.435 53.1144 223.416 53.1491L223.246 53.4613C223.235 53.5228 223.216 53.5575 223.178 53.6269C222.824 54.4012 222.197 55.6344 221.353 55.9391C220.412 56.2138 219.635 55.8574 219.348 54.891L219.327 54.7221C219.327 54.7221 219.319 54.6953 219.311 54.6685C219.077 53.1908 219.495 51.0562 219.889 49.6285L219.998 49.3052C220.03 49.1206 220.157 49.0545 220.318 49.0074L220.452 48.9682C220.718 48.9781 220.938 49.0305 221.155 49.1714C221.26 49.2283 221.303 49.2742 221.327 49.3547C221.342 49.4084 221.339 49.4968 221.31 49.593C220.915 51.3126 220.441 53.2594 220.762 55.0323L220.786 55.1128C220.826 55.247 220.869 55.2928 220.923 55.2772C220.95 55.2693 220.995 55.2268 221.041 55.1842C221.27 54.9716 221.437 54.7477 221.631 54.516C222.284 53.567 223.536 51.1891 223.805 50.0311C223.855 49.6082 224.129 48.0699 224.613 47.9287C224.72 47.8973 224.862 47.8849 225.056 47.9452C225.206 47.9596 225.415 48.0736 225.455 48.2078C225.471 48.2615 225.487 48.3152 225.457 48.4114C225.443 48.5613 225.402 48.7191 225.361 48.8769C225.062 50.1311 224.639 52.1505 224.871 53.4245C224.892 53.5934 224.905 53.7355 224.952 53.8965L225.027 54.0498C225.027 54.0498 225.035 54.0766 225.043 54.1034C225.083 54.2377 225.126 54.2835 225.179 54.2678C225.233 54.2521 225.279 54.2096 225.325 54.167C226.032 53.6979 226.968 51.733 227.25 51.009C227.291 50.8513 227.393 50.7046 227.554 50.6576C227.635 50.634 227.928 50.6361 227.96 50.7435C227.976 50.7971 227.938 50.8665 227.927 50.9281C227.617 51.9518 227.141 52.9074 226.596 53.8251C226.35 54.276 225.946 54.6857 225.435 54.8348C224.548 55.0938 223.932 54.6903 223.669 53.8045C223.605 53.5897 223.569 53.3671 223.532 53.1445L223.535 53.0562L223.527 53.0293ZM236.34 50.1637C236.302 50.233 236.238 50.3103 236.208 50.4065L235.9 50.8463C235.843 50.9504 235.806 51.0198 235.741 51.097C234.834 52.4701 233.461 54.2418 231.838 54.7741L231.757 54.7977C229.392 55.4882 228.038 54.075 227.424 52.0081C226.929 50.1402 226.975 48.2306 227.207 46.3545C227.607 43.175 229.412 37.5437 232.298 36.147C232.324 36.1392 232.351 36.1313 232.378 36.1235L232.505 36.0574C233.526 35.7592 234.516 36.1412 234.834 37.2149C234.935 37.6523 234.893 38.102 234.843 38.5249C234.301 41.7167 230.998 48.8938 228.5 50.1192C228.346 50.1931 228.351 50.3083 228.391 50.4425C228.459 51.0644 228.572 51.6438 228.747 52.2344C228.891 52.7176 229.053 53.1661 229.35 53.5753C229.486 53.7397 229.615 53.8772 229.77 54.0069C230.139 54.3657 230.555 54.3901 231.012 54.2567L231.147 54.2175C232.927 53.5228 234.411 51.3394 235.377 49.7738L235.753 49.1684C235.92 48.9446 236.052 48.7017 236.026 48.4176C235.761 46.5407 235.77 44.7005 235.948 42.84C236.161 40.9986 237.281 35.4214 239.404 34.8015C240.049 34.6131 240.704 34.9472 240.903 35.6183L240.927 35.6988C241.046 36.1015 241.031 36.5434 241.008 36.9584C240.731 40.4522 238.885 45.4537 237.278 48.4023C237.202 48.5411 237.215 48.6831 237.228 48.8252C237.326 49.3509 237.45 49.8688 237.601 50.3788L237.705 50.7278C237.899 51.2836 238.085 51.8126 238.352 52.3181L238.504 52.5362C238.563 52.6357 238.571 52.6625 238.598 52.6547C238.625 52.6468 238.671 52.6043 238.716 52.5618C238.762 52.5192 238.843 52.4957 238.923 52.4722C239.139 52.4094 239.466 52.4304 239.637 52.6138L239.672 52.6328C239.696 52.7133 239.677 52.748 239.666 52.8095C239.558 53.1329 239.356 53.3377 239.06 53.4241C237.528 53.8713 236.736 51.3022 236.426 50.2553C236.418 50.2285 236.41 50.2017 236.34 50.1637ZM233.777 36.9985C233.726 36.9259 233.694 36.8185 233.652 36.7726C233.577 36.6194 233.507 36.5814 233.4 36.6128L233.292 36.6442C233.085 36.7338 232.913 36.8425 232.749 36.9779C229.68 39.3323 228.176 45.7801 228.322 49.325C228.303 49.3597 228.311 49.3865 228.319 49.4134C228.327 49.4402 228.335 49.4671 228.362 49.4592C228.397 49.4782 228.397 49.4782 228.424 49.4704C228.451 49.4625 228.47 49.4278 228.489 49.3931C228.653 49.2577 228.782 49.1032 228.912 48.9488C231.109 46.4115 233.364 41.611 233.853 38.4349C233.894 37.9851 233.909 37.5433 233.801 37.0791L233.777 36.9985ZM237.034 46.6943L237.204 46.3821C238.362 43.8856 240.758 37.7897 240.073 35.4812C240.007 35.3548 239.964 35.309 239.883 35.3325C239.856 35.3404 239.829 35.3482 239.784 35.3908C239.638 35.4915 239.501 35.6192 239.39 35.7389C237.285 38.1912 236.719 43.6651 236.999 46.6753L237.034 46.6943ZM246.637 44.9117C247.12 44.7704 247.409 45.1529 247.529 45.5555L247.545 45.6092C247.6 45.7971 247.509 45.8822 247.363 45.9829C247.21 46.0569 247.076 46.0961 246.941 46.1353L246.753 46.1902C246.691 46.1791 246.638 46.1948 246.584 46.2105C246.423 46.2576 246.288 46.2968 246.127 46.3439L245.178 46.5917C245.044 46.6309 244.883 46.678 244.721 46.7251L244.264 46.8585C243.431 47.1017 242.579 47.3797 241.754 47.6497L241.485 47.7282C241.324 47.7753 241.192 47.7262 241.072 47.6155C240.925 47.5127 240.85 47.3594 240.775 47.2062C240.712 46.9915 240.768 46.8874 240.975 46.7978C241.228 46.6656 241.524 46.5793 241.812 46.4662C241.919 46.4348 242.027 46.4034 242.099 46.353L242.717 46.1725C242.817 46.1143 242.898 46.0908 243.005 46.0594C243.785 45.8318 244.54 45.5237 245.266 45.3119L246.637 44.9117ZM248.623 54.7743C247.198 55.1902 245.301 54.8982 244.696 53.3537L244.632 53.1389C243.987 50.9647 246.572 47.964 248.096 46.7023C248.234 46.5747 248.28 46.5322 248.264 46.4785C248.248 46.4248 248.213 46.4058 248.189 46.3253C248.024 45.9652 247.858 45.6051 247.747 45.2293C247.285 43.6724 247.431 40.917 249.286 40.3756C249.393 40.3442 249.474 40.3206 249.589 40.3161C249.928 40.2756 250.199 40.4008 250.413 40.6299C250.49 40.6948 250.506 40.7485 250.522 40.8022C250.546 40.8827 250.543 40.9711 250.452 41.0561L250.257 41.2878C250.177 41.3114 250.123 41.327 250.042 41.3506L249.973 41.3126C249.946 41.3204 249.911 41.3014 249.884 41.3093C249.83 41.325 249.819 41.3865 249.747 41.4369C248.763 42.4532 248.608 43.8986 248.998 45.214L249.102 45.5629C249.169 45.6893 249.184 45.743 249.238 45.7273C249.265 45.7194 249.311 45.6769 249.357 45.6344C250.679 44.5775 251.936 43.598 253.469 42.8587L253.515 42.8162C253.676 42.7691 253.781 42.8261 253.866 42.9178C253.901 42.9368 253.944 42.9826 253.952 43.0095C253.968 43.0631 253.93 43.1325 253.857 43.1829L253.612 43.3419C252.448 43.9444 251.4 44.746 250.388 45.5666L249.594 46.2361C249.494 46.2943 249.475 46.329 249.499 46.4095L249.531 46.5169C249.72 46.9575 249.955 47.3556 250.163 47.7616C250.606 48.5656 251.057 49.3965 251.312 50.2555C251.949 52.4029 250.746 54.1544 248.623 54.7743ZM247.639 54.2155C247.881 54.1449 248.115 54.0474 248.349 53.95C249.85 53.1034 250.41 51.7439 249.978 50.0907C249.691 49.1244 249.235 48.1783 248.742 47.3015C248.675 47.1752 248.659 47.1215 248.578 47.145C248.551 47.1529 248.506 47.1954 248.46 47.2379L248.029 47.6555C246.755 48.8733 245.274 51.4639 245.682 53.3285L245.737 53.5164C246.024 54.4827 246.859 54.4431 247.639 54.2155ZM254.186 36.1157C254.352 35.3963 254.491 34.6847 254.784 33.8993C254.863 33.6721 255.06 33.3521 255.249 33.0052L255.276 32.9973C255.397 32.816 255.508 32.6963 255.607 32.638C255.914 32.4902 256.153 32.5079 256.413 32.6946C256.429 32.7483 256.429 32.7483 256.471 32.7941L256.46 32.8557C256.465 32.9709 256.47 33.0861 256.406 33.1633C256.258 33.848 256.012 34.591 255.792 35.3261C255.732 35.5185 255.621 35.6383 255.688 35.7646C255.696 35.7915 255.639 35.8956 255.612 35.9034C255.559 35.9191 255.505 35.9348 255.47 35.9158C255.381 35.9125 255.347 35.8935 255.32 35.9013C255.293 35.9092 255.236 36.0133 255.225 36.0748C255.141 36.4787 255.034 37.0056 254.943 37.5863C255.87 37.4615 256.754 37.291 257.287 37.0188C257.623 36.7748 258.006 36.4881 257.986 36.0273C257.978 36.0004 257.962 35.9467 257.973 35.8852C257.976 35.7968 258.04 35.7196 258.121 35.6961C258.148 35.6882 258.202 35.6725 258.237 35.6915C258.51 35.7283 258.77 35.9149 258.93 36.1598C258.965 36.1788 258.981 36.2325 258.989 36.2593C259.013 36.3399 258.983 36.4361 258.988 36.5513C258.771 37.198 258.085 37.5441 257.491 37.8051C257.203 37.9183 256.9 37.9777 256.631 38.0562L256.443 38.1111C256.255 38.1661 255.443 38.2863 254.847 38.3437C254.522 40.8888 254.357 44.1744 254.75 45.6933C254.906 46.3186 255.224 46.8967 255.449 47.0644C255.526 47.1292 255.561 47.1482 255.642 47.1247C255.669 47.1168 255.696 47.109 255.741 47.0665C255.94 46.95 256.07 46.7955 256.191 46.6143C256.237 46.5717 256.275 46.5023 256.305 46.4061C256.343 46.3367 256.415 46.2863 256.523 46.255L256.603 46.2314C256.808 46.2302 256.985 46.2368 257.159 46.3318C257.221 46.3429 257.237 46.3966 257.245 46.4234C257.26 46.4771 257.242 46.5118 257.223 46.5465C257.106 46.843 256.947 47.0937 256.664 47.3221C256.519 47.4228 256.347 47.5315 256.185 47.5785C255.648 47.7355 254.819 47.5984 254.433 47.1858C253.997 46.7006 253.742 45.8416 253.64 45.2007C253.361 43.4736 253.521 40.5684 253.797 38.4461C253.297 38.5337 252.687 38.741 252.6 38.9413C252.645 39.1907 252.524 39.372 252.282 39.4426C251.951 39.5099 251.519 39.4319 251.4 39.0292C251.153 38.1971 252.16 38.0488 252.321 38.0018C252.786 37.8952 253.313 37.7998 253.901 37.7155C253.967 37.3463 254.014 37.0118 254.076 36.731C254.12 36.4849 254.18 36.2924 254.186 36.1157ZM261.811 40.8902C261.738 40.9405 261.727 41.0021 261.67 41.1062C261.3 41.8268 260.911 42.5821 260.444 43.2726C260.19 43.6967 259.92 44.0672 259.627 44.3571C259.47 44.5194 259.352 44.6123 259.188 44.7478C259.061 44.8138 258.935 44.8799 258.854 44.9035C258.559 44.9898 258.25 44.934 257.936 44.7631C257.553 44.5541 257.315 44.2444 257.204 43.8686C257.148 43.6807 257.097 43.608 257.122 43.3965C257.078 42.8551 257.177 42.3013 257.345 41.7855C257.76 40.5268 258.408 39.4626 259.359 38.6308C259.679 38.3331 260.05 38.108 260.446 37.9634L260.553 37.9321C260.929 37.8222 261.319 37.8544 261.74 37.994C261.767 37.9861 261.767 37.9861 261.801 38.0051L261.871 38.0431C261.898 38.0353 261.898 38.0353 261.933 38.0543L262.056 38.0766C262.083 38.0687 262.102 38.034 262.113 37.9725C262.201 37.4802 262.133 37.6459 262.268 37.3146C262.328 37.1222 262.412 37.0103 262.519 36.9789C262.6 36.9554 262.758 36.9967 262.932 37.0916C263.002 37.1296 263.045 37.1755 263.08 37.1945C263.2 37.3051 263.278 37.37 263.302 37.4505C263.334 37.5579 263.331 37.6463 263.282 37.7772C263.252 37.8734 263.222 37.9696 263.211 38.0311L263.148 38.312C263.129 38.3467 263.108 38.4697 263.067 38.6275C263.045 38.7505 263.05 38.8658 263.082 38.9731L263.122 39.1073C263.145 39.1879 263.196 39.2606 263.228 39.3679C263.316 39.6632 263.323 39.982 263.206 40.2785C263.203 40.3669 263.154 40.4978 263.106 40.6287C263.076 40.725 263.038 40.7943 262.957 40.8179L262.904 40.8336C262.877 40.8414 262.869 40.8146 262.842 40.8224C262.815 40.8303 262.796 40.865 262.793 40.9533L262.881 42.0362C262.878 42.1245 262.918 42.2587 262.965 42.4198C263.005 42.554 263.029 42.6345 263.072 42.6804C263.181 42.8526 263.313 42.9017 263.482 42.8815L263.643 42.8344C263.751 42.803 263.877 42.737 264.004 42.6709C264.268 42.4772 264.542 42.222 264.809 41.9399C265.399 41.2717 265.912 40.5387 266.25 39.7107L266.397 39.3179C266.427 39.2217 266.472 39.1792 266.526 39.1635C266.553 39.1556 266.588 39.1746 266.676 39.1779C266.835 39.2192 266.912 39.2841 266.944 39.3914C266.968 39.472 266.965 39.5603 266.935 39.6566C266.791 40.2529 266.518 40.7117 266.235 41.2321C265.897 41.7681 265.498 42.293 265.056 42.772C264.743 43.0966 264.415 43.3676 264.066 43.4696C263.716 43.5716 263.346 43.5047 262.989 43.2879C262.52 42.9872 262.205 42.6127 262.054 42.1027L261.998 41.9147C261.91 41.6195 261.857 41.3432 261.85 41.0244L261.811 40.8902ZM261.836 38.8117C261.82 38.758 261.786 38.739 261.732 38.7547C261.697 38.7357 261.643 38.7514 261.589 38.7671C261.186 38.8848 260.861 39.0673 260.567 39.3572C259.762 40.0882 259.147 40.9678 258.722 41.9961C258.473 42.5355 258.32 43.105 258.265 43.7046C258.262 43.793 258.232 43.8892 258.256 43.9697C258.28 44.0503 258.315 44.0693 258.395 44.0457C258.476 44.0222 258.541 43.945 258.613 43.8946C258.977 43.6427 259.235 43.3338 259.486 42.998C259.821 42.5503 260.155 42.1027 260.439 41.5823C260.973 40.7262 261.384 39.8478 261.78 38.9157L261.836 38.8117ZM269.7 41.212C271.286 40.749 272.896 38.7915 273.722 37.4419C273.824 37.2953 273.865 37.1376 273.941 36.9988C273.998 36.8947 274.089 36.8097 274.17 36.7861C274.331 36.739 274.524 36.7993 274.618 36.9179L274.634 36.9715C274.65 37.0252 274.639 37.0868 274.62 37.1215C274.03 38.5772 272.903 39.8979 271.715 40.9155C271.233 41.2603 270.736 41.5515 270.198 41.7084C268.774 42.1243 266.778 41.5986 266.316 40.0417C265.766 38.1895 267.229 35.0497 269.084 34.5082C269.568 34.367 270.088 34.4483 270.552 34.6338C270.595 34.6796 270.665 34.7176 270.745 34.694C270.745 34.694 270.772 34.6862 270.791 34.6515L270.845 34.6358C271.06 34.573 271.443 34.782 271.534 34.9889C271.558 35.0694 271.547 35.131 271.509 35.2003C271.403 35.4353 271.352 35.6546 271.37 35.9119C271.392 36.2844 271.319 36.6267 271.218 36.9769C271.151 37.1426 271.067 37.2545 270.959 37.2859C270.879 37.3094 270.755 37.2871 270.632 37.2648C270.535 37.2347 270.439 37.2045 270.361 37.1397C270.214 37.0368 270.12 36.9183 270.08 36.7841C270.064 36.7304 270.041 36.6499 270.051 36.5884C270.087 36.3154 270.177 36.0267 270.266 35.738C270.296 35.6418 270.353 35.5377 270.375 35.4147C270.386 35.3532 270.397 35.2916 270.381 35.2379C270.349 35.1306 270.253 35.1004 270.091 35.1475L269.93 35.1946C269.769 35.2417 269.615 35.3156 269.489 35.3817C269.099 35.6414 268.794 35.9929 268.49 36.3443C267.775 37.2822 267.055 38.8924 267.414 40.1003C267.669 40.9593 268.142 41.3751 269.093 41.3309C269.316 41.295 269.539 41.2591 269.7 41.212ZM275.889 37.3344C275.715 37.735 275.542 38.1356 275.388 38.5015C275.158 39.0062 275.078 39.5253 274.999 40.0444C274.974 40.2558 274.917 40.3599 274.756 40.407C274.729 40.4148 274.667 40.4037 274.613 40.4194C274.329 40.4441 274.009 40.4499 273.914 40.1278L273.89 40.0473C273.84 39.6826 273.817 39.3101 273.821 38.9298C273.716 34.9351 274.752 23.957 278.451 22.6438L278.559 22.6124C279.177 22.4319 280.019 22.711 280.382 23.2467C280.468 23.3383 280.5 23.4457 280.54 23.5799C280.572 23.6873 280.603 23.7947 280.59 23.9446C280.612 24.3171 280.547 24.6863 280.419 25.0443C280.167 25.964 279.721 26.8234 279.24 27.6638C278.74 28.5389 276.616 31.8134 275.675 32.0881C275.568 32.1194 275.573 32.2347 275.543 32.3309C275.485 32.7269 275.435 33.1498 275.359 33.5805C275.209 34.8492 275.06 36.1178 275.008 37.4166C275.005 37.505 275.002 37.5934 275.033 37.7008C275.052 37.6661 275.071 37.6314 275.063 37.6045L275.158 37.4311C275.177 37.3964 275.169 37.3696 275.188 37.3349C275.752 35.595 277.057 33.2014 278.374 32.0294C278.492 31.9365 278.592 31.8782 278.7 31.8468C278.915 31.7841 279.135 31.8365 279.394 32.0232C279.499 32.0802 279.55 32.1528 279.582 32.2602C279.637 32.4481 279.491 32.8409 279.388 32.9875C278.797 33.9476 278.136 34.8698 277.475 35.792C277.308 36.0158 277.122 36.2743 276.963 36.525C276.803 36.7757 276.775 37.0755 276.855 37.3439L276.887 37.4513C277.022 37.9076 277.392 38.2665 277.764 38.537C278.086 38.7348 278.421 38.7827 278.771 38.6807C278.878 38.6493 279.004 38.5832 279.131 38.5172C279.984 37.9473 280.74 36.0641 281.046 35.1287C281.095 34.9978 281.114 34.9631 281.194 34.9396C281.221 34.9317 281.275 34.916 281.337 34.9272C281.487 34.9416 281.557 34.9796 281.581 35.0601C281.589 35.087 281.578 35.1485 281.575 35.2369C281.479 35.7023 281.287 36.1376 281.095 36.5729C280.746 37.4624 280.161 38.7414 279.167 39.0317C279.059 39.0631 278.925 39.1024 278.809 39.1069C277.676 39.3212 276.564 38.625 276.065 37.633C276.057 37.6062 276.057 37.6062 276.049 37.5793L275.99 37.4798C275.982 37.453 275.982 37.453 275.974 37.4261C275.966 37.3993 275.931 37.3803 275.889 37.3344ZM275.745 31.3385C275.799 31.3228 275.836 31.2534 275.855 31.2187C277.268 29.5813 280.134 25.3611 279.576 23.4821L279.552 23.4015C279.52 23.2942 279.451 23.2562 279.343 23.2876L279.263 23.3111C279.037 23.4354 278.864 23.544 278.681 23.7142C276.939 25.127 276.093 29.1659 275.713 31.2311L275.745 31.3385Z" fill="#238CFF"/>
<rect width="850.755" height="566.316" transform="matrix(1 0 -0.175417 0.984494 156.364 117)" fill="#EEEEEE"/>
<path d="M232.997 218.219C241.888 193.245 270.587 173 297.097 173H1057.56C1084.07 173 1098.35 193.245 1089.46 218.219L927.121 674.182H70.6562L232.997 218.219Z" fill="#FFE06B"/>
<path d="M169.341 613.873C169.469 613.873 169.597 613.873 169.661 613.873L170.387 613.813C172.883 613.813 175.165 614.235 177.339 614.777C180.025 615.682 183.542 617.129 182.276 620.686L182.168 620.987C181.933 621.47 181.654 621.892 181.227 622.374C180.863 622.856 179.9 624.123 179.196 624.123C179.068 624.123 178.94 624.123 178.834 624.062C178.322 623.701 178.004 623.158 178.069 622.434L178.112 622.314C178.177 622.133 178.326 621.892 178.519 621.711C179.181 621.108 180.187 619.902 180.466 619.118C180.809 618.154 177.781 617.49 177.078 617.31C176.033 617.008 174.86 616.888 173.709 616.707C173.303 616.586 172.855 616.586 172.429 616.526C171.362 616.465 170.36 616.405 169.336 616.405C168.632 616.405 167.992 616.405 167.33 616.465C165.389 616.526 163.426 616.646 161.42 616.888C160.353 617.008 159.201 617.189 158.155 617.249C156.299 617.43 154.485 617.852 152.671 618.093L151.07 618.455C150.942 618.455 150.857 618.515 150.835 618.576C150.814 618.636 150.792 618.696 150.835 618.757C150.962 618.937 150.94 619.179 150.876 619.36C150.79 619.601 150.576 619.842 150.277 620.143C149.978 620.445 149.614 620.746 149.315 621.048L147.412 622.796C147.113 623.098 146.814 623.399 146.45 623.701C145.98 624.123 145.467 624.484 144.933 624.726C144.848 624.786 144.677 624.906 144.613 624.906H144.421C144.101 624.906 143.951 625.148 143.737 625.389C141.364 627.74 139.161 630.152 137.044 632.684C136.488 633.347 130.52 640.402 130.477 640.522C130.413 640.703 130.455 640.763 130.647 640.763C130.647 640.763 130.647 640.763 130.775 640.763L130.989 640.703C133.55 640.341 135.961 640.04 138.329 640.04H139.033C139.779 640.1 140.526 640.16 141.144 640.402C142.594 640.824 143.274 641.788 143.122 643.296C143.121 643.477 143.057 643.657 142.971 643.899C142.885 644.14 142.799 644.381 142.586 644.622C142.457 644.803 142.286 644.924 142.094 644.924C142.03 644.924 141.966 644.924 141.86 644.863C141.306 644.622 141.051 643.899 141.309 643.175L141.438 642.813C141.502 642.632 141.459 642.572 141.161 642.512C140.756 642.391 140.393 642.331 139.945 642.331H138.729C135.465 642.331 132.029 642.813 128.657 643.477C128.252 643.537 127.932 643.718 127.653 644.14C125.749 646.612 115.073 660.6 114.558 662.047C113.635 664.458 111.62 668.679 109.738 670.91C109.31 671.392 108.969 671.633 108.521 671.633C108.393 671.633 108.222 671.573 108.051 671.513C107.753 671.452 107.497 671.271 107.306 671.091C106.859 670.729 106.86 670.186 107.01 669.583L107.139 669.221C107.44 668.377 107.847 667.594 108.339 666.749C109.774 664.157 111.465 661.564 113.199 659.032C113.477 658.61 113.777 658.128 114.119 657.706C114.333 657.464 114.419 657.223 114.526 656.922C114.612 656.681 114.698 656.439 114.72 656.198C115.451 653.425 115.478 650.832 115.164 648.3L114.996 647.335C115.017 647.275 114.953 647.275 114.889 647.275C114.185 647.275 109.017 649.747 108.12 650.29C107.564 650.591 107.073 650.893 106.56 651.254C106.411 651.315 106.325 651.375 106.282 651.495L106.261 651.556C106.218 651.676 106.41 651.676 106.516 651.737C107.007 651.797 107.241 652.038 107.432 652.4C107.453 652.52 107.41 652.641 107.368 652.762L107.325 652.882C107.132 653.063 106.94 653.063 106.748 653.063C105.725 652.882 104.979 652.46 104.639 651.616C104.597 651.375 104.555 651.134 104.641 650.893C104.727 650.651 104.941 650.41 105.155 650.169C105.625 649.747 106.159 649.325 106.714 649.023C109 647.637 111.243 646.551 113.656 645.526C113.826 645.406 113.976 645.346 114.189 645.285C114.339 645.225 114.446 645.104 114.489 644.984C114.51 644.924 114.532 644.863 114.489 644.803C113.853 642.994 113.303 641.125 112.965 639.196C112.754 638.171 112.671 637.146 112.909 635.94C112.931 635.699 113.038 635.397 113.124 635.156C113.381 634.433 113.809 633.769 114.323 633.046C117.361 629.368 122.615 626.293 126.887 624.183C133.165 621.289 139.549 618.817 145.974 617.31C146.401 617.189 146.806 617.129 147.233 617.008L149.794 616.465C151.95 615.983 154.106 615.501 156.283 615.139C156.56 615.079 156.816 615.079 157.094 615.018L158.715 614.777C158.993 614.717 159.249 614.717 159.526 614.657C162.493 614.235 165.629 613.873 168.509 613.873H169.341ZM146.054 619.601C144.39 619.601 136.406 622.254 134.335 623.037C133.288 623.459 132.263 623.821 131.281 624.243C126.199 626.293 116.076 631.358 114.402 636.061C114.294 636.362 114.251 636.663 114.208 636.965L114.205 638.05C114.371 640.281 115.071 642.271 115.621 644.321C115.684 644.502 115.727 644.562 115.855 644.562C115.919 644.562 116.047 644.562 116.196 644.502L119.271 643.416C121.363 642.753 123.498 642.15 125.568 641.728C125.973 641.668 126.23 641.487 126.465 641.185C128.198 639.015 129.909 636.905 131.685 634.794C132.005 634.433 132.241 634.131 132.561 633.769L134.294 631.78C137.524 627.921 141.501 623.58 145.477 620.324C145.754 620.083 146.075 619.902 146.31 619.601H146.054ZM123.727 644.562C121.785 644.803 118.625 645.949 116.725 646.612C116.426 646.732 116.362 646.732 116.319 646.853C116.298 646.913 116.319 647.034 116.318 647.215L116.361 647.275C116.698 649.385 116.906 651.495 116.688 653.726C116.731 653.787 116.709 653.847 116.837 653.847C119.084 650.772 121.395 647.697 123.77 644.622L123.727 644.562ZM162.204 648.059C161.884 648.059 161.713 648.179 161.457 648.36C159.02 650.712 155.089 653.304 152.017 653.304C149.457 653.304 147.754 651.435 148.634 648.963C149.193 647.396 151.376 643.959 152.935 643.175C153.341 642.934 153.683 642.874 154.067 642.874C154.835 642.874 155.452 643.296 155.515 644.019L155.536 644.14C155.45 644.381 155.193 644.562 155.001 644.743L153.975 645.466C153.719 645.647 153.441 645.888 153.227 646.129C152.265 647.396 151.387 648.601 150.893 649.988C150.765 650.35 150.764 650.712 150.763 651.073C150.677 651.495 150.954 651.616 151.338 651.616H151.978C154.325 651.315 157.252 649.566 159.239 647.938C159.346 647.818 159.432 647.757 159.453 647.697C159.475 647.637 159.432 647.576 159.262 647.516C156.938 646.853 155.129 644.743 156.095 642.03C156.31 641.427 156.652 640.824 157.166 640.281C158.278 638.955 159.773 638.171 161.374 637.809C161.715 637.749 162.057 637.688 162.377 637.688C165.129 637.688 166.382 640.1 165.502 642.572C165.03 643.899 164.216 645.104 163.339 646.31C163.232 646.431 163.125 646.551 163.104 646.612C163.061 646.732 163.189 646.732 163.445 646.732H163.957C164.789 646.732 165.664 646.612 166.475 646.491C167.307 646.31 168.097 646.069 168.93 645.707C169.079 645.647 169.229 645.587 169.421 645.587C169.869 645.587 170.273 645.888 170.251 646.31L170.208 646.431C170.144 646.612 170.058 646.672 169.909 646.732C169.503 646.973 169.054 647.154 168.691 647.275C167.282 647.818 165.852 648.059 164.636 648.059H162.204ZM164.074 641.728C164.332 641.005 164.419 640.402 164.313 639.98C164.186 639.618 164.037 639.316 163.525 639.316H163.141C163.013 639.316 162.949 639.316 162.8 639.377C161.605 639.497 160.473 639.98 159.468 641.005C159.04 641.487 158.719 642.03 158.526 642.572C158.376 642.994 158.289 643.416 158.267 643.838C158.307 645.165 158.923 646.129 160.331 646.491H160.459C160.715 646.491 160.885 646.371 161.078 646.19L161.719 645.466C162.703 644.321 163.538 643.054 164.074 641.728ZM167.902 647.697C170.178 641.306 176.254 633.408 181.876 628.223C185.553 624.726 192.883 618.877 197.875 618.877C200.179 618.877 201.925 620.445 201.109 622.736C201.045 622.917 200.981 623.098 200.831 623.339C198.688 627.378 192.918 632.262 189.071 635.156C184.926 638.352 176.251 644.381 172.024 645.466C171.726 645.587 171.619 645.707 171.447 646.009C170.976 646.973 170.547 647.998 170.182 649.023L169.946 649.687C169.409 651.375 168.674 655.595 171.106 655.595C171.234 655.595 171.384 655.535 171.576 655.535C173.112 655.173 174.865 653.847 176.126 652.822C176.489 652.52 176.788 652.4 177.044 652.4C177.172 652.4 177.342 652.46 177.577 652.52C177.854 652.641 178.451 652.942 178.3 653.365C178.279 653.425 178.172 653.545 178.001 653.666C176.227 655.234 173.748 657.163 171.508 657.163C170.868 657.163 170.228 656.982 169.674 656.741C166.286 655.113 166.571 651.435 167.902 647.697ZM172.497 644.14C172.753 644.14 172.924 644.019 173.159 643.899L174.568 643.175C182.236 638.894 194.267 629.911 198.527 623.339C198.741 622.917 198.977 622.434 199.148 621.952L199.32 621.47C199.492 620.987 199.407 620.867 198.895 620.867H198.447C196.975 620.867 194.626 621.892 193.195 622.676C184.971 627.258 177.529 635.578 173.14 642.874C172.947 643.235 172.668 643.657 172.497 644.14ZM194.361 645.285C193.549 645.949 192.759 646.551 192.032 647.154C189.959 648.843 184.296 653.244 181.736 653.244C180.008 653.244 178.838 651.857 179.31 650.35C179.503 649.807 179.825 649.265 180.188 648.782C182.928 644.863 189.766 639.497 194.246 639.497C195.334 639.497 196.251 639.799 196.975 640.462C197.124 640.582 197.209 640.703 197.337 640.703C197.401 640.703 197.508 640.582 197.764 640.402C197.978 640.16 198.192 639.919 198.342 639.678C202.342 634.553 206.748 629.73 211.643 625.148C213.075 623.821 218.27 619.118 220.19 619.118C220.446 619.118 220.68 619.179 220.872 619.36C221.234 619.782 221.382 620.264 221.189 620.807C221.124 620.987 220.975 621.229 220.846 621.409C220.418 622.073 219.819 622.676 219.199 623.339C216.933 625.57 214.56 627.74 212.187 629.911C208.831 632.865 205.476 635.819 202.056 638.774C201.863 638.955 201.585 639.196 201.436 639.437C197.884 644.019 194.46 648.963 192.7 653.907L192.528 654.57C192.506 654.631 192.463 654.751 192.42 654.872C192.312 655.354 192.205 655.836 192.161 656.319C192.161 656.5 192.203 656.56 192.267 656.56C192.331 656.56 192.395 656.56 192.481 656.5C192.865 656.319 193.1 656.198 193.356 656.198C193.484 656.198 193.548 656.198 193.654 656.259C194.102 656.439 194.4 656.681 194.484 657.163C194.527 657.223 194.484 657.344 194.463 657.404C194.42 657.525 194.398 657.585 194.227 657.706C194.163 657.706 194.078 657.766 193.992 657.826C193.266 658.248 192.668 658.489 192.156 658.489C191.708 658.489 191.282 658.248 190.835 657.886C189.835 656.741 190.095 654.932 190.61 653.304C190.718 652.822 190.89 652.34 191.062 651.857C191.77 649.868 192.798 647.878 193.997 645.949C194.126 645.768 194.254 645.587 194.361 645.285ZM208.43 631.297C211.636 628.584 214.735 625.811 217.686 622.736C216.554 623.218 211.06 628.403 208.43 631.297ZM181.741 651.073C181.698 651.194 181.676 651.254 181.804 651.254C181.868 651.254 181.932 651.254 182.018 651.194C182.594 651.013 183.192 650.772 183.747 650.47C186.822 649.023 189.921 646.612 192.592 644.502C193.725 643.657 194.815 642.753 195.883 641.909C196.054 641.788 196.097 641.668 196.119 641.607C196.248 641.246 195.779 641.125 195.459 641.125C192.835 641.125 189.224 643.537 187.108 645.346C185.868 646.31 182.256 649.626 181.784 650.953L181.741 651.073ZM205.687 651.917C209.271 651.917 215.785 648.36 218.947 646.129C219.311 645.828 219.546 645.707 219.802 645.707C219.93 645.707 220.1 645.768 220.313 645.888C220.59 646.009 220.675 646.129 220.632 646.25C220.568 646.431 220.461 646.551 220.205 646.732C216.55 649.807 209.46 653.184 205.428 653.184C202.292 653.184 199.607 651.556 200.062 648.481C200.084 648.24 200.17 647.998 200.256 647.757C200.385 647.396 200.599 646.973 200.813 646.551C203.425 642.271 208.96 637.869 213.952 637.869C215.147 637.93 216.085 638.352 216.765 639.135C217.106 639.618 217.211 640.221 216.975 640.884C215.773 644.26 208.405 647.878 205.205 647.878C204.565 647.878 203.946 647.818 203.371 647.637C203.264 647.576 203.136 647.576 203.072 647.576C202.88 647.576 202.837 647.697 202.751 647.938L202.515 648.601C201.85 650.47 202.487 651.737 204.471 651.917H205.687ZM204.525 646.732C204.845 646.732 205.165 646.732 205.506 646.672C208.729 645.888 213.3 643.477 214.907 640.402L214.971 640.221C215.164 639.678 214.93 639.618 214.482 639.618C210.812 639.859 206.367 643.175 203.993 646.069C203.886 646.19 203.8 646.25 203.779 646.31L203.715 646.491C203.672 646.612 203.714 646.672 203.885 646.732H204.525ZM219.624 649.687C220.095 649.265 220.522 648.782 221.014 648.3C224.201 644.743 228.819 639.859 233.07 637.447C233.454 637.266 233.817 637.146 234.137 637.146C235.033 637.146 235.65 638.11 235.648 638.834C235.669 639.316 235.625 639.799 235.709 640.281C235.687 640.703 235.75 640.884 236.006 640.884C236.198 640.884 237.031 640.522 237.16 640.341C237.416 640.16 237.629 640.1 237.757 640.1C237.949 640.1 238.12 640.16 238.205 640.281C238.674 640.582 238.844 640.824 238.758 641.065C238.672 641.306 238.394 641.547 237.967 641.849C237.39 642.21 236.814 642.391 236.238 642.391C235.982 642.391 235.726 642.391 235.513 642.271C234.191 641.668 233.746 640.582 234.026 639.075C234.027 638.894 233.984 638.834 233.92 638.834C233.856 638.834 233.771 638.894 233.621 638.955C233.237 639.135 232.831 639.377 232.425 639.618C228.772 641.969 224.688 646.25 222.078 649.445C221.329 650.47 220.452 651.495 219.554 652.4L219.234 652.762C219.148 652.822 219.127 652.882 219.041 652.942C218.571 653.365 218.122 653.545 217.61 653.545C217.482 653.545 217.376 653.485 217.184 653.485C215.947 653.184 215.586 652.4 216.037 651.134L216.144 650.832C216.381 650.169 216.766 649.445 217.173 648.843C218.993 645.707 221.197 642.753 223.87 639.919C224.341 639.316 225.303 638.412 226.135 638.412C226.775 638.412 227.307 638.894 227.455 639.377C227.498 639.437 227.455 639.558 227.412 639.678C227.369 639.799 227.347 639.859 227.176 639.98C224.954 641.547 221.166 646.973 219.924 649.204C219.817 649.325 219.689 649.506 219.624 649.687Z" fill="#238CFF"/>
<path d="M363.015 302.862L352.969 310.306L347.106 326.794H327.506L350.957 260.839H370.557L360.808 288.258L397.657 260.839H419.457L380.471 290.048L397.506 326.794H374.506L363.015 302.862ZM492.752 260.839L469.301 326.794H449.501L458.647 301.072H431.647L422.501 326.794H402.701L426.152 260.839H445.952L437.141 285.62H464.141L472.952 260.839H492.752ZM539.887 259.52C546.487 259.52 551.841 260.777 555.947 263.289C560.143 265.739 562.759 269.351 563.795 274.125C564.92 278.836 564.298 284.52 561.931 291.179L549.268 326.794H529.468L534.66 312.19H507.36L502.168 326.794H482.668L495.331 291.179C497.698 284.52 501.086 278.836 505.495 274.125C509.992 269.351 515.176 265.739 521.047 263.289C527.007 260.777 533.287 259.52 539.887 259.52ZM539.786 297.774L542.7 289.577C544.42 284.74 544.482 281.097 542.887 278.647C541.291 276.198 538.426 274.973 534.293 274.973C530.093 274.973 526.324 276.198 522.987 278.647C519.649 281.097 517.12 284.74 515.4 289.577L512.486 297.774H539.786ZM626.382 259.52C634.715 259.52 640.288 262.033 643.102 267.058C645.937 272.02 645.714 279.118 642.431 288.352L628.762 326.794H608.962L622.43 288.917C624.082 284.269 624.188 280.783 622.748 278.459C621.375 276.135 618.688 274.973 614.688 274.973C610.554 274.973 606.774 276.229 603.348 278.742C599.943 281.191 597.359 284.897 595.595 289.86L582.462 326.794H562.662L586.113 260.839H605.313L602.633 268.377C609.465 262.473 617.382 259.52 626.382 259.52ZM732.205 260.839L708.754 326.794H688.954L698.1 301.072H671.1L661.954 326.794H642.154L665.605 260.839H685.405L676.594 285.62H703.594L712.405 260.839H732.205ZM786.44 259.52C794.774 259.52 800.347 262.033 803.16 267.058C805.996 272.02 805.772 279.118 802.489 288.352L788.821 326.794H769.021L782.488 288.917C784.141 284.269 784.247 280.783 782.807 278.459C781.433 276.135 778.746 274.973 774.746 274.973C770.613 274.973 766.833 276.229 763.406 278.742C760.002 281.191 757.418 284.897 755.653 289.86L742.521 326.794H722.721L746.171 260.839H765.371L762.691 268.377C769.524 262.473 777.44 259.52 786.44 259.52ZM837.722 302.862L827.676 310.306L821.813 326.794H802.213L825.664 260.839H845.264L835.515 288.258L872.364 260.839H894.164L855.178 290.048L872.213 326.794H849.213L837.722 302.862ZM960.795 293.817C958.829 299.345 955.787 304.433 951.667 309.081C947.637 313.666 942.863 317.529 937.347 320.67C931.919 323.748 926.126 325.884 919.969 327.077L915.547 339.514H895.747L900.169 327.077C894.86 325.884 890.552 323.748 887.247 320.67C884.03 317.529 882.004 313.666 881.167 309.081C880.42 304.433 881.029 299.345 882.995 293.817C885.317 287.284 889.072 281.411 894.259 276.198C899.513 270.984 905.598 266.901 912.514 263.949C919.497 260.996 926.689 259.52 934.089 259.52C941.489 259.52 947.597 260.996 952.414 263.949C957.298 266.901 960.48 270.984 961.959 276.198C963.505 281.411 963.117 287.284 960.795 293.817ZM915.194 312.661C918.728 312.661 922.207 311.876 925.632 310.306C929.057 308.735 932.105 306.537 934.777 303.71C937.471 300.821 939.477 297.523 940.795 293.817C942.112 290.111 942.44 286.845 941.779 284.018C941.139 281.128 939.666 278.899 937.357 277.328C935.049 275.758 932.128 274.973 928.595 274.973C925.061 274.973 921.582 275.758 918.157 277.328C914.732 278.899 911.673 281.128 908.979 284.018C906.307 286.845 904.312 290.111 902.995 293.817C901.677 297.523 901.338 300.821 901.977 303.71C902.639 306.537 904.124 308.735 906.432 310.306C908.74 311.876 911.661 312.661 915.194 312.661Z" fill="#FBC329"/>
<path d="M334.989 525.325C332.708 518.465 331.895 510.513 332.551 501.468C333.288 492.423 335.491 482.737 339.163 472.41C342.835 462.083 347.519 452.397 353.215 443.352C359.018 434.231 365.485 426.279 372.617 419.495H386.897C379.123 427.636 372.534 436.04 367.132 444.709C361.837 453.302 357.434 462.536 353.923 472.41C350.412 482.284 348.236 491.556 347.394 500.224C346.658 508.817 347.283 517.184 349.269 525.325H334.989ZM495.037 411.354H480.877L468.986 395.525H488.546L495.037 411.354ZM593.61 449.345L550.924 497.511L542.49 449.345H593.61ZM556.07 483.038L580.718 455.902H550.718L556.07 483.038ZM656.816 419.269H674.456L648.069 434.759H635.109L656.816 419.269ZM651.581 525.325C659.355 517.184 665.944 508.779 671.346 500.111C676.748 491.443 681.191 482.209 684.675 472.41C688.159 462.611 690.282 453.377 691.044 444.709C691.806 436.04 691.195 427.636 689.209 419.495H703.489C705.824 426.204 706.61 434.118 705.847 443.239C705.191 452.284 703.013 462.008 699.315 472.41C695.616 482.812 690.879 492.536 685.103 501.581C679.434 510.551 673.02 518.465 665.861 525.325H651.581ZM742.859 503.39L750.296 482.473C744.643 482.397 739.924 481.606 736.14 480.098C732.436 478.591 729.68 476.443 727.872 473.654C726.09 470.789 725.189 467.36 725.17 463.365C725.257 459.294 726.212 454.696 728.034 449.571L737.602 422.661H752.362L742.593 450.136C740.744 455.337 740.043 459.445 740.491 462.46C741.046 465.4 742.536 467.51 744.96 468.792C747.491 469.998 750.677 470.601 754.517 470.601L771.562 422.661H785.722L768.677 470.601C772.277 470.601 775.731 469.998 779.04 468.792C782.349 467.586 785.366 465.513 788.091 462.573C790.843 459.558 793.131 455.488 794.953 450.362L804.802 422.661H819.562L810.035 449.458C807.569 456.392 804.185 462.309 799.883 467.209C795.661 472.108 790.561 475.877 784.583 478.516C778.632 481.078 771.923 482.397 764.456 482.473L757.019 503.39H742.859Z" fill="#FBC329"/>
</svg>
