<svg width="1149" height="680" viewBox="0 0 1149 680" fill="none" xmlns="http://www.w3.org/2000/svg">
<path d="M43.0222 118.64C43.0222 92.1299 64.5125 70.6396 91.0222 70.6396H851.487C877.997 70.6396 899.487 92.13 899.487 118.64V674.508H91.0222C64.5125 674.508 43.0222 653.018 43.0222 626.508V118.64Z" fill="#FBC329"/>
<path d="M372.863 32.1543C365.599 20.2571 352.664 13 338.724 13H227.067C195.837 13 176.653 47.1912 192.929 73.8457L230.637 135.601C237.902 147.498 250.836 154.755 264.776 154.755H376.433C407.664 154.755 426.848 120.564 410.572 93.9095L372.863 32.1543Z" fill="#FBC329"/>
<path d="M172.247 32.1543C179.512 20.2571 192.446 13 206.386 13H318.043C349.274 13 368.458 47.1912 352.182 73.8457L314.473 135.601C307.208 147.498 294.274 154.755 280.334 154.755H168.677C137.447 154.755 118.263 120.564 134.539 93.9095L172.247 32.1543Z" fill="#FBC329"/>
<path d="M262.412 70.6018C262.458 70.5593 262.434 70.4787 262.445 70.4172C262.149 65.7783 263.108 60.7437 264.208 56.2807C264.268 56.0883 264.32 55.869 264.379 55.6766L264.703 54.5029C265.138 52.9175 265.638 51.2548 266.3 49.7487C266.474 49.3481 266.62 48.9554 266.828 48.5738C267.009 48.2001 267.19 47.8263 267.449 47.5174C267.514 47.4402 267.587 47.3898 267.64 47.3741C267.694 47.3584 267.783 47.3617 267.852 47.3997C268.045 47.46 268.239 47.5203 268.348 47.6925C268.391 47.7384 268.407 47.792 268.415 47.8189C268.431 47.8726 268.447 47.9263 268.409 47.9956C268.303 48.2306 268.225 48.4578 268.127 48.7196L267.97 49.1739C267.88 49.4625 267.577 50.3095 267.394 50.4797C267.367 50.4875 267.356 50.5491 267.337 50.5837L266.775 52.2352C266.499 53.0744 266.257 53.9326 266.042 54.7829C264.626 59.9508 263.711 65.2348 263.822 70.6278C263.819 70.7162 263.824 70.8314 263.848 70.9119L263.856 70.9388C263.872 70.9925 263.898 70.9846 263.925 70.9768L263.979 70.9611C264.055 70.8223 264.127 70.7719 264.235 70.7406C264.396 70.6935 264.562 70.7616 264.756 70.8219C264.887 70.871 265.029 70.8587 265.164 70.8194L265.379 70.7566C268.362 69.8857 270.891 66.989 272.526 64.5281C275.142 60.3517 277.64 54.4011 276.191 49.5157C274.908 45.194 271.547 44.1042 267.435 45.3047C265.607 45.8383 263.577 46.8687 262.254 48.2175C260.436 49.769 259.03 51.7253 257.931 53.8257C257.287 55.2971 256.485 57.2228 256.74 58.8693C256.753 59.0114 256.793 59.1456 256.798 59.2608C256.846 59.4219 256.816 59.5181 256.655 59.5652L256.601 59.5809C256.147 59.6259 255.627 59.2526 255.5 58.8231L255.444 58.6352C255.36 57.9596 255.4 57.3062 255.51 56.6909C256.323 52.0491 260.327 46.9422 264.56 45.0648C265.138 44.7501 265.784 44.5618 266.429 44.3735L267.047 44.193C267.646 44.0472 268.242 43.9898 268.847 43.9592C272.86 43.6044 276.278 45.8733 277.441 49.7924C278.516 53.4162 277.571 57.5133 276.083 60.8646C274.545 64.6388 270.603 70.2523 266.706 71.3901L266.418 71.5033C266.042 71.6131 265.684 71.6883 265.292 71.7445C265.131 71.7916 265.104 71.7994 265.098 71.9762C265.07 72.276 265.042 72.5758 264.953 72.8645C264.852 73.2147 264.65 73.4195 264.408 73.4901C264.247 73.5372 264.078 73.5574 263.885 73.4971C263.267 73.3857 262.914 73.0805 262.731 72.4631L262.675 72.2752C262.611 72.0604 262.582 71.8647 262.546 71.6421L262.522 71.5616C262.506 71.5079 262.455 71.4352 262.358 71.405C261.554 71.0565 260.952 70.5031 260.452 69.8031C260.049 69.1333 259.707 68.4746 259.484 67.723L259.447 67.5004C258.935 65.0833 259.217 63.2798 260.328 61.1179C260.396 60.9523 260.46 60.8751 260.568 60.8437C260.649 60.8202 260.764 60.8156 260.896 60.8648C261.054 60.9061 261.22 60.9742 261.341 61.0849C261.383 61.1307 261.426 61.1766 261.442 61.2302C261.458 61.2839 261.42 61.3533 261.39 61.4495C260.479 63.495 260.005 65.4418 260.674 67.6966C260.746 67.9382 260.825 68.2066 260.932 68.4672C261.134 69.0499 261.436 69.5744 261.818 70.0753C261.997 70.2855 262.168 70.4688 262.412 70.6018ZM283.582 57.7709C285.088 57.3315 286.822 55.1043 287.521 53.8208C287.589 53.6552 287.654 53.578 287.761 53.5466C287.815 53.5309 287.904 53.5342 288.027 53.5565C288.177 53.5709 288.247 53.6089 288.263 53.6626C288.287 53.7432 288.276 53.8047 288.219 53.9088C287.55 55.5916 285.524 57.8167 283.83 58.3111C282.513 58.6956 280.927 58.371 280.252 57.0805C280.194 56.981 280.162 56.8736 280.13 56.7662C280.082 56.6051 280.053 56.4094 280.024 56.2137C279.916 54.1744 281.001 51.7283 283.097 51.1163C283.616 50.9941 284.129 51.0486 284.635 51.2798C284.914 51.4318 285.128 51.661 285.216 51.9563C285.662 53.4595 283.586 55.8155 282.242 56.2078C281.974 56.2863 281.697 56.3379 281.404 56.3359C281.342 56.3247 281.289 56.3404 281.262 56.3483C281.181 56.3718 281.197 56.4255 281.229 56.5329L281.317 56.8281C281.564 57.6603 282.188 58.0906 283.072 57.92L283.582 57.7709ZM281.634 55.8312C281.769 55.792 281.903 55.7528 282.029 55.6867C283.162 54.9768 284.402 53.4479 284.211 52.0162L284.187 51.9356C284.116 51.694 284 51.6986 283.812 51.7535C282.339 52.3003 281.406 54.1769 281.224 55.6301C281.213 55.6916 281.194 55.7263 281.202 55.7532L281.226 55.8337C281.242 55.8874 281.277 55.9064 281.365 55.9097L281.634 55.8312ZM287.279 53.6581C287.08 52.987 286.951 52.3539 286.856 51.7399C286.78 51.383 286.703 51.0262 286.618 50.6426C286.608 50.4122 286.665 50.3081 286.88 50.2453C287.176 50.159 287.476 50.1879 287.755 50.3399C287.833 50.4047 287.918 50.4964 287.942 50.5769L287.966 50.6574C288.049 51.625 288.309 52.5992 288.587 53.5387L288.874 54.5051C289.005 54.8462 289.135 55.1873 289.311 55.4859C289.335 55.5664 289.359 55.647 289.448 55.6503C289.528 55.6267 289.539 55.5652 289.577 55.4958L289.823 55.0448C290.026 54.548 291.104 51.7832 290.992 51.4074C290.977 51.3537 290.961 51.3 290.918 51.2542C290.699 50.9097 290.534 50.5496 290.422 50.1738C290.199 49.4222 290.207 48.6615 290.526 47.8682C290.616 47.5795 290.867 47.2438 291.163 47.1575C291.324 47.1104 291.466 47.098 291.632 47.1661C291.949 47.2487 292.209 47.4354 292.304 47.7575L292.32 47.8112C292.402 48.2832 292.387 48.7251 292.31 49.1558C292.244 49.817 292.107 50.4402 291.979 51.0902C291.949 51.1864 291.946 51.2748 291.97 51.3553C291.994 51.4358 292.045 51.5085 292.149 51.5655C292.53 51.8629 292.951 52.0024 293.493 51.9607L293.582 51.964C293.609 51.9562 293.636 51.9483 293.636 51.9483C293.77 51.9091 293.888 51.8162 293.999 51.6964C294.064 51.6192 294.136 51.5688 294.217 51.5453C294.405 51.4903 294.861 51.6489 294.917 51.8368L294.925 51.8637C294.954 52.0594 294.808 52.1602 294.663 52.2609C294.526 52.3885 294.372 52.4625 294.211 52.5096C293.593 52.69 292.898 52.5137 292.337 52.2981C292.179 52.2568 292.04 52.1809 291.9 52.1049C291.831 52.0669 291.796 52.0479 291.769 52.0557C291.742 52.0636 291.723 52.0983 291.72 52.1866L291.419 53.2372C291.252 53.9566 291.025 54.6649 290.823 55.3653C290.685 55.7849 290.487 56.3969 290.003 56.5381C289.923 56.5617 289.807 56.5662 289.692 56.5708C288.282 56.5448 287.67 54.9734 287.335 53.846L287.279 53.6581ZM291.357 50.0759C291.549 49.6407 291.668 48.4682 291.56 48.0041C291.27 48.7012 291.203 49.3623 291.357 50.0759ZM297.756 53.633C299.262 53.1936 300.996 50.9664 301.695 49.6829C301.763 49.5173 301.828 49.44 301.935 49.4086C301.989 49.3929 302.078 49.3962 302.201 49.4185C302.351 49.433 302.421 49.471 302.437 49.5247C302.461 49.6052 302.45 49.6667 302.393 49.7708C301.724 51.4537 299.698 53.6788 298.004 54.1731C296.687 54.5576 295.101 54.2331 294.426 52.9425C294.368 52.843 294.336 52.7356 294.304 52.6283C294.256 52.4672 294.227 52.2715 294.198 52.0757C294.09 50.0364 295.175 47.5904 297.271 46.9783C297.79 46.8561 298.303 46.9106 298.809 47.1419C299.088 47.2938 299.302 47.523 299.39 47.8183C299.836 49.3215 297.76 51.6776 296.416 52.0699C296.148 52.1484 295.871 52.2 295.578 52.1979C295.516 52.1868 295.463 52.2025 295.436 52.2103C295.355 52.2339 295.371 52.2875 295.403 52.3949L295.491 52.6902C295.738 53.5223 296.362 53.9526 297.246 53.7821L297.756 53.633ZM295.808 51.6933C295.942 51.654 296.077 51.6148 296.203 51.5487C297.336 50.8388 298.576 49.31 298.385 47.8782L298.361 47.7977C298.29 47.5561 298.174 47.5606 297.986 47.6156C296.513 48.1623 295.58 50.0389 295.398 51.4922C295.387 51.5537 295.368 51.5884 295.376 51.6152L295.4 51.6958C295.416 51.7494 295.451 51.7684 295.539 51.7717L295.808 51.6933ZM301.724 50.4328C300.88 47.5875 301.207 43.6708 302.108 40.8993C302.667 39.0443 304.099 35.7971 306.195 35.185C307.163 34.9025 308.337 35.318 308.64 36.338C308.664 36.4185 308.688 36.4991 308.693 36.6143C308.931 38.4991 307.883 41.1677 307.083 42.8014C306.241 44.5929 304.296 48.0776 302.827 49.0316C302.736 49.1167 302.725 49.1782 302.738 49.3203C302.811 49.7654 302.92 50.2296 303.055 50.686L303.143 50.9812C303.393 51.725 304.273 53.5099 305.294 53.2117C305.348 53.196 305.394 53.1534 305.474 53.1299C306.018 52.7962 306.38 52.0487 306.621 51.4825C306.689 51.3169 306.78 51.2319 306.888 51.2005C306.942 51.1848 307.03 51.1881 307.146 51.1835C307.296 51.198 307.632 51.2459 307.687 51.4338C307.695 51.4606 307.684 51.5222 307.646 51.5916C307.343 52.4386 306.845 53.5173 305.904 53.7919C305.636 53.8704 305.316 53.8761 305.015 53.8472C303.134 53.609 302.218 52.0971 301.724 50.4328ZM302.652 48.441C302.759 48.4097 302.797 48.3403 302.862 48.2631L303.25 47.7997C305.265 45.1405 307.787 40.0581 307.725 36.8968C307.696 36.701 307.66 36.4784 307.596 36.2637L307.532 36.0489C307.468 35.8342 307.399 35.7962 307.184 35.859L306.996 35.9139C306.377 36.0944 305.68 36.7939 305.299 37.2842C303.136 40.1324 302.354 44.3861 302.565 47.8538C302.586 48.0227 302.588 48.2263 302.652 48.441ZM312.636 47.4222C312.502 47.4615 312.464 47.5309 312.407 47.6349C312.046 48.878 311.125 50.401 309.835 50.7777C308.76 51.0916 307.518 50.5497 307.192 49.4492C306.985 48.7513 306.934 47.1035 307.368 46.5976C307.47 46.451 307.597 46.3849 307.758 46.3378C308.08 46.2437 308.459 46.3374 308.689 46.6203L308.732 46.6661C308.763 46.7735 308.707 46.8776 308.677 46.9738L308.45 47.3901C308.393 47.4942 308.344 47.6251 308.322 47.7481C308.275 48.3746 308.246 48.9664 308.429 49.5838C308.477 49.7449 308.578 49.8902 308.68 50.0356C308.763 50.2156 308.913 50.2301 309.074 50.183L309.343 50.1045C310.244 49.6957 310.981 48.6348 311.357 47.7374C311.368 47.6758 311.387 47.6411 311.379 47.6143C311.371 47.5875 311.336 47.5685 311.247 47.5652C310.084 47.5837 308.731 46.9581 308.372 45.7502C308.292 45.4817 308.267 45.1976 308.329 44.9168C308.423 44.2478 308.83 43.7497 309.4 43.4082C309.527 43.3421 309.653 43.276 309.788 43.2368C310.943 42.8994 312.149 43.7142 312.476 44.8147C312.651 45.4053 312.649 45.9892 312.62 46.581C312.609 46.6426 312.598 46.7041 312.606 46.7309C312.622 46.7846 312.676 46.7689 312.783 46.7375L312.998 46.6748C313.348 46.5728 313.681 46.4171 313.988 46.2692C314.286 46.0945 314.55 45.9008 314.798 45.6535C314.844 45.6109 314.89 45.5684 314.97 45.5448C315.158 45.4899 315.413 45.5614 315.523 45.7336L315.539 45.7873C315.563 45.8678 315.544 45.9025 315.498 45.945C315.395 46.0916 315.258 46.2192 315.14 46.3121C314.701 46.7028 314.168 46.975 313.657 47.1241L312.636 47.4222ZM311.638 44.6508C311.543 44.3287 311.409 44.0759 311.246 43.9194C311.091 43.7898 310.943 43.6869 310.728 43.7497L310.567 43.7968C310.513 43.8125 310.486 43.8203 310.441 43.8629C309.973 44.0578 309.633 44.3902 309.5 44.925C309.456 45.1712 309.474 45.4285 309.546 45.67C309.602 45.8579 309.684 46.038 309.794 46.2102C310.184 46.738 310.715 47.0498 311.407 47.0225L311.461 47.0068C311.569 46.9754 311.607 46.906 311.636 46.8098L311.702 46.4406C311.793 45.86 311.787 45.2492 311.638 44.6508ZM316.105 47.693C316.467 46.158 316.864 44.6419 317.516 43.1974C317.754 42.7196 317.992 42.2417 318.299 41.8019C318.512 41.5356 318.726 41.2692 319.032 41.1213C319.132 41.0631 319.204 41.0127 319.285 40.9892C319.366 40.9656 319.481 40.9611 319.57 40.9644C320.405 40.9247 321.134 41.412 321.391 42.1826C321.535 42.6658 321.571 43.1804 321.572 43.676C321.577 43.7912 321.574 43.8795 321.59 43.9332C321.614 44.0138 321.694 43.9902 321.909 43.9274C322.447 43.7705 323.683 43.4096 323.889 42.8244C323.927 42.755 324 42.7046 324.08 42.6811L324.161 42.6575C324.303 42.6451 324.666 42.6852 324.714 42.8463C324.729 42.8999 324.718 42.9615 324.708 43.023C324.486 43.5545 323.972 43.792 323.485 44.0216C323.197 44.1347 322.91 44.2479 322.614 44.3342C322.318 44.4205 322.015 44.48 321.711 44.5395C321.577 44.5787 321.504 44.6291 321.463 44.7868C321.174 46.2715 320.569 48.1691 319.057 48.7853C318.985 48.8357 318.904 48.8592 318.85 48.8749C318.152 49.0789 317.298 48.8613 316.884 48.253C316.777 48.2844 316.793 48.3381 316.782 48.3996C316.161 51.0311 316.006 53.7596 316.014 56.441C316.028 57.0786 316.13 57.7196 316.171 58.3493C316.189 58.6066 316.207 58.8639 316.171 59.1369C316.143 59.4367 316.06 59.5486 315.844 59.6114L315.737 59.6428C315.361 59.7526 315.044 59.67 314.898 59.2752C314.73 58.7115 314.687 58.1701 314.635 57.6019C314.29 53.0939 314.523 48.5631 315.126 44.0993C315.198 43.5534 315.323 42.9917 315.475 42.4222C315.486 42.3607 315.497 42.2992 315.535 42.2298C315.614 42.0027 315.797 41.8325 316.039 41.7619C316.254 41.6991 316.501 41.7437 316.726 41.9114C316.76 41.9304 316.803 41.9762 316.819 42.0299C316.827 42.0567 316.816 42.1183 316.805 42.1798C316.496 43.2036 316.387 44.3145 316.29 45.3638C316.212 46.0865 316.1 46.7902 316.076 47.4972C316.057 47.5319 316.073 47.5856 316.089 47.6393L316.105 47.693ZM317.921 44.8583C318.174 44.7262 318.408 44.6287 318.65 44.5581L318.838 44.5032C319.088 44.4594 319.365 44.4078 319.615 44.364C319.803 44.3091 319.972 44.2888 320.168 44.2607C320.464 44.1744 320.348 42.6039 320.295 42.3276C320.232 42.1129 320.168 41.8981 320.024 41.7069C319.938 41.6152 319.93 41.5884 319.823 41.6198L319.742 41.6433C319.309 41.8572 318.942 42.4895 318.734 42.8711C318.377 43.4418 318.098 44.0774 317.847 44.7051C317.836 44.7667 317.798 44.836 317.814 44.8897L317.921 44.8583ZM319.148 45.0545C318.691 45.1879 318.293 45.4208 317.996 45.7991C317.535 46.3128 317.388 46.9975 317.587 47.6686C317.667 47.937 317.752 48.0287 317.931 48.2389C318.033 48.3843 318.122 48.3876 318.229 48.3562L318.337 48.3248C318.436 48.2666 318.509 48.2162 318.582 48.1658C319.303 47.5468 319.777 46.3875 320.038 45.4947C320.071 45.3101 320.13 45.1177 320.171 44.9599C320.19 44.9252 320.182 44.8984 320.174 44.8715C320.158 44.8178 320.131 44.8257 320.043 44.8224C319.874 44.8426 319.685 44.8975 319.524 44.9446L319.148 45.0545ZM327.259 45.0199C328.764 44.5805 330.498 42.3533 331.198 41.0698C331.266 40.9042 331.331 40.827 331.438 40.7956C331.492 40.7799 331.58 40.7832 331.704 40.8055C331.854 40.8199 331.924 40.8579 331.94 40.9116C331.964 40.9921 331.953 41.0537 331.896 41.1577C331.227 42.8406 329.2 45.0657 327.507 45.5601C326.19 45.9446 324.604 45.62 323.929 44.3295C323.871 44.2299 323.839 44.1226 323.807 44.0152C323.759 43.8541 323.73 43.6584 323.701 43.4626C323.593 41.4234 324.678 38.9773 326.774 38.3653C327.293 38.243 327.805 38.2975 328.312 38.5288C328.591 38.6808 328.805 38.91 328.893 39.2052C329.339 40.7085 327.263 43.0645 325.919 43.4568C325.65 43.5353 325.374 43.5869 325.081 43.5849C325.019 43.5737 324.966 43.5894 324.939 43.5972C324.858 43.6208 324.874 43.6745 324.906 43.7818L324.993 44.0771C325.24 44.9093 325.865 45.3396 326.749 45.169L327.259 45.0199ZM325.311 43.0802C325.445 43.041 325.58 43.0017 325.706 42.9357C326.839 42.2257 328.079 40.6969 327.888 39.2651L327.864 39.1846C327.792 38.943 327.677 38.9476 327.489 39.0025C326.016 39.5493 325.083 41.4258 324.901 42.8791C324.89 42.9406 324.871 42.9753 324.879 43.0022L324.903 43.0827C324.919 43.1364 324.954 43.1554 325.042 43.1587L325.311 43.0802ZM332.484 42.4152C332.563 42.1881 332.607 41.942 332.677 41.688C333.014 39.8689 333.578 37.3415 334.684 35.8518C334.795 35.7321 334.913 35.6392 335.047 35.5999C335.424 35.4901 335.954 35.8019 336.157 36.0926C336.302 36.2838 336.419 36.4829 336.59 36.6662C336.7 36.8384 336.778 36.9033 336.885 36.8719C336.966 36.8483 337.214 36.601 337.217 36.5126C337.273 36.4085 337.346 36.3581 337.4 36.3424C337.48 36.3189 337.569 36.3222 337.639 36.3602C337.92 36.4238 338.06 36.4998 338.092 36.6071C338.124 36.7145 338.075 36.8454 337.98 37.0189C337.84 37.2349 337.649 37.3782 337.407 37.4488C337.299 37.4802 337.192 37.5116 337.068 37.4893C336.344 37.4092 335.851 37.028 335.544 36.3883C335.493 36.3156 335.459 36.2966 335.432 36.3045C335.405 36.3123 335.386 36.347 335.34 36.3895C335.23 36.5093 335.127 36.6559 335.025 36.8025C334.153 38.1946 333.643 40.4144 333.447 42.0175C333.421 42.521 333.342 43.0401 333.219 43.5133L333.186 43.6979C333.167 43.7326 333.175 43.7595 333.156 43.7942C333.078 44.0213 332.94 44.1489 332.725 44.2117C332.672 44.2274 332.61 44.2162 332.529 44.2398C331.925 44.2703 331.553 43.9998 331.385 43.4361L331.346 43.3019C331.258 43.0066 331.216 42.6688 331.217 42.3769C331.099 40.8947 331.192 39.4381 331.517 37.9725C331.544 37.6727 331.694 37.1916 332.043 37.0896C332.312 37.0111 332.671 37.1395 332.869 37.315C332.904 37.334 332.92 37.3877 332.936 37.4414C332.952 37.4951 332.96 37.5219 332.922 37.5913C332.43 38.4932 332.368 41.1367 332.474 42.1848C332.463 42.2463 332.46 42.3347 332.484 42.4152Z" fill="#238CFF"/>
<path d="M218.413 37.7505C218.467 37.7348 218.521 37.7191 218.548 37.7113L218.835 37.5981C219.883 37.2921 220.961 37.1818 222.027 37.1331C223.41 37.167 225.294 37.3168 225.764 38.9006L225.804 39.0348C225.841 39.2574 225.843 39.461 225.799 39.7071C225.782 39.9454 225.734 40.5719 225.439 40.6582C225.385 40.6739 225.331 40.6896 225.269 40.6784C224.953 40.5958 224.666 40.417 224.49 40.1185L224.474 40.0648C224.45 39.9842 224.445 39.869 224.475 39.7728C224.583 39.4494 224.666 38.842 224.562 38.493C224.435 38.0635 222.977 38.1684 222.63 38.182C222.106 38.1891 221.58 38.2845 221.045 38.353C220.841 38.3543 220.653 38.4092 220.457 38.4373C219.992 38.5438 219.554 38.6425 219.124 38.7681C218.828 38.8544 218.56 38.9329 218.299 39.0382C217.5 39.3004 216.71 39.5895 215.935 39.9323C215.521 40.1115 215.088 40.3255 214.666 40.4778C213.938 40.7781 213.294 41.17 212.601 41.4892L212.03 41.8308C211.976 41.8465 211.958 41.8812 211.966 41.908C211.973 41.9348 211.981 41.9617 212.016 41.9807C212.121 42.0377 212.18 42.1372 212.203 42.2177C212.235 42.3251 212.213 42.4482 212.173 42.6059C212.132 42.7637 212.064 42.9293 212.023 43.087L211.717 44.0224C211.676 44.1802 211.635 44.3379 211.567 44.5035C211.489 44.7307 211.375 44.9388 211.219 45.1011C211.2 45.1358 211.162 45.2052 211.135 45.213L211.055 45.2366C210.92 45.2758 210.925 45.391 210.904 45.5141C210.569 46.7493 210.323 47.9878 210.147 49.2643C210.1 49.5988 209.581 53.1632 209.597 53.2169C209.621 53.2974 209.656 53.3164 209.736 53.2929C209.736 53.2929 209.736 53.2929 209.79 53.2772L209.863 53.2268C210.836 52.7675 211.764 52.3508 212.758 52.0605L213.054 51.9742C213.385 51.9069 213.715 51.8396 214.043 51.8606C214.77 51.8523 215.328 52.1563 215.688 52.7803C215.739 52.853 215.763 52.9335 215.795 53.0409C215.827 53.1482 215.858 53.2556 215.837 53.3787C215.834 53.4671 215.796 53.5364 215.715 53.56C215.688 53.5678 215.661 53.5757 215.6 53.5645C215.299 53.5356 214.988 53.2763 214.893 52.9542L214.845 52.7931C214.821 52.7126 214.786 52.6936 214.644 52.706C214.44 52.7072 214.271 52.7274 214.082 52.7824L213.572 52.9315C212.201 53.3316 210.894 53.9466 209.665 54.6263C209.511 54.7003 209.428 54.8122 209.43 55.0158C209.326 56.2419 208.782 63.1679 208.973 63.8121C209.265 64.8937 209.607 66.8355 209.445 67.9621C209.401 68.2082 209.326 68.3469 209.138 68.4019C209.084 68.4176 208.995 68.4143 208.907 68.411C208.764 68.4233 208.606 68.3821 208.475 68.3329C208.185 68.2425 208.033 68.0244 207.926 67.7638L207.878 67.6028C207.767 67.227 207.717 66.8623 207.686 66.463C207.559 65.246 207.539 63.9975 207.554 62.7681C207.552 62.5645 207.542 62.3341 207.566 62.1226C207.588 61.9996 207.556 61.8922 207.517 61.758C207.485 61.6506 207.453 61.5432 207.394 61.4437C206.92 60.2403 206.201 59.1959 205.356 58.2176L205.014 57.8509C205.006 57.824 204.979 57.8319 204.952 57.8397C204.656 57.926 203.182 59.5524 202.958 59.8803C202.81 60.0694 202.688 60.2507 202.575 60.4588C202.529 60.5014 202.51 60.5361 202.526 60.5897L202.534 60.6166C202.55 60.6703 202.631 60.6467 202.692 60.6579C202.915 60.622 203.082 60.6901 203.264 60.8119C203.307 60.8578 203.323 60.9114 203.339 60.9651L203.354 61.0188C203.325 61.115 203.244 61.1386 203.163 61.1621C202.683 61.215 202.25 61.1369 201.87 60.8396C201.785 60.7479 201.699 60.6562 201.667 60.5489C201.635 60.4415 201.657 60.3184 201.679 60.1954C201.758 59.9682 201.863 59.7332 202.011 59.5441C202.581 58.707 203.217 57.9963 203.942 57.2888C203.979 57.2195 204.025 57.1769 204.098 57.1265C204.144 57.084 204.155 57.0225 204.139 56.9688C204.131 56.9419 204.123 56.9151 204.088 56.8961C203.311 56.2477 202.554 55.5647 201.869 54.8313C201.492 54.4456 201.168 54.0441 200.928 53.5308C200.869 53.4313 200.829 53.2971 200.798 53.1897C200.702 52.8676 200.695 52.5488 200.707 52.1953C200.947 50.346 202.288 48.4669 203.487 47.0959C205.309 45.164 207.294 43.3886 209.567 41.9956C209.713 41.8948 209.866 41.8209 210.011 41.7201L210.934 41.1882C211.704 40.7302 212.473 40.2722 213.285 39.8601C213.385 39.8018 213.492 39.7704 213.592 39.7122L214.205 39.4165C214.305 39.3583 214.412 39.3269 214.512 39.2687C215.639 38.7355 216.854 38.2056 218.064 37.8525L218.413 37.7505ZM210.246 42.9058C209.548 43.1098 206.941 45.154 206.292 45.7227C205.972 46.0205 205.643 46.2914 205.35 46.5813C203.793 48.0275 200.968 51.3024 201.589 53.3962C201.629 53.5304 201.696 53.6568 201.762 53.7831L202.067 54.2192C202.765 55.0947 203.619 55.8079 204.427 56.5637C204.505 56.6285 204.54 56.6475 204.594 56.6318C204.62 56.6239 204.674 56.6083 204.72 56.5657L205.706 55.753C206.397 55.2301 207.124 54.7263 207.875 54.303C208.028 54.2291 208.085 54.125 208.099 53.9751C208.215 52.891 208.339 51.8338 208.491 50.7688C208.524 50.5842 208.537 50.4343 208.57 50.2497L208.737 49.2383C209.007 47.2928 209.455 45.0619 210.208 43.2671C210.256 43.1362 210.34 43.0243 210.354 42.8744L210.246 42.9058ZM207.9 55.6666C207.152 56.0016 206.148 56.849 205.536 57.3483C205.445 57.4334 205.418 57.4412 205.434 57.4949C205.442 57.5217 205.485 57.5676 205.535 57.6403L205.57 57.6593C206.306 58.4654 206.988 59.2872 207.525 60.2098C207.559 60.2288 207.567 60.2556 207.621 60.2399C207.699 58.7297 207.803 57.2116 207.934 55.6856L207.9 55.6666ZM223.527 53.0296C223.473 53.0453 223.435 53.1146 223.416 53.1493L223.246 53.4615C223.235 53.5231 223.216 53.5578 223.178 53.6271C222.824 54.4015 222.197 55.6346 221.353 55.9394C220.412 56.214 219.635 55.8576 219.348 54.8913L219.327 54.7224C219.327 54.7224 219.319 54.6955 219.311 54.6687C219.077 53.1911 219.495 51.0564 219.889 49.6288L219.998 49.3054C220.03 49.1208 220.157 49.0547 220.318 49.0077L220.452 48.9684C220.718 48.9783 220.938 49.0308 221.155 49.1716C221.26 49.2286 221.303 49.2744 221.327 49.355C221.342 49.4086 221.339 49.497 221.31 49.5932C220.915 51.3129 220.441 53.2596 220.762 55.0325L220.786 55.113C220.826 55.2473 220.869 55.2931 220.923 55.2774C220.95 55.2696 220.995 55.227 221.041 55.1845C221.27 54.9718 221.437 54.748 221.631 54.5163C222.284 53.5673 223.536 51.1894 223.805 50.0314C223.855 49.6085 224.129 48.0702 224.613 47.9289C224.72 47.8975 224.862 47.8851 225.056 47.9454C225.206 47.9599 225.415 48.0739 225.455 48.2081C225.471 48.2618 225.487 48.3155 225.457 48.4117C225.443 48.5616 225.402 48.7193 225.361 48.8771C225.062 50.1313 224.639 52.1507 224.871 53.4248C224.892 53.5937 224.905 53.7357 224.952 53.8968L225.027 54.05C225.027 54.05 225.035 54.0768 225.043 54.1037C225.083 54.2379 225.126 54.2837 225.179 54.268C225.233 54.2524 225.279 54.2098 225.325 54.1673C226.032 53.6981 226.968 51.7332 227.25 51.0093C227.291 50.8515 227.393 50.7049 227.554 50.6578C227.635 50.6343 227.928 50.6363 227.96 50.7437C227.976 50.7974 227.938 50.8668 227.927 50.9283C227.617 51.9521 227.141 52.9077 226.596 53.8253C226.35 54.2763 225.946 54.686 225.435 54.8351C224.548 55.094 223.932 54.6905 223.669 53.8047C223.605 53.59 223.569 53.3674 223.532 53.1448L223.535 53.0564L223.527 53.0296ZM236.34 50.1639C236.302 50.2333 236.238 50.3105 236.208 50.4067L235.9 50.8466C235.843 50.9506 235.806 51.02 235.741 51.0972C234.834 52.4704 233.461 54.242 231.838 54.7744L231.757 54.7979C229.392 55.4884 228.038 54.0753 227.424 52.0083C226.929 50.1405 226.975 48.2309 227.207 46.3548C227.607 43.1753 229.412 37.544 232.298 36.1473C232.324 36.1394 232.351 36.1316 232.378 36.1237L232.505 36.0576C233.526 35.7595 234.516 36.1414 234.834 37.2152C234.935 37.6525 234.893 38.1022 234.843 38.5251C234.301 41.717 230.998 48.8941 228.5 50.1194C228.346 50.1933 228.351 50.3085 228.391 50.4428C228.459 51.0647 228.572 51.6441 228.747 52.2346C228.891 52.7178 229.053 53.1663 229.35 53.5756C229.486 53.7399 229.615 53.8774 229.77 54.0071C230.139 54.366 230.555 54.3903 231.012 54.2569L231.147 54.2177C232.927 53.5231 234.411 51.3397 235.377 49.7741L235.753 49.1687C235.92 48.9448 236.052 48.702 236.026 48.4179C235.761 46.5409 235.77 44.7007 235.948 42.8403C236.161 40.9988 237.281 35.4216 239.404 34.8017C240.049 34.6134 240.704 34.9475 240.903 35.6186L240.927 35.6991C241.046 36.1017 241.031 36.5436 241.008 36.9586C240.731 40.4524 238.885 45.4539 237.278 48.4026C237.202 48.5413 237.215 48.6834 237.228 48.8255C237.326 49.3512 237.45 49.869 237.601 50.3791L237.705 50.728C237.899 51.2839 238.085 51.8129 238.352 52.3184L238.504 52.5364C238.563 52.6359 238.571 52.6628 238.598 52.6549C238.625 52.6471 238.671 52.6045 238.716 52.562C238.762 52.5195 238.843 52.4959 238.923 52.4724C239.139 52.4096 239.466 52.4307 239.637 52.614L239.672 52.633C239.696 52.7136 239.677 52.7483 239.666 52.8098C239.558 53.1331 239.356 53.338 239.06 53.4243C237.528 53.8716 236.736 51.3025 236.426 50.2556C236.418 50.2287 236.41 50.2019 236.34 50.1639ZM233.777 36.9988C233.726 36.9261 233.694 36.8187 233.652 36.7729C233.577 36.6197 233.507 36.5817 233.4 36.6131L233.292 36.6445C233.085 36.7341 232.913 36.8427 232.749 36.9782C229.68 39.3325 228.176 45.7803 228.322 49.3253C228.303 49.3599 228.311 49.3868 228.319 49.4136C228.327 49.4405 228.335 49.4673 228.362 49.4595C228.397 49.4785 228.397 49.4785 228.424 49.4706C228.451 49.4628 228.47 49.4281 228.489 49.3934C228.653 49.2579 228.782 49.1035 228.912 48.949C231.109 46.4117 233.364 41.6113 233.853 38.4351C233.894 37.9854 233.909 37.5435 233.801 37.0793L233.777 36.9988ZM237.034 46.6945L237.204 46.3823C238.362 43.8859 240.758 37.79 240.073 35.4815C240.007 35.3551 239.964 35.3092 239.883 35.3328C239.856 35.3406 239.829 35.3485 239.784 35.391C239.638 35.4918 239.501 35.6194 239.39 35.7392C237.285 38.1914 236.719 43.6654 236.999 46.6755L237.034 46.6945ZM246.637 44.9119C247.12 44.7707 247.409 45.1531 247.529 45.5557L247.545 45.6094C247.6 45.7973 247.509 45.8824 247.363 45.9832C247.21 46.0571 247.076 46.0963 246.941 46.1356L246.753 46.1905C246.691 46.1793 246.638 46.195 246.584 46.2107C246.423 46.2578 246.288 46.297 246.127 46.3441L245.178 46.5919C245.044 46.6312 244.883 46.6782 244.721 46.7253L244.264 46.8587C243.431 47.102 242.579 47.3799 241.754 47.65L241.485 47.7285C241.324 47.7755 241.192 47.7264 241.072 47.6157C240.925 47.5129 240.85 47.3597 240.775 47.2065C240.712 46.9917 240.768 46.8877 240.975 46.798C241.228 46.6659 241.524 46.5796 241.812 46.4664C241.919 46.435 242.027 46.4036 242.099 46.3533L242.717 46.1728C242.817 46.1145 242.898 46.091 243.005 46.0596C243.785 45.8321 244.54 45.524 245.266 45.3121L246.637 44.9119ZM248.623 54.7745C247.198 55.1904 245.301 54.8984 244.696 53.3539L244.632 53.1392C243.987 50.9649 246.572 47.9642 248.096 46.7026C248.234 46.575 248.28 46.5324 248.264 46.4787C248.248 46.425 248.213 46.4061 248.189 46.3255C248.024 45.9654 247.858 45.6053 247.747 45.2295C247.285 43.6726 247.431 40.9172 249.286 40.3758C249.393 40.3444 249.474 40.3209 249.589 40.3163C249.928 40.2759 250.199 40.401 250.413 40.6302C250.49 40.695 250.506 40.7487 250.522 40.8024C250.546 40.8829 250.543 40.9713 250.452 41.0564L250.257 41.2881C250.177 41.3116 250.123 41.3273 250.042 41.3508L249.973 41.3128C249.946 41.3207 249.911 41.3017 249.884 41.3095C249.83 41.3252 249.819 41.3868 249.747 41.4371C248.763 42.4535 248.608 43.8989 248.998 45.2142L249.102 45.5632C249.169 45.6895 249.184 45.7432 249.238 45.7275C249.265 45.7197 249.311 45.6771 249.357 45.6346C250.679 44.5778 251.936 43.5982 253.469 42.859L253.515 42.8164C253.676 42.7694 253.781 42.8263 253.866 42.918C253.901 42.937 253.944 42.9829 253.952 43.0097C253.968 43.0634 253.93 43.1328 253.857 43.1831L253.612 43.3421C252.448 43.9447 251.4 44.7463 250.388 45.5669L249.594 46.2363C249.494 46.2945 249.475 46.3292 249.499 46.4098L249.531 46.5171C249.72 46.9578 249.955 47.3559 250.163 47.7618C250.606 48.5659 251.057 49.3968 251.312 50.2557C251.949 52.4032 250.746 54.1546 248.623 54.7745ZM247.639 54.2158C247.881 54.1452 248.115 54.0477 248.349 53.9502C249.85 53.1036 250.41 51.7441 249.978 50.091C249.691 49.1246 249.235 48.1785 248.742 47.3018C248.675 47.1754 248.659 47.1217 248.578 47.1453C248.551 47.1531 248.506 47.1957 248.46 47.2382L248.029 47.6557C246.755 48.8736 245.274 51.4642 245.682 53.3287L245.737 53.5166C246.024 54.483 246.859 54.4433 247.639 54.2158ZM254.186 36.1159C254.352 35.3965 254.491 34.685 254.784 33.8995C254.863 33.6724 255.06 33.3523 255.249 33.0054L255.276 32.9976C255.397 32.8163 255.508 32.6965 255.607 32.6383C255.914 32.4904 256.153 32.5082 256.413 32.6948C256.429 32.7485 256.429 32.7485 256.471 32.7944L256.46 32.8559C256.465 32.9711 256.47 33.0863 256.406 33.1636C256.258 33.8483 256.012 34.5912 255.792 35.3263C255.732 35.5188 255.621 35.6385 255.688 35.7649C255.696 35.7917 255.639 35.8958 255.612 35.9036C255.559 35.9193 255.505 35.935 255.47 35.916C255.381 35.9127 255.347 35.8937 255.32 35.9016C255.293 35.9094 255.236 36.0135 255.225 36.075C255.141 36.4789 255.034 37.0059 254.943 37.5865C255.87 37.4618 256.754 37.2912 257.287 37.0191C257.623 36.775 258.006 36.4884 257.986 36.0275C257.978 36.0007 257.962 35.947 257.973 35.8855C257.976 35.7971 258.04 35.7198 258.121 35.6963C258.148 35.6885 258.202 35.6728 258.237 35.6918C258.51 35.7285 258.77 35.9152 258.93 36.1601C258.965 36.1791 258.981 36.2327 258.989 36.2596C259.013 36.3401 258.983 36.4363 258.988 36.5516C258.771 37.1983 258.085 37.5444 257.491 37.8054C257.203 37.9185 256.9 37.978 256.631 38.0565L256.443 38.1114C256.255 38.1663 255.443 38.2865 254.847 38.3439C254.522 40.8891 254.357 44.1747 254.75 45.6936C254.906 46.3188 255.224 46.897 255.449 47.0646C255.526 47.1295 255.561 47.1485 255.642 47.1249C255.669 47.1171 255.696 47.1092 255.741 47.0667C255.94 46.9502 256.07 46.7958 256.191 46.6145C256.237 46.572 256.275 46.5026 256.305 46.4064C256.343 46.337 256.415 46.2866 256.523 46.2552L256.603 46.2317C256.808 46.2304 256.985 46.237 257.159 46.332C257.221 46.3432 257.237 46.3968 257.245 46.4237C257.26 46.4774 257.242 46.5121 257.223 46.5468C257.106 46.8433 256.947 47.0939 256.664 47.3223C256.519 47.4231 256.347 47.5317 256.185 47.5788C255.648 47.7357 254.819 47.5986 254.433 47.1861C253.997 46.7008 253.742 45.8419 253.64 45.2009C253.361 43.4739 253.521 40.5686 253.797 38.4463C253.297 38.5339 252.687 38.7412 252.6 38.9415C252.645 39.1909 252.524 39.3722 252.282 39.4429C251.951 39.5102 251.519 39.4321 251.4 39.0295C251.153 38.1973 252.16 38.0491 252.321 38.002C252.786 37.8954 253.313 37.8 253.901 37.7158C253.967 37.3466 254.014 37.0121 254.076 36.7313C254.12 36.4851 254.18 36.2927 254.186 36.1159ZM261.811 40.8904C261.738 40.9408 261.727 41.0023 261.67 41.1064C261.3 41.827 260.911 42.5824 260.444 43.2729C260.19 43.697 259.92 44.0674 259.627 44.3573C259.47 44.5196 259.352 44.6126 259.188 44.748C259.061 44.8141 258.935 44.8802 258.854 44.9037C258.559 44.99 258.25 44.9343 257.936 44.7633C257.553 44.5544 257.315 44.2446 257.204 43.8688C257.148 43.6809 257.097 43.6082 257.122 43.3968C257.078 42.8554 257.177 42.3016 257.345 41.7858C257.76 40.527 258.408 39.4628 259.359 38.6311C259.679 38.3333 260.05 38.1082 260.446 37.9637L260.553 37.9323C260.929 37.8224 261.319 37.8547 261.74 37.9942C261.767 37.9864 261.767 37.9864 261.801 38.0054L261.871 38.0434C261.898 38.0355 261.898 38.0355 261.933 38.0545L262.056 38.0768C262.083 38.069 262.102 38.0343 262.113 37.9728C262.201 37.4805 262.133 37.6461 262.268 37.3149C262.328 37.1224 262.412 37.0105 262.519 36.9791C262.6 36.9556 262.758 36.9969 262.932 37.0919C263.002 37.1299 263.045 37.1757 263.08 37.1947C263.2 37.3054 263.278 37.3702 263.302 37.4507C263.334 37.5581 263.331 37.6465 263.282 37.7774C263.252 37.8736 263.222 37.9699 263.211 38.0314L263.148 38.3122C263.129 38.3469 263.108 38.47 263.067 38.6277C263.045 38.7508 263.05 38.866 263.082 38.9734L263.122 39.1076C263.145 39.1881 263.196 39.2608 263.228 39.3682C263.316 39.6635 263.323 39.9823 263.206 40.2788C263.203 40.3672 263.154 40.4981 263.106 40.629C263.076 40.7252 263.038 40.7946 262.957 40.8181L262.904 40.8338C262.877 40.8417 262.869 40.8148 262.842 40.8227C262.815 40.8305 262.796 40.8652 262.793 40.9536L262.881 42.0364C262.878 42.1248 262.918 42.259 262.965 42.42C263.005 42.5543 263.029 42.6348 263.072 42.6806C263.181 42.8528 263.313 42.902 263.482 42.8817L263.643 42.8347C263.751 42.8033 263.877 42.7372 264.004 42.6711C264.268 42.4774 264.542 42.2222 264.809 41.9402C265.399 41.272 265.912 40.5389 266.25 39.7109L266.397 39.3182C266.427 39.2219 266.472 39.1794 266.526 39.1637C266.553 39.1559 266.588 39.1749 266.676 39.1782C266.835 39.2195 266.912 39.2843 266.944 39.3917C266.968 39.4722 266.965 39.5606 266.935 39.6568C266.791 40.2531 266.518 40.712 266.235 41.2323C265.897 41.7683 265.498 42.2932 265.056 42.7723C264.743 43.0969 264.415 43.3678 264.066 43.4698C263.716 43.5718 263.346 43.5049 262.989 43.2881C262.52 42.9875 262.205 42.6129 262.054 42.1029L261.998 41.915C261.91 41.6197 261.857 41.3434 261.85 41.0246L261.811 40.8904ZM261.836 38.8119C261.82 38.7582 261.786 38.7392 261.732 38.7549C261.697 38.7359 261.643 38.7516 261.589 38.7673C261.186 38.885 260.861 39.0676 260.567 39.3575C259.762 40.0884 259.147 40.9681 258.722 41.9964C258.473 42.5357 258.32 43.1052 258.265 43.7049C258.262 43.7932 258.232 43.8895 258.256 43.97C258.28 44.0505 258.315 44.0695 258.395 44.046C258.476 44.0224 258.541 43.9452 258.613 43.8948C258.977 43.6429 259.235 43.334 259.486 42.9982C259.821 42.5506 260.155 42.1029 260.439 41.5826C260.973 40.7265 261.384 39.8481 261.78 38.916L261.836 38.8119ZM269.7 41.2122C271.286 40.7493 272.896 38.7918 273.722 37.4422C273.824 37.2956 273.865 37.1378 273.941 36.9991C273.998 36.895 274.089 36.8099 274.17 36.7864C274.331 36.7393 274.524 36.7996 274.618 36.9181L274.634 36.9718C274.65 37.0255 274.639 37.087 274.62 37.1217C274.03 38.5774 272.903 39.8981 271.715 40.9157C271.233 41.2605 270.736 41.5517 270.198 41.7086C268.774 42.1245 266.778 41.5988 266.316 40.0419C265.766 38.1897 267.229 35.0499 269.084 34.5085C269.568 34.3672 270.088 34.4486 270.552 34.634C270.595 34.6798 270.665 34.7178 270.745 34.6943C270.745 34.6943 270.772 34.6864 270.791 34.6518L270.845 34.6361C271.06 34.5733 271.443 34.7822 271.534 34.9891C271.558 35.0697 271.547 35.1312 271.509 35.2006C271.403 35.4356 271.352 35.6549 271.37 35.9121C271.392 36.2846 271.319 36.627 271.218 36.9772C271.151 37.1428 271.067 37.2547 270.959 37.2861C270.879 37.3096 270.755 37.2873 270.632 37.265C270.535 37.2349 270.439 37.2048 270.361 37.1399C270.214 37.0371 270.12 36.9186 270.08 36.7843C270.064 36.7307 270.041 36.6501 270.051 36.5886C270.087 36.3156 270.177 36.027 270.266 35.7383C270.296 35.6421 270.353 35.538 270.375 35.4149C270.386 35.3534 270.397 35.2919 270.381 35.2382C270.349 35.1308 270.253 35.1007 270.091 35.1477L269.93 35.1948C269.769 35.2419 269.615 35.3158 269.489 35.3819C269.099 35.6417 268.794 35.9931 268.49 36.3446C267.775 37.2824 267.055 38.8926 267.414 40.1005C267.669 40.9595 268.142 41.3754 269.093 41.3312C269.316 41.2953 269.539 41.2593 269.7 41.2122ZM275.889 37.3347C275.715 37.7353 275.542 38.1359 275.388 38.5018C275.158 39.0064 275.078 39.5255 274.999 40.0446C274.974 40.2561 274.917 40.3601 274.756 40.4072C274.729 40.4151 274.667 40.4039 274.613 40.4196C274.329 40.4444 274.009 40.4502 273.914 40.1281L273.89 40.0475C273.84 39.6829 273.817 39.3104 273.821 38.93C273.716 34.9353 274.752 23.9573 278.451 22.644L278.559 22.6126C279.177 22.4321 280.019 22.7113 280.382 23.2469C280.468 23.3386 280.5 23.446 280.54 23.5802C280.572 23.6876 280.603 23.7949 280.59 23.9448C280.612 24.3173 280.547 24.6865 280.419 25.0446C280.167 25.9643 279.721 26.8237 279.24 27.6641C278.74 28.5392 276.616 31.8137 275.675 32.0883C275.568 32.1197 275.573 32.2349 275.543 32.3311C275.485 32.7272 275.435 33.15 275.359 33.5808C275.209 34.8494 275.06 36.1181 275.008 37.4169C275.005 37.5053 275.002 37.5936 275.033 37.701C275.052 37.6663 275.071 37.6316 275.063 37.6048L275.158 37.4313C275.177 37.3966 275.169 37.3698 275.188 37.3351C275.752 35.5953 277.057 33.2017 278.374 32.0296C278.492 31.9367 278.592 31.8785 278.7 31.8471C278.915 31.7843 279.135 31.8368 279.394 32.0234C279.499 32.0804 279.55 32.1531 279.582 32.2605C279.637 32.4484 279.491 32.8411 279.388 32.9877C278.797 33.9479 278.136 34.87 277.475 35.7922C277.308 36.0161 277.122 36.2746 276.963 36.5253C276.803 36.7759 276.775 37.0758 276.855 37.3442L276.887 37.4516C277.022 37.9079 277.392 38.2668 277.764 38.5372C278.086 38.7351 278.421 38.783 278.771 38.681C278.878 38.6496 279.004 38.5835 279.131 38.5174C279.984 37.9475 280.74 36.0643 281.046 35.1289C281.095 34.998 281.114 34.9633 281.194 34.9398C281.221 34.932 281.275 34.9163 281.337 34.9274C281.487 34.9419 281.557 34.9799 281.581 35.0604C281.589 35.0872 281.578 35.1488 281.575 35.2371C281.479 35.7026 281.287 36.1378 281.095 36.5731C280.746 37.4627 280.161 38.7416 279.167 39.032C279.059 39.0634 278.925 39.1026 278.809 39.1071C277.676 39.3215 276.564 38.6252 276.065 37.6333C276.057 37.6064 276.057 37.6064 276.049 37.5796L275.99 37.4801C275.982 37.4532 275.982 37.4532 275.974 37.4264C275.966 37.3995 275.931 37.3805 275.889 37.3347ZM275.745 31.3387C275.799 31.3231 275.836 31.2537 275.855 31.219C277.268 29.5815 280.134 25.3613 279.576 23.4823L279.552 23.4018C279.52 23.2944 279.451 23.2564 279.343 23.2878L279.263 23.3114C279.037 23.4357 278.864 23.5443 278.681 23.7144C276.939 25.1272 276.093 29.1661 275.713 31.2314L275.745 31.3387Z" fill="#238CFF"/>
<path d="M156.364 117H1007.12L907.777 674.535H105.022C78.5126 674.535 60.792 653.378 65.4423 627.279L156.364 117Z" fill="#EEEEEE"/>
<path d="M232.997 218.219C241.888 193.245 270.587 173 297.097 173H1057.56C1084.07 173 1098.35 193.245 1089.46 218.219L943.221 628.962C934.329 653.936 905.631 674.182 879.121 674.182H118.656C92.1466 674.182 77.8644 653.936 86.7561 628.962L232.997 218.219Z" fill="#FFE06B"/>
<path d="M169.341 613.873C169.469 613.873 169.597 613.873 169.661 613.873L170.387 613.813C172.883 613.813 175.165 614.235 177.339 614.777C180.025 615.682 183.542 617.129 182.276 620.686L182.168 620.987C181.933 621.47 181.654 621.892 181.227 622.374C180.863 622.856 179.9 624.123 179.196 624.123C179.068 624.123 178.94 624.123 178.834 624.062C178.322 623.701 178.004 623.158 178.069 622.434L178.112 622.314C178.177 622.133 178.326 621.892 178.519 621.711C179.181 621.108 180.187 619.902 180.466 619.118C180.809 618.154 177.781 617.49 177.078 617.31C176.033 617.008 174.86 616.888 173.709 616.707C173.303 616.586 172.855 616.586 172.429 616.526C171.362 616.465 170.36 616.405 169.336 616.405C168.632 616.405 167.992 616.405 167.33 616.465C165.389 616.526 163.426 616.646 161.42 616.888C160.353 617.008 159.201 617.189 158.155 617.249C156.299 617.43 154.485 617.852 152.671 618.093L151.07 618.455C150.942 618.455 150.857 618.515 150.835 618.576C150.814 618.636 150.792 618.696 150.835 618.757C150.962 618.937 150.94 619.179 150.876 619.36C150.79 619.601 150.576 619.842 150.277 620.143C149.978 620.445 149.614 620.746 149.315 621.048L147.412 622.796C147.113 623.098 146.814 623.399 146.45 623.701C145.98 624.123 145.467 624.484 144.933 624.726C144.848 624.786 144.677 624.906 144.613 624.906H144.421C144.101 624.906 143.951 625.148 143.737 625.389C141.364 627.74 139.161 630.152 137.044 632.684C136.488 633.347 130.52 640.402 130.477 640.522C130.413 640.703 130.455 640.763 130.647 640.763C130.647 640.763 130.647 640.763 130.775 640.763L130.989 640.703C133.55 640.341 135.961 640.04 138.329 640.04H139.033C139.779 640.1 140.526 640.16 141.144 640.402C142.594 640.824 143.274 641.788 143.122 643.296C143.121 643.477 143.057 643.657 142.971 643.899C142.885 644.14 142.799 644.381 142.586 644.622C142.457 644.803 142.286 644.924 142.094 644.924C142.03 644.924 141.966 644.924 141.86 644.863C141.306 644.622 141.051 643.899 141.309 643.175L141.438 642.813C141.502 642.632 141.459 642.572 141.161 642.512C140.756 642.391 140.393 642.331 139.945 642.331H138.729C135.465 642.331 132.029 642.813 128.657 643.477C128.252 643.537 127.932 643.718 127.653 644.14C125.749 646.612 115.073 660.6 114.558 662.047C113.635 664.458 111.62 668.679 109.738 670.91C109.31 671.392 108.969 671.633 108.521 671.633C108.393 671.633 108.222 671.573 108.051 671.513C107.753 671.452 107.497 671.271 107.306 671.091C106.859 670.729 106.86 670.186 107.01 669.583L107.139 669.221C107.44 668.377 107.847 667.594 108.339 666.749C109.774 664.157 111.465 661.564 113.199 659.032C113.477 658.61 113.777 658.128 114.119 657.706C114.333 657.464 114.419 657.223 114.526 656.922C114.612 656.681 114.698 656.439 114.72 656.198C115.451 653.425 115.478 650.832 115.164 648.3L114.996 647.335C115.017 647.275 114.953 647.275 114.889 647.275C114.185 647.275 109.017 649.747 108.12 650.29C107.564 650.591 107.073 650.893 106.56 651.254C106.411 651.315 106.325 651.375 106.282 651.495L106.261 651.556C106.218 651.676 106.41 651.676 106.516 651.737C107.007 651.797 107.241 652.038 107.432 652.4C107.453 652.52 107.41 652.641 107.368 652.762L107.325 652.882C107.132 653.063 106.94 653.063 106.748 653.063C105.725 652.882 104.979 652.46 104.639 651.616C104.597 651.375 104.555 651.134 104.641 650.893C104.727 650.651 104.941 650.41 105.155 650.169C105.625 649.747 106.159 649.325 106.714 649.023C109 647.637 111.243 646.551 113.656 645.526C113.826 645.406 113.976 645.346 114.189 645.285C114.339 645.225 114.446 645.104 114.489 644.984C114.51 644.924 114.532 644.863 114.489 644.803C113.853 642.994 113.303 641.125 112.965 639.196C112.754 638.171 112.671 637.146 112.909 635.94C112.931 635.699 113.038 635.397 113.124 635.156C113.381 634.433 113.809 633.769 114.323 633.046C117.361 629.368 122.615 626.293 126.887 624.183C133.165 621.289 139.549 618.817 145.974 617.31C146.401 617.189 146.806 617.129 147.233 617.008L149.794 616.465C151.95 615.983 154.106 615.501 156.283 615.139C156.56 615.079 156.816 615.079 157.094 615.018L158.715 614.777C158.993 614.717 159.249 614.717 159.526 614.657C162.493 614.235 165.629 613.873 168.509 613.873H169.341ZM146.054 619.601C144.39 619.601 136.406 622.254 134.335 623.037C133.288 623.459 132.263 623.821 131.281 624.243C126.199 626.293 116.076 631.358 114.402 636.061C114.294 636.362 114.251 636.663 114.208 636.965L114.205 638.05C114.371 640.281 115.071 642.271 115.621 644.321C115.684 644.502 115.727 644.562 115.855 644.562C115.919 644.562 116.047 644.562 116.196 644.502L119.271 643.416C121.363 642.753 123.498 642.15 125.568 641.728C125.973 641.668 126.23 641.487 126.465 641.185C128.198 639.015 129.909 636.905 131.685 634.794C132.005 634.433 132.241 634.131 132.561 633.769L134.294 631.78C137.524 627.921 141.501 623.58 145.477 620.324C145.754 620.083 146.075 619.902 146.31 619.601H146.054ZM123.727 644.562C121.785 644.803 118.625 645.949 116.725 646.612C116.426 646.732 116.362 646.732 116.319 646.853C116.298 646.913 116.319 647.034 116.318 647.215L116.361 647.275C116.698 649.385 116.906 651.495 116.688 653.726C116.731 653.787 116.709 653.847 116.837 653.847C119.084 650.772 121.395 647.697 123.77 644.622L123.727 644.562ZM162.204 648.059C161.884 648.059 161.713 648.179 161.457 648.36C159.02 650.712 155.089 653.304 152.017 653.304C149.457 653.304 147.754 651.435 148.634 648.963C149.193 647.396 151.376 643.959 152.935 643.175C153.341 642.934 153.683 642.874 154.067 642.874C154.835 642.874 155.452 643.296 155.515 644.019L155.536 644.14C155.45 644.381 155.193 644.562 155.001 644.743L153.975 645.466C153.719 645.647 153.441 645.888 153.227 646.129C152.265 647.396 151.387 648.601 150.893 649.988C150.765 650.35 150.764 650.712 150.763 651.073C150.677 651.495 150.954 651.616 151.338 651.616H151.978C154.325 651.315 157.252 649.566 159.239 647.938C159.346 647.818 159.432 647.757 159.453 647.697C159.475 647.637 159.432 647.576 159.262 647.516C156.938 646.853 155.129 644.743 156.095 642.03C156.31 641.427 156.652 640.824 157.166 640.281C158.278 638.955 159.773 638.171 161.374 637.809C161.715 637.749 162.057 637.688 162.377 637.688C165.129 637.688 166.382 640.1 165.502 642.572C165.03 643.899 164.216 645.104 163.339 646.31C163.232 646.431 163.125 646.551 163.104 646.612C163.061 646.732 163.189 646.732 163.445 646.732H163.957C164.789 646.732 165.664 646.612 166.475 646.491C167.307 646.31 168.097 646.069 168.93 645.707C169.079 645.647 169.229 645.587 169.421 645.587C169.869 645.587 170.273 645.888 170.251 646.31L170.208 646.431C170.144 646.612 170.058 646.672 169.909 646.732C169.503 646.973 169.054 647.154 168.691 647.275C167.282 647.818 165.852 648.059 164.636 648.059H162.204ZM164.074 641.728C164.332 641.005 164.419 640.402 164.313 639.98C164.186 639.618 164.037 639.316 163.525 639.316H163.141C163.013 639.316 162.949 639.316 162.8 639.377C161.605 639.497 160.473 639.98 159.468 641.005C159.04 641.487 158.719 642.03 158.526 642.572C158.376 642.994 158.289 643.416 158.267 643.838C158.307 645.165 158.923 646.129 160.331 646.491H160.459C160.715 646.491 160.885 646.371 161.078 646.19L161.719 645.466C162.703 644.321 163.538 643.054 164.074 641.728ZM167.902 647.697C170.178 641.306 176.254 633.408 181.876 628.223C185.553 624.726 192.883 618.877 197.875 618.877C200.179 618.877 201.925 620.445 201.109 622.736C201.045 622.917 200.981 623.098 200.831 623.339C198.688 627.378 192.918 632.262 189.071 635.156C184.926 638.352 176.251 644.381 172.024 645.466C171.726 645.587 171.619 645.707 171.447 646.009C170.976 646.973 170.547 647.998 170.182 649.023L169.946 649.687C169.409 651.375 168.674 655.595 171.106 655.595C171.234 655.595 171.384 655.535 171.576 655.535C173.112 655.173 174.865 653.847 176.126 652.822C176.489 652.52 176.788 652.4 177.044 652.4C177.172 652.4 177.342 652.46 177.577 652.52C177.854 652.641 178.451 652.942 178.3 653.365C178.279 653.425 178.172 653.545 178.001 653.666C176.227 655.234 173.748 657.163 171.508 657.163C170.868 657.163 170.228 656.982 169.674 656.741C166.286 655.113 166.571 651.435 167.902 647.697ZM172.497 644.14C172.753 644.14 172.924 644.019 173.159 643.899L174.568 643.175C182.236 638.894 194.267 629.911 198.527 623.339C198.741 622.917 198.977 622.434 199.148 621.952L199.32 621.47C199.492 620.987 199.407 620.867 198.895 620.867H198.447C196.975 620.867 194.626 621.892 193.195 622.676C184.971 627.258 177.529 635.578 173.14 642.874C172.947 643.235 172.668 643.657 172.497 644.14ZM194.361 645.285C193.549 645.949 192.759 646.551 192.032 647.154C189.959 648.843 184.296 653.244 181.736 653.244C180.008 653.244 178.838 651.857 179.31 650.35C179.503 649.807 179.825 649.265 180.188 648.782C182.928 644.863 189.766 639.497 194.246 639.497C195.334 639.497 196.251 639.799 196.975 640.462C197.124 640.582 197.209 640.703 197.337 640.703C197.401 640.703 197.508 640.582 197.764 640.402C197.978 640.16 198.192 639.919 198.342 639.678C202.342 634.553 206.748 629.73 211.643 625.148C213.075 623.821 218.27 619.118 220.19 619.118C220.446 619.118 220.68 619.179 220.872 619.36C221.234 619.782 221.382 620.264 221.189 620.807C221.124 620.987 220.975 621.229 220.846 621.409C220.418 622.073 219.819 622.676 219.199 623.339C216.933 625.57 214.56 627.74 212.187 629.911C208.831 632.865 205.476 635.819 202.056 638.774C201.863 638.955 201.585 639.196 201.436 639.437C197.884 644.019 194.46 648.963 192.7 653.907L192.528 654.57C192.506 654.631 192.463 654.751 192.42 654.872C192.312 655.354 192.205 655.836 192.161 656.319C192.161 656.5 192.203 656.56 192.267 656.56C192.331 656.56 192.395 656.56 192.481 656.5C192.865 656.319 193.1 656.198 193.356 656.198C193.484 656.198 193.548 656.198 193.654 656.259C194.102 656.439 194.4 656.681 194.484 657.163C194.527 657.223 194.484 657.344 194.463 657.404C194.42 657.525 194.398 657.585 194.227 657.706C194.163 657.706 194.078 657.766 193.992 657.826C193.266 658.248 192.668 658.489 192.156 658.489C191.708 658.489 191.282 658.248 190.835 657.886C189.835 656.741 190.095 654.932 190.61 653.304C190.718 652.822 190.89 652.34 191.062 651.857C191.77 649.868 192.798 647.878 193.997 645.949C194.126 645.768 194.254 645.587 194.361 645.285ZM208.43 631.297C211.636 628.584 214.735 625.811 217.686 622.736C216.554 623.218 211.06 628.403 208.43 631.297ZM181.741 651.073C181.698 651.194 181.676 651.254 181.804 651.254C181.868 651.254 181.932 651.254 182.018 651.194C182.594 651.013 183.192 650.772 183.747 650.47C186.822 649.023 189.921 646.612 192.592 644.502C193.725 643.657 194.815 642.753 195.883 641.909C196.054 641.788 196.097 641.668 196.119 641.607C196.248 641.246 195.779 641.125 195.459 641.125C192.835 641.125 189.224 643.537 187.108 645.346C185.868 646.31 182.256 649.626 181.784 650.953L181.741 651.073ZM205.687 651.917C209.271 651.917 215.785 648.36 218.947 646.129C219.311 645.828 219.546 645.707 219.802 645.707C219.93 645.707 220.1 645.768 220.313 645.888C220.59 646.009 220.675 646.129 220.632 646.25C220.568 646.431 220.461 646.551 220.205 646.732C216.55 649.807 209.46 653.184 205.428 653.184C202.292 653.184 199.607 651.556 200.062 648.481C200.084 648.24 200.17 647.998 200.256 647.757C200.385 647.396 200.599 646.973 200.813 646.551C203.425 642.271 208.96 637.869 213.952 637.869C215.147 637.93 216.085 638.352 216.765 639.135C217.106 639.618 217.211 640.221 216.975 640.884C215.773 644.26 208.405 647.878 205.205 647.878C204.565 647.878 203.946 647.818 203.371 647.637C203.264 647.576 203.136 647.576 203.072 647.576C202.88 647.576 202.837 647.697 202.751 647.938L202.515 648.601C201.85 650.47 202.487 651.737 204.471 651.917H205.687ZM204.525 646.732C204.845 646.732 205.165 646.732 205.506 646.672C208.729 645.888 213.3 643.477 214.907 640.402L214.971 640.221C215.164 639.678 214.93 639.618 214.482 639.618C210.812 639.859 206.367 643.175 203.993 646.069C203.886 646.19 203.8 646.25 203.779 646.31L203.715 646.491C203.672 646.612 203.714 646.672 203.885 646.732H204.525ZM219.624 649.687C220.095 649.265 220.522 648.782 221.014 648.3C224.201 644.743 228.819 639.859 233.07 637.447C233.454 637.266 233.817 637.146 234.137 637.146C235.033 637.146 235.65 638.11 235.648 638.834C235.669 639.316 235.625 639.799 235.709 640.281C235.687 640.703 235.75 640.884 236.006 640.884C236.198 640.884 237.031 640.522 237.16 640.341C237.416 640.16 237.629 640.1 237.757 640.1C237.949 640.1 238.12 640.16 238.205 640.281C238.674 640.582 238.844 640.824 238.758 641.065C238.672 641.306 238.394 641.547 237.967 641.849C237.39 642.21 236.814 642.391 236.238 642.391C235.982 642.391 235.726 642.391 235.513 642.271C234.191 641.668 233.746 640.582 234.026 639.075C234.027 638.894 233.984 638.834 233.92 638.834C233.856 638.834 233.771 638.894 233.621 638.955C233.237 639.135 232.831 639.377 232.425 639.618C228.772 641.969 224.688 646.25 222.078 649.445C221.329 650.47 220.452 651.495 219.554 652.4L219.234 652.762C219.148 652.822 219.127 652.882 219.041 652.942C218.571 653.365 218.122 653.545 217.61 653.545C217.482 653.545 217.376 653.485 217.184 653.485C215.947 653.184 215.586 652.4 216.037 651.134L216.144 650.832C216.381 650.169 216.766 649.445 217.173 648.843C218.993 645.707 221.197 642.753 223.87 639.919C224.341 639.316 225.303 638.412 226.135 638.412C226.775 638.412 227.307 638.894 227.455 639.377C227.498 639.437 227.455 639.558 227.412 639.678C227.369 639.799 227.347 639.859 227.176 639.98C224.954 641.547 221.166 646.973 219.924 649.204C219.817 649.325 219.689 649.506 219.624 649.687Z" fill="#238CFF"/>
<path d="M363.015 302.862L352.969 310.306L347.106 326.794H327.506L350.957 260.839H370.557L360.808 288.258L397.657 260.839H419.457L380.471 290.048L397.506 326.794H374.506L363.015 302.862ZM492.752 260.839L469.301 326.794H449.501L458.647 301.072H431.647L422.501 326.794H402.701L426.152 260.839H445.952L437.141 285.62H464.141L472.952 260.839H492.752ZM539.887 259.52C546.487 259.52 551.841 260.777 555.947 263.289C560.143 265.739 562.759 269.351 563.795 274.125C564.92 278.836 564.298 284.52 561.931 291.179L549.268 326.794H529.468L534.66 312.19H507.36L502.168 326.794H482.668L495.331 291.179C497.698 284.52 501.086 278.836 505.495 274.125C509.992 269.351 515.176 265.739 521.047 263.289C527.007 260.777 533.287 259.52 539.887 259.52ZM539.786 297.774L542.7 289.577C544.42 284.74 544.482 281.097 542.887 278.647C541.291 276.198 538.426 274.973 534.293 274.973C530.093 274.973 526.324 276.198 522.987 278.647C519.649 281.097 517.12 284.74 515.4 289.577L512.486 297.774H539.786ZM626.382 259.52C634.715 259.52 640.288 262.033 643.102 267.058C645.937 272.02 645.714 279.118 642.431 288.352L628.762 326.794H608.962L622.43 288.917C624.082 284.269 624.188 280.783 622.748 278.459C621.375 276.135 618.688 274.973 614.688 274.973C610.554 274.973 606.774 276.229 603.348 278.742C599.943 281.191 597.359 284.897 595.595 289.86L582.462 326.794H562.662L586.113 260.839H605.313L602.633 268.377C609.465 262.473 617.382 259.52 626.382 259.52ZM732.205 260.839L708.754 326.794H688.954L698.1 301.072H671.1L661.954 326.794H642.154L665.605 260.839H685.405L676.594 285.62H703.594L712.405 260.839H732.205ZM786.44 259.52C794.774 259.52 800.347 262.033 803.16 267.058C805.996 272.02 805.772 279.118 802.489 288.352L788.821 326.794H769.021L782.488 288.917C784.141 284.269 784.247 280.783 782.807 278.459C781.433 276.135 778.746 274.973 774.746 274.973C770.613 274.973 766.833 276.229 763.406 278.742C760.002 281.191 757.418 284.897 755.653 289.86L742.521 326.794H722.721L746.171 260.839H765.371L762.691 268.377C769.524 262.473 777.44 259.52 786.44 259.52ZM837.722 302.862L827.676 310.306L821.813 326.794H802.213L825.664 260.839H845.264L835.515 288.258L872.364 260.839H894.164L855.178 290.048L872.213 326.794H849.213L837.722 302.862ZM960.795 293.817C958.829 299.345 955.787 304.433 951.667 309.081C947.637 313.666 942.863 317.529 937.347 320.67C931.919 323.748 926.126 325.884 919.969 327.077L915.547 339.514H895.747L900.169 327.077C894.86 325.884 890.552 323.748 887.247 320.67C884.03 317.529 882.004 313.666 881.167 309.081C880.42 304.433 881.029 299.345 882.995 293.817C885.317 287.284 889.072 281.411 894.259 276.198C899.513 270.984 905.598 266.901 912.514 263.949C919.497 260.996 926.689 259.52 934.089 259.52C941.489 259.52 947.597 260.996 952.414 263.949C957.298 266.901 960.48 270.984 961.959 276.198C963.505 281.411 963.117 287.284 960.795 293.817ZM915.194 312.661C918.728 312.661 922.207 311.876 925.632 310.306C929.057 308.735 932.105 306.537 934.777 303.71C937.471 300.821 939.477 297.523 940.795 293.817C942.112 290.111 942.44 286.845 941.779 284.018C941.139 281.128 939.666 278.899 937.357 277.328C935.049 275.758 932.128 274.973 928.595 274.973C925.061 274.973 921.582 275.758 918.157 277.328C914.732 278.899 911.673 281.128 908.979 284.018C906.307 286.845 904.312 290.111 902.995 293.817C901.677 297.523 901.338 300.821 901.977 303.71C902.639 306.537 904.124 308.735 906.432 310.306C908.74 311.876 911.661 312.661 915.194 312.661Z" fill="#FBC329"/>
<path d="M334.989 525.325C332.708 518.465 331.895 510.513 332.551 501.468C333.288 492.423 335.491 482.737 339.163 472.41C342.835 462.083 347.519 452.397 353.215 443.352C359.018 434.231 365.485 426.279 372.617 419.495H386.897C379.123 427.636 372.534 436.04 367.132 444.709C361.837 453.302 357.434 462.536 353.923 472.41C350.412 482.284 348.236 491.556 347.394 500.224C346.658 508.817 347.283 517.184 349.269 525.325H334.989ZM495.037 411.354H480.877L468.986 395.525H488.546L495.037 411.354ZM593.61 449.345L550.924 497.511L542.49 449.345H593.61ZM556.07 483.038L580.718 455.902H550.718L556.07 483.038ZM656.816 419.269H674.456L648.069 434.759H635.109L656.816 419.269ZM651.581 525.325C659.355 517.184 665.944 508.779 671.346 500.111C676.748 491.443 681.191 482.209 684.675 472.41C688.159 462.611 690.282 453.377 691.044 444.709C691.806 436.04 691.195 427.636 689.209 419.495H703.489C705.824 426.204 706.61 434.118 705.847 443.239C705.191 452.284 703.013 462.008 699.315 472.41C695.616 482.812 690.879 492.536 685.103 501.581C679.434 510.551 673.02 518.465 665.861 525.325H651.581ZM742.859 503.39L750.296 482.473C744.643 482.397 739.924 481.606 736.14 480.098C732.436 478.591 729.68 476.443 727.872 473.654C726.09 470.789 725.189 467.36 725.17 463.365C725.257 459.294 726.212 454.696 728.034 449.571L737.602 422.661H752.362L742.593 450.136C740.744 455.337 740.043 459.445 740.491 462.46C741.046 465.4 742.536 467.51 744.96 468.792C747.491 469.998 750.677 470.601 754.517 470.601L771.562 422.661H785.722L768.677 470.601C772.277 470.601 775.731 469.998 779.04 468.792C782.349 467.586 785.366 465.513 788.091 462.573C790.843 459.558 793.131 455.488 794.953 450.362L804.802 422.661H819.562L810.035 449.458C807.569 456.392 804.185 462.309 799.883 467.209C795.661 472.108 790.561 475.877 784.583 478.516C778.632 481.078 771.923 482.397 764.456 482.473L757.019 503.39H742.859Z" fill="#FBC329"/>
</svg>
