<svg width="1200" height="800" viewBox="0 0 1200 800" fill="none" xmlns="http://www.w3.org/2000/svg">
<g clip-path="url(#clip0_43_120)">
<path d="M284.997 353.219C293.888 328.245 322.587 308 349.097 308H1109.56C1136.07 308 1150.35 328.245 1141.46 353.219L979.121 809.182H122.656L284.997 353.219Z" fill="#FFE06B"/>
<path d="M415.015 437.862L404.968 445.306L399.106 461.794H379.506L402.956 395.839H422.556L412.808 423.258L449.656 395.839H471.456L432.471 425.048L449.506 461.794H426.506L415.015 437.862ZM544.752 395.839L521.301 461.794H501.501L510.647 436.072H483.647L474.501 461.794H454.701L478.152 395.839H497.952L489.141 420.62H516.141L524.952 395.839H544.752ZM591.887 394.52C598.487 394.52 603.841 395.777 607.947 398.289C612.143 400.739 614.759 404.351 615.795 409.125C616.919 413.836 616.298 419.52 613.931 426.179L601.267 461.794H581.467L586.66 447.19H559.36L554.167 461.794H534.667L547.331 426.179C549.698 419.52 553.086 413.836 557.495 409.125C561.992 404.351 567.176 400.739 573.047 398.289C579.007 395.777 585.287 394.52 591.887 394.52ZM591.786 432.774L594.7 424.577C596.42 419.74 596.482 416.097 594.886 413.647C593.291 411.198 590.426 409.973 586.293 409.973C582.093 409.973 578.324 411.198 574.986 413.647C571.649 416.097 569.12 419.74 567.4 424.577L564.486 432.774H591.786ZM678.382 394.52C686.715 394.52 692.288 397.033 695.102 402.058C697.937 407.02 697.714 414.118 694.43 423.352L680.762 461.794H660.962L674.429 423.917C676.082 419.269 676.188 415.783 674.748 413.459C673.374 411.135 670.688 409.973 666.688 409.973C662.554 409.973 658.774 411.229 655.348 413.742C651.943 416.191 649.359 419.897 647.594 424.86L634.462 461.794H614.662L638.113 395.839H657.313L654.633 403.377C661.465 397.473 669.382 394.52 678.382 394.52ZM784.205 395.839L760.754 461.794H740.954L750.1 436.072H723.1L713.954 461.794H694.154L717.605 395.839H737.405L728.594 420.62H755.594L764.405 395.839H784.205ZM838.44 394.52C846.774 394.52 852.347 397.033 855.16 402.058C857.996 407.02 857.772 414.118 854.489 423.352L840.821 461.794H821.021L834.488 423.917C836.141 419.269 836.247 415.783 834.807 413.459C833.433 411.135 830.746 409.973 826.746 409.973C822.613 409.973 818.833 411.229 815.406 413.742C812.002 416.191 809.417 419.897 807.653 424.86L794.521 461.794H774.721L798.171 395.839H817.371L814.691 403.377C821.524 397.473 829.44 394.52 838.44 394.52ZM889.722 437.862L879.675 445.306L873.813 461.794H854.213L877.663 395.839H897.263L887.515 423.258L924.363 395.839H946.163L907.178 425.048L924.213 461.794H901.213L889.722 437.862ZM1012.79 428.817C1010.83 434.345 1007.79 439.433 1003.67 444.081C999.637 448.666 994.863 452.529 989.347 455.67C983.919 458.748 978.126 460.884 971.969 462.077L967.546 474.514H947.746L952.169 462.077C946.86 460.884 942.552 458.748 939.247 455.67C936.03 452.529 934.004 448.666 933.167 444.081C932.42 439.433 933.029 434.345 934.994 428.817C937.317 422.284 941.072 416.411 946.259 411.198C951.513 405.984 957.598 401.901 964.514 398.949C971.497 395.996 978.689 394.52 986.089 394.52C993.489 394.52 999.597 395.996 1004.41 398.949C1009.3 401.901 1012.48 405.984 1013.96 411.198C1015.51 416.411 1015.12 422.284 1012.79 428.817ZM967.194 447.661C970.728 447.661 974.207 446.876 977.632 445.306C981.057 443.735 984.105 441.537 986.777 438.71C989.471 435.821 991.477 432.523 992.794 428.817C994.112 425.111 994.44 421.845 993.778 419.018C993.139 416.128 991.665 413.899 989.357 412.328C987.049 410.758 984.128 409.973 980.595 409.973C977.061 409.973 973.582 410.758 970.157 412.328C966.732 413.899 963.673 416.128 960.978 419.018C958.307 421.845 956.312 425.111 954.994 428.817C953.677 432.523 953.337 435.821 953.977 438.71C954.638 441.537 956.123 443.735 958.432 445.306C960.74 446.876 963.661 447.661 967.194 447.661Z" fill="#FBC329"/>
<path d="M221.341 748.873C221.469 748.873 221.597 748.873 221.661 748.873L222.387 748.813C224.883 748.813 227.165 749.235 229.339 749.777C232.025 750.682 235.542 752.129 234.276 755.686L234.168 755.987C233.933 756.47 233.654 756.892 233.227 757.374C232.863 757.856 231.9 759.123 231.196 759.123C231.068 759.123 230.94 759.123 230.834 759.062C230.322 758.701 230.004 758.158 230.069 757.434L230.112 757.314C230.177 757.133 230.326 756.892 230.519 756.711C231.181 756.108 232.187 754.902 232.466 754.118C232.809 753.154 229.781 752.49 229.078 752.31C228.033 752.008 226.86 751.888 225.709 751.707C225.303 751.586 224.855 751.586 224.429 751.526C223.362 751.465 222.36 751.405 221.336 751.405C220.632 751.405 219.992 751.405 219.33 751.465C217.389 751.526 215.426 751.646 213.42 751.888C212.353 752.008 211.201 752.189 210.155 752.249C208.299 752.43 206.485 752.852 204.671 753.093L203.07 753.455C202.942 753.455 202.857 753.515 202.835 753.576C202.814 753.636 202.792 753.696 202.835 753.757C202.962 753.937 202.94 754.179 202.876 754.36C202.79 754.601 202.576 754.842 202.277 755.143C201.978 755.445 201.614 755.746 201.315 756.048L199.412 757.796C199.113 758.098 198.814 758.399 198.45 758.701C197.98 759.123 197.467 759.484 196.933 759.726C196.848 759.786 196.677 759.906 196.613 759.906H196.421C196.101 759.906 195.951 760.148 195.737 760.389C193.364 762.74 191.161 765.152 189.044 767.684C188.488 768.347 182.52 775.402 182.477 775.522C182.413 775.703 182.455 775.763 182.647 775.763C182.647 775.763 182.647 775.763 182.775 775.763L182.989 775.703C185.55 775.341 187.961 775.04 190.329 775.04H191.033C191.779 775.1 192.526 775.16 193.144 775.402C194.594 775.824 195.274 776.788 195.122 778.296C195.121 778.477 195.057 778.657 194.971 778.899C194.885 779.14 194.799 779.381 194.586 779.622C194.457 779.803 194.286 779.924 194.094 779.924C194.03 779.924 193.966 779.924 193.86 779.863C193.306 779.622 193.051 778.899 193.309 778.175L193.438 777.813C193.502 777.632 193.459 777.572 193.161 777.512C192.756 777.391 192.393 777.331 191.945 777.331H190.729C187.465 777.331 184.029 777.813 180.657 778.477C180.252 778.537 179.932 778.718 179.653 779.14C177.749 781.612 167.073 795.6 166.558 797.047C165.635 799.458 163.62 803.679 161.738 805.91C161.31 806.392 160.969 806.633 160.521 806.633C160.393 806.633 160.222 806.573 160.051 806.513C159.753 806.452 159.497 806.271 159.306 806.091C158.859 805.729 158.86 805.186 159.01 804.583L159.139 804.221C159.44 803.377 159.847 802.594 160.339 801.749C161.774 799.157 163.465 796.564 165.199 794.032C165.477 793.61 165.777 793.128 166.119 792.706C166.333 792.464 166.419 792.223 166.526 791.922C166.612 791.681 166.698 791.439 166.72 791.198C167.451 788.425 167.478 785.832 167.164 783.3L166.996 782.335C167.017 782.275 166.953 782.275 166.889 782.275C166.185 782.275 161.017 784.747 160.12 785.29C159.564 785.591 159.073 785.893 158.56 786.254C158.411 786.315 158.325 786.375 158.282 786.495L158.261 786.556C158.218 786.676 158.41 786.676 158.516 786.737C159.007 786.797 159.241 787.038 159.432 787.4C159.453 787.52 159.41 787.641 159.368 787.762L159.325 787.882C159.132 788.063 158.94 788.063 158.748 788.063C157.725 787.882 156.979 787.46 156.639 786.616C156.597 786.375 156.555 786.134 156.641 785.893C156.727 785.651 156.941 785.41 157.155 785.169C157.625 784.747 158.159 784.325 158.714 784.023C161 782.637 163.243 781.551 165.656 780.526C165.826 780.406 165.976 780.346 166.189 780.285C166.339 780.225 166.446 780.104 166.489 779.984C166.51 779.924 166.532 779.863 166.489 779.803C165.853 777.994 165.303 776.125 164.965 774.196C164.754 773.171 164.671 772.146 164.909 770.94C164.931 770.699 165.038 770.397 165.124 770.156C165.381 769.433 165.809 768.769 166.323 768.046C169.361 764.368 174.615 761.293 178.887 759.183C185.165 756.289 191.549 753.817 197.974 752.31C198.401 752.189 198.806 752.129 199.233 752.008L201.794 751.465C203.95 750.983 206.106 750.501 208.283 750.139C208.56 750.079 208.816 750.079 209.094 750.018L210.715 749.777C210.993 749.717 211.249 749.717 211.526 749.657C214.493 749.235 217.629 748.873 220.509 748.873H221.341ZM198.054 754.601C196.39 754.601 188.406 757.254 186.335 758.037C185.288 758.459 184.263 758.821 183.281 759.243C178.199 761.293 168.076 766.358 166.402 771.061C166.294 771.362 166.251 771.663 166.208 771.965L166.205 773.05C166.371 775.281 167.071 777.271 167.621 779.321C167.684 779.502 167.727 779.562 167.855 779.562C167.919 779.562 168.047 779.562 168.196 779.502L171.271 778.416C173.363 777.753 175.498 777.15 177.568 776.728C177.973 776.668 178.23 776.487 178.465 776.185C180.198 774.015 181.909 771.905 183.685 769.794C184.005 769.433 184.241 769.131 184.561 768.769L186.294 766.78C189.524 762.921 193.501 758.58 197.477 755.324C197.754 755.083 198.075 754.902 198.31 754.601H198.054ZM175.727 779.562C173.785 779.803 170.625 780.949 168.725 781.612C168.426 781.732 168.362 781.732 168.319 781.853C168.298 781.913 168.319 782.034 168.318 782.215L168.361 782.275C168.698 784.385 168.906 786.495 168.688 788.726C168.731 788.787 168.709 788.847 168.837 788.847C171.084 785.772 173.395 782.697 175.77 779.622L175.727 779.562ZM214.204 783.059C213.884 783.059 213.713 783.179 213.457 783.36C211.02 785.712 207.089 788.304 204.017 788.304C201.457 788.304 199.754 786.435 200.634 783.963C201.193 782.396 203.376 778.959 204.935 778.175C205.341 777.934 205.683 777.874 206.067 777.874C206.835 777.874 207.452 778.296 207.515 779.019L207.536 779.14C207.45 779.381 207.193 779.562 207.001 779.743L205.975 780.466C205.719 780.647 205.441 780.888 205.227 781.129C204.265 782.396 203.387 783.601 202.893 784.988C202.765 785.35 202.764 785.712 202.763 786.073C202.677 786.495 202.954 786.616 203.338 786.616H203.978C206.325 786.315 209.252 784.566 211.239 782.938C211.346 782.818 211.432 782.757 211.453 782.697C211.475 782.637 211.432 782.576 211.262 782.516C208.938 781.853 207.129 779.743 208.095 777.03C208.31 776.427 208.652 775.824 209.166 775.281C210.278 773.955 211.773 773.171 213.374 772.809C213.715 772.749 214.057 772.688 214.377 772.688C217.129 772.688 218.382 775.1 217.502 777.572C217.03 778.899 216.216 780.104 215.339 781.31C215.232 781.431 215.125 781.551 215.104 781.612C215.061 781.732 215.189 781.732 215.445 781.732H215.957C216.789 781.732 217.664 781.612 218.475 781.491C219.307 781.31 220.097 781.069 220.93 780.707C221.079 780.647 221.229 780.587 221.421 780.587C221.869 780.587 222.273 780.888 222.251 781.31L222.208 781.431C222.144 781.612 222.058 781.672 221.909 781.732C221.503 781.973 221.054 782.154 220.691 782.275C219.282 782.818 217.852 783.059 216.636 783.059H214.204ZM216.074 776.728C216.332 776.005 216.419 775.402 216.313 774.98C216.186 774.618 216.037 774.316 215.525 774.316H215.141C215.013 774.316 214.949 774.316 214.8 774.377C213.605 774.497 212.473 774.98 211.468 776.005C211.04 776.487 210.719 777.03 210.526 777.572C210.376 777.994 210.289 778.416 210.267 778.838C210.307 780.165 210.923 781.129 212.331 781.491H212.459C212.715 781.491 212.885 781.371 213.078 781.19L213.719 780.466C214.703 779.321 215.538 778.054 216.074 776.728ZM219.902 782.697C222.178 776.306 228.254 768.408 233.876 763.223C237.553 759.726 244.883 753.877 249.875 753.877C252.179 753.877 253.925 755.445 253.109 757.736C253.045 757.917 252.981 758.098 252.831 758.339C250.688 762.378 244.918 767.262 241.071 770.156C236.926 773.352 228.251 779.381 224.024 780.466C223.726 780.587 223.619 780.707 223.447 781.009C222.976 781.973 222.547 782.998 222.182 784.023L221.946 784.687C221.409 786.375 220.674 790.595 223.106 790.595C223.234 790.595 223.384 790.535 223.576 790.535C225.112 790.173 226.865 788.847 228.126 787.822C228.489 787.52 228.788 787.4 229.044 787.4C229.172 787.4 229.342 787.46 229.577 787.52C229.854 787.641 230.451 787.942 230.3 788.365C230.279 788.425 230.172 788.545 230.001 788.666C228.227 790.234 225.748 792.163 223.508 792.163C222.868 792.163 222.228 791.982 221.674 791.741C218.286 790.113 218.571 786.435 219.902 782.697ZM224.497 779.14C224.753 779.14 224.924 779.019 225.159 778.899L226.568 778.175C234.236 773.894 246.267 764.911 250.527 758.339C250.741 757.917 250.977 757.434 251.148 756.952L251.32 756.47C251.492 755.987 251.407 755.867 250.895 755.867H250.447C248.975 755.867 246.626 756.892 245.195 757.676C236.971 762.258 229.529 770.578 225.14 777.874C224.947 778.235 224.668 778.657 224.497 779.14ZM246.361 780.285C245.549 780.949 244.759 781.551 244.032 782.154C241.959 783.843 236.296 788.244 233.736 788.244C232.008 788.244 230.838 786.857 231.31 785.35C231.503 784.807 231.825 784.265 232.188 783.782C234.928 779.863 241.766 774.497 246.246 774.497C247.334 774.497 248.251 774.799 248.975 775.462C249.124 775.582 249.209 775.703 249.337 775.703C249.401 775.703 249.508 775.582 249.764 775.402C249.978 775.16 250.192 774.919 250.342 774.678C254.342 769.553 258.748 764.73 263.643 760.148C265.075 758.821 270.27 754.118 272.19 754.118C272.446 754.118 272.68 754.179 272.872 754.36C273.234 754.782 273.382 755.264 273.189 755.807C273.124 755.987 272.975 756.229 272.846 756.409C272.418 757.073 271.819 757.676 271.199 758.339C268.933 760.57 266.56 762.74 264.187 764.911C260.831 767.865 257.476 770.819 254.056 773.774C253.863 773.955 253.585 774.196 253.436 774.437C249.884 779.019 246.46 783.963 244.7 788.907L244.528 789.57C244.506 789.631 244.463 789.751 244.42 789.872C244.312 790.354 244.205 790.836 244.161 791.319C244.161 791.5 244.203 791.56 244.267 791.56C244.331 791.56 244.395 791.56 244.481 791.5C244.865 791.319 245.1 791.198 245.356 791.198C245.484 791.198 245.548 791.198 245.654 791.259C246.102 791.439 246.4 791.681 246.484 792.163C246.527 792.223 246.484 792.344 246.463 792.404C246.42 792.525 246.398 792.585 246.227 792.706C246.163 792.706 246.078 792.766 245.992 792.826C245.266 793.248 244.668 793.489 244.156 793.489C243.708 793.489 243.282 793.248 242.835 792.886C241.835 791.741 242.095 789.932 242.61 788.304C242.718 787.822 242.89 787.34 243.062 786.857C243.77 784.868 244.798 782.878 245.997 780.949C246.126 780.768 246.254 780.587 246.361 780.285ZM260.43 766.297C263.636 763.584 266.735 760.811 269.686 757.736C268.554 758.218 263.06 763.403 260.43 766.297ZM233.741 786.073C233.698 786.194 233.676 786.254 233.804 786.254C233.868 786.254 233.932 786.254 234.018 786.194C234.594 786.013 235.192 785.772 235.747 785.47C238.822 784.023 241.921 781.612 244.592 779.502C245.725 778.657 246.815 777.753 247.883 776.909C248.054 776.788 248.097 776.668 248.119 776.607C248.248 776.246 247.779 776.125 247.459 776.125C244.835 776.125 241.224 778.537 239.108 780.346C237.868 781.31 234.256 784.626 233.784 785.953L233.741 786.073ZM257.687 786.917C261.271 786.917 267.785 783.36 270.947 781.129C271.311 780.828 271.546 780.707 271.802 780.707C271.93 780.707 272.1 780.768 272.313 780.888C272.59 781.009 272.675 781.129 272.632 781.25C272.568 781.431 272.461 781.551 272.205 781.732C268.55 784.807 261.46 788.184 257.428 788.184C254.292 788.184 251.607 786.556 252.062 783.481C252.084 783.24 252.17 782.998 252.256 782.757C252.385 782.396 252.599 781.973 252.813 781.551C255.425 777.271 260.96 772.869 265.952 772.869C267.147 772.93 268.085 773.352 268.765 774.135C269.106 774.618 269.211 775.221 268.975 775.884C267.773 779.26 260.405 782.878 257.205 782.878C256.565 782.878 255.946 782.818 255.371 782.637C255.264 782.576 255.136 782.576 255.072 782.576C254.88 782.576 254.837 782.697 254.751 782.938L254.515 783.601C253.85 785.47 254.487 786.737 256.471 786.917H257.687ZM256.525 781.732C256.845 781.732 257.165 781.732 257.506 781.672C260.729 780.888 265.3 778.477 266.907 775.402L266.971 775.221C267.164 774.678 266.93 774.618 266.482 774.618C262.812 774.859 258.367 778.175 255.993 781.069C255.886 781.19 255.8 781.25 255.779 781.31L255.715 781.491C255.672 781.612 255.714 781.672 255.885 781.732H256.525ZM271.624 784.687C272.095 784.265 272.522 783.782 273.014 783.3C276.201 779.743 280.819 774.859 285.07 772.447C285.454 772.266 285.817 772.146 286.137 772.146C287.033 772.146 287.65 773.11 287.648 773.834C287.669 774.316 287.625 774.799 287.709 775.281C287.687 775.703 287.75 775.884 288.006 775.884C288.198 775.884 289.031 775.522 289.16 775.341C289.416 775.16 289.629 775.1 289.757 775.1C289.949 775.1 290.12 775.16 290.205 775.281C290.674 775.582 290.844 775.824 290.758 776.065C290.672 776.306 290.394 776.547 289.967 776.849C289.39 777.21 288.814 777.391 288.238 777.391C287.982 777.391 287.726 777.391 287.513 777.271C286.191 776.668 285.746 775.582 286.026 774.075C286.027 773.894 285.984 773.834 285.92 773.834C285.856 773.834 285.771 773.894 285.621 773.955C285.237 774.135 284.831 774.377 284.425 774.618C280.772 776.969 276.688 781.25 274.078 784.445C273.329 785.47 272.452 786.495 271.554 787.4L271.234 787.762C271.148 787.822 271.127 787.882 271.041 787.942C270.571 788.365 270.122 788.545 269.61 788.545C269.482 788.545 269.376 788.485 269.184 788.485C267.947 788.184 267.586 787.4 268.037 786.134L268.144 785.832C268.381 785.169 268.766 784.445 269.173 783.843C270.993 780.707 273.197 777.753 275.87 774.919C276.341 774.316 277.303 773.412 278.135 773.412C278.775 773.412 279.307 773.894 279.455 774.377C279.498 774.437 279.455 774.558 279.412 774.678C279.369 774.799 279.347 774.859 279.176 774.98C276.954 776.547 273.166 781.973 271.924 784.204C271.817 784.325 271.689 784.506 271.624 784.687Z" fill="#238CFF"/>
<path d="M386.989 660.325C384.708 653.465 383.895 645.513 384.551 636.468C385.287 627.423 387.491 617.737 391.163 607.41C394.835 597.083 399.519 587.397 405.215 578.352C411.018 569.231 417.485 561.279 424.617 554.495H438.897C431.123 562.636 424.534 571.04 419.132 579.709C413.837 588.302 409.434 597.536 405.923 607.41C402.412 617.284 400.236 626.556 399.394 635.224C398.658 643.817 399.283 652.184 401.269 660.325H386.989ZM547.037 546.354H532.877L520.985 530.525H540.545L547.037 546.354ZM645.61 584.345L602.924 632.511L594.49 584.345H645.61ZM608.07 618.038L632.718 590.902H602.718L608.07 618.038ZM708.816 554.269H726.456L700.069 569.759H687.109L708.816 554.269ZM703.581 660.325C711.355 652.184 717.944 643.779 723.346 635.111C728.748 626.443 733.191 617.209 736.675 607.41C740.159 597.611 742.282 588.377 743.044 579.709C743.806 571.04 743.195 562.636 741.209 554.495H755.489C757.824 561.204 758.61 569.118 757.847 578.239C757.191 587.284 755.013 597.008 751.315 607.41C747.616 617.812 742.879 627.536 737.103 636.581C731.434 645.551 725.02 653.465 717.861 660.325H703.581ZM794.859 638.39L802.296 617.473C796.643 617.397 791.924 616.606 788.14 615.098C784.436 613.591 781.68 611.443 779.871 608.654C778.09 605.789 777.189 602.36 777.17 598.365C777.257 594.294 778.212 589.696 780.034 584.571L789.602 557.661H804.362L794.593 585.136C792.744 590.337 792.043 594.445 792.491 597.46C793.046 600.4 794.536 602.51 796.96 603.792C799.491 604.998 802.677 605.601 806.517 605.601L823.562 557.661H837.722L820.677 605.601C824.277 605.601 827.731 604.998 831.04 603.792C834.349 602.586 837.366 600.513 840.091 597.573C842.843 594.558 845.13 590.488 846.953 585.362L856.802 557.661H871.562L862.035 584.458C859.569 591.392 856.185 597.309 851.883 602.209C847.661 607.108 842.561 610.877 836.583 613.516C830.632 616.078 823.923 617.397 816.456 617.473L809.019 638.39H794.859Z" fill="#FBC329"/>
</g>
<defs>
<clipPath id="clip0_43_120">
<rect width="1200" height="800" fill="white"/>
</clipPath>
</defs>
</svg>
